<?xml version="1.0" encoding="UTF-8"?>
<svg xmlns="http://www.w3.org/2000/svg" version="1.1" width="500" height="500" viewBox="0 0 500 500"><rect x="0" y="0" width="500" height="500" fill="#ffffcc"/><g transform="scale(23.81)"><g transform="translate(0,0)"><path fill-rule="evenodd" d="M9 0L9 1L8 1L8 2L9 2L9 3L8 3L8 4L9 4L9 3L10 3L10 2L9 2L9 1L10 1L10 0ZM12 0L12 1L11 1L11 2L12 2L12 1L13 1L13 0ZM11 3L11 4L10 4L10 5L8 5L8 7L9 7L9 6L10 6L10 8L6 8L6 9L7 9L7 10L6 10L6 11L7 11L7 10L8 10L8 11L9 11L9 12L8 12L8 15L9 15L9 16L8 16L8 21L9 21L9 20L11 20L11 21L13 21L13 20L14 20L14 21L15 21L15 20L16 20L16 19L15 19L15 18L17 18L17 19L18 19L18 20L17 20L17 21L18 21L18 20L19 20L19 21L20 21L20 20L19 20L19 17L21 17L21 16L19 16L19 15L18 15L18 16L17 16L17 15L15 15L15 14L19 14L19 13L18 13L18 12L19 12L19 11L18 11L18 10L21 10L21 9L20 9L20 8L19 8L19 9L18 9L18 8L17 8L17 9L16 9L16 8L15 8L15 9L14 9L14 8L13 8L13 4L12 4L12 3ZM11 5L11 7L12 7L12 5ZM0 8L0 9L2 9L2 11L3 11L3 12L4 12L4 13L7 13L7 12L4 12L4 9L5 9L5 8ZM10 8L10 9L8 9L8 10L10 10L10 13L11 13L11 16L10 16L10 17L9 17L9 19L10 19L10 17L11 17L11 19L12 19L12 20L13 20L13 19L14 19L14 20L15 20L15 19L14 19L14 18L15 18L15 17L17 17L17 16L15 16L15 15L14 15L14 12L15 12L15 13L17 13L17 12L18 12L18 11L17 11L17 10L14 10L14 9L13 9L13 10L12 10L12 8ZM0 10L0 13L2 13L2 12L1 12L1 10ZM11 10L11 11L12 11L12 10ZM13 11L13 12L14 12L14 11ZM16 11L16 12L17 12L17 11ZM20 11L20 12L21 12L21 11ZM11 12L11 13L12 13L12 15L13 15L13 16L12 16L12 17L13 17L13 18L12 18L12 19L13 19L13 18L14 18L14 17L15 17L15 16L14 16L14 15L13 15L13 13L12 13L12 12ZM20 13L20 14L21 14L21 13ZM9 14L9 15L10 15L10 14ZM13 16L13 17L14 17L14 16ZM18 16L18 17L19 17L19 16ZM0 0L0 7L7 7L7 0ZM1 1L1 6L6 6L6 1ZM2 2L2 5L5 5L5 2ZM14 0L14 7L21 7L21 0ZM15 1L15 6L20 6L20 1ZM16 2L16 5L19 5L19 2ZM0 14L0 21L7 21L7 14ZM1 15L1 20L6 20L6 15ZM2 16L2 19L5 19L5 16Z" fill="#000000"/></g></g></svg>
