<?xml version="1.0" encoding="UTF-8"?>
<svg xmlns="http://www.w3.org/2000/svg" version="1.1" width="500" height="500" viewBox="0 0 500 500"><rect x="0" y="0" width="500" height="500" fill="#ffffcc"/><g transform="scale(4)"><g transform="translate(0,0)"><path fill-rule="evenodd" d="M8 0L8 4L9 4L9 3L11 3L11 4L10 4L10 5L8 5L8 7L9 7L9 9L10 9L10 10L11 10L11 8L10 8L10 7L11 7L11 4L12 4L12 8L13 8L13 4L14 4L14 3L16 3L16 5L14 5L14 7L15 7L15 6L16 6L16 7L17 7L17 6L16 6L16 5L19 5L19 4L20 4L20 7L19 7L19 6L18 6L18 8L19 8L19 9L17 9L17 10L19 10L19 11L20 11L20 10L21 10L21 5L23 5L23 4L25 4L25 5L26 5L26 7L25 7L25 6L24 6L24 7L23 7L23 6L22 6L22 7L23 7L23 8L22 8L22 11L21 11L21 12L19 12L19 14L18 14L18 12L17 12L17 14L13 14L13 15L12 15L12 13L13 13L13 12L14 12L14 13L15 13L15 12L14 12L14 11L12 11L12 12L11 12L11 11L9 11L9 10L8 10L8 9L7 9L7 8L4 8L4 9L2 9L2 8L0 8L0 10L4 10L4 11L5 11L5 10L6 10L6 11L7 11L7 10L8 10L8 12L4 12L4 13L3 13L3 12L2 12L2 11L1 11L1 13L0 13L0 14L1 14L1 16L0 16L0 18L2 18L2 19L1 19L1 21L0 21L0 22L1 22L1 23L0 23L0 28L1 28L1 25L3 25L3 26L4 26L4 27L5 27L5 26L6 26L6 27L7 27L7 28L6 28L6 29L4 29L4 28L3 28L3 27L2 27L2 28L3 28L3 29L0 29L0 30L3 30L3 31L2 31L2 32L3 32L3 31L4 31L4 34L2 34L2 33L1 33L1 32L0 32L0 34L1 34L1 35L0 35L0 38L1 38L1 36L2 36L2 35L4 35L4 38L3 38L3 37L2 37L2 38L3 38L3 39L0 39L0 41L1 41L1 40L4 40L4 39L5 39L5 40L6 40L6 41L5 41L5 42L6 42L6 43L8 43L8 44L5 44L5 45L4 45L4 49L2 49L2 48L3 48L3 46L2 46L2 48L1 48L1 47L0 47L0 48L1 48L1 50L0 50L0 52L1 52L1 54L0 54L0 58L1 58L1 59L2 59L2 60L1 60L1 61L0 61L0 62L1 62L1 61L3 61L3 65L5 65L5 67L7 67L7 68L6 68L6 69L7 69L7 70L5 70L5 69L4 69L4 67L3 67L3 66L2 66L2 68L3 68L3 69L4 69L4 70L5 70L5 71L4 71L4 72L3 72L3 70L2 70L2 72L0 72L0 74L2 74L2 73L3 73L3 75L4 75L4 76L3 76L3 77L4 77L4 80L6 80L6 81L7 81L7 82L6 82L6 83L5 83L5 81L3 81L3 79L2 79L2 75L1 75L1 76L0 76L0 77L1 77L1 79L2 79L2 80L1 80L1 83L2 83L2 84L1 84L1 85L2 85L2 86L1 86L1 88L2 88L2 89L3 89L3 90L2 90L2 91L1 91L1 92L0 92L0 95L1 95L1 93L2 93L2 92L3 92L3 93L4 93L4 95L2 95L2 96L0 96L0 97L4 97L4 95L5 95L5 96L6 96L6 97L5 97L5 99L4 99L4 98L2 98L2 99L1 99L1 98L0 98L0 99L1 99L1 100L0 100L0 101L1 101L1 102L2 102L2 103L3 103L3 106L2 106L2 107L1 107L1 108L0 108L0 109L1 109L1 112L0 112L0 114L1 114L1 115L0 115L0 117L1 117L1 115L2 115L2 116L3 116L3 115L2 115L2 114L4 114L4 116L6 116L6 117L7 117L7 116L6 116L6 115L10 115L10 114L11 114L11 113L13 113L13 111L12 111L12 110L15 110L15 111L16 111L16 114L12 114L12 115L13 115L13 116L11 116L11 117L10 117L10 116L8 116L8 118L10 118L10 120L9 120L9 119L8 119L8 121L9 121L9 122L10 122L10 123L12 123L12 121L13 121L13 124L12 124L12 125L15 125L15 123L17 123L17 122L19 122L19 121L20 121L20 122L21 122L21 123L20 123L20 124L21 124L21 125L22 125L22 124L21 124L21 123L22 123L22 122L24 122L24 125L26 125L26 124L28 124L28 125L29 125L29 124L31 124L31 125L32 125L32 123L35 123L35 122L36 122L36 123L38 123L38 124L37 124L37 125L40 125L40 124L41 124L41 125L42 125L42 124L43 124L43 123L44 123L44 122L43 122L43 121L45 121L45 120L46 120L46 123L45 123L45 124L44 124L44 125L45 125L45 124L46 124L46 123L47 123L47 120L46 120L46 119L47 119L47 118L48 118L48 119L50 119L50 120L49 120L49 121L48 121L48 123L49 123L49 122L50 122L50 120L51 120L51 121L53 121L53 122L56 122L56 123L59 123L59 122L58 122L58 121L60 121L60 123L61 123L61 124L55 124L55 123L52 123L52 122L51 122L51 123L50 123L50 125L52 125L52 124L53 124L53 125L61 125L61 124L62 124L62 125L63 125L63 124L64 124L64 125L65 125L65 123L64 123L64 121L66 121L66 122L67 122L67 125L70 125L70 124L68 124L68 122L70 122L70 123L71 123L71 124L72 124L72 123L76 123L76 124L73 124L73 125L76 125L76 124L77 124L77 125L79 125L79 124L80 124L80 125L82 125L82 123L83 123L83 124L84 124L84 123L85 123L85 122L87 122L87 121L88 121L88 122L89 122L89 123L88 123L88 124L87 124L87 123L86 123L86 124L85 124L85 125L89 125L89 124L90 124L90 125L94 125L94 124L92 124L92 123L93 123L93 122L94 122L94 123L98 123L98 124L97 124L97 125L99 125L99 123L98 123L98 122L99 122L99 121L100 121L100 120L103 120L103 121L104 121L104 119L105 119L105 117L106 117L106 120L107 120L107 121L106 121L106 123L109 123L109 125L111 125L111 124L113 124L113 125L114 125L114 124L116 124L116 125L117 125L117 124L116 124L116 121L117 121L117 123L118 123L118 125L119 125L119 124L120 124L120 123L118 123L118 122L119 122L119 121L122 121L122 115L121 115L121 114L122 114L122 112L121 112L121 111L119 111L119 110L121 110L121 109L119 109L119 108L118 108L118 107L119 107L119 106L120 106L120 108L121 108L121 106L123 106L123 110L124 110L124 112L125 112L125 105L124 105L124 106L123 106L123 105L119 105L119 104L118 104L118 103L119 103L119 102L121 102L121 104L122 104L122 102L123 102L123 104L125 104L125 101L124 101L124 100L125 100L125 97L124 97L124 95L125 95L125 92L122 92L122 91L123 91L123 90L124 90L124 91L125 91L125 88L124 88L124 87L125 87L125 86L124 86L124 84L123 84L123 85L121 85L121 84L122 84L122 83L121 83L121 82L120 82L120 81L122 81L122 82L123 82L123 81L124 81L124 83L125 83L125 80L123 80L123 81L122 81L122 79L123 79L123 77L124 77L124 79L125 79L125 77L124 77L124 76L125 76L125 69L124 69L124 71L123 71L123 72L124 72L124 73L122 73L122 71L121 71L121 69L122 69L122 70L123 70L123 69L122 69L122 67L123 67L123 68L124 68L124 67L125 67L125 65L124 65L124 64L125 64L125 57L124 57L124 58L123 58L123 57L122 57L122 55L123 55L123 56L125 56L125 53L123 53L123 54L122 54L122 55L121 55L121 53L122 53L122 51L123 51L123 52L125 52L125 48L123 48L123 49L122 49L122 46L124 46L124 47L125 47L125 45L120 45L120 47L121 47L121 49L122 49L122 50L120 50L120 49L118 49L118 48L117 48L117 47L116 47L116 46L117 46L117 45L116 45L116 44L115 44L115 43L117 43L117 44L118 44L118 43L121 43L121 44L122 44L122 43L121 43L121 42L119 42L119 41L122 41L122 42L123 42L123 41L122 41L122 40L119 40L119 41L118 41L118 40L117 40L117 41L116 41L116 40L115 40L115 39L117 39L117 37L118 37L118 38L119 38L119 37L121 37L121 39L125 39L125 37L124 37L124 36L125 36L125 34L124 34L124 33L125 33L125 29L124 29L124 31L123 31L123 30L121 30L121 32L119 32L119 31L118 31L118 32L117 32L117 31L116 31L116 30L119 30L119 28L121 28L121 29L122 29L122 28L121 28L121 27L120 27L120 26L119 26L119 25L120 25L120 22L118 22L118 21L119 21L119 20L120 20L120 21L121 21L121 24L122 24L122 22L124 22L124 24L125 24L125 21L124 21L124 19L125 19L125 17L124 17L124 16L125 16L125 13L124 13L124 16L123 16L123 17L122 17L122 18L121 18L121 19L120 19L120 18L119 18L119 19L118 19L118 18L117 18L117 19L114 19L114 20L113 20L113 19L112 19L112 20L111 20L111 19L110 19L110 20L109 20L109 21L111 21L111 23L110 23L110 22L108 22L108 20L107 20L107 18L106 18L106 16L107 16L107 17L108 17L108 18L116 18L116 17L117 17L117 15L118 15L118 17L121 17L121 15L123 15L123 13L121 13L121 11L118 11L118 10L119 10L119 9L120 9L120 8L119 8L119 9L117 9L117 6L116 6L116 4L114 4L114 3L113 3L113 1L112 1L112 3L111 3L111 1L110 1L110 0L107 0L107 1L109 1L109 3L111 3L111 5L110 5L110 4L108 4L108 5L110 5L110 7L109 7L109 6L108 6L108 7L109 7L109 8L108 8L108 9L107 9L107 10L106 10L106 9L105 9L105 8L106 8L106 7L107 7L107 6L106 6L106 5L107 5L107 4L106 4L106 0L104 0L104 1L102 1L102 0L101 0L101 1L100 1L100 0L98 0L98 3L95 3L95 4L93 4L93 3L94 3L94 1L95 1L95 0L93 0L93 3L91 3L91 2L92 2L92 1L91 1L91 0L90 0L90 1L89 1L89 0L88 0L88 2L87 2L87 0L86 0L86 1L85 1L85 0L83 0L83 4L84 4L84 5L83 5L83 6L82 6L82 0L81 0L81 6L80 6L80 7L79 7L79 5L77 5L77 4L79 4L79 3L80 3L80 1L79 1L79 0L78 0L78 2L77 2L77 0L74 0L74 1L73 1L73 0L71 0L71 1L73 1L73 2L74 2L74 3L73 3L73 4L72 4L72 5L73 5L73 4L75 4L75 5L74 5L74 8L76 8L76 9L77 9L77 10L79 10L79 11L76 11L76 13L77 13L77 14L79 14L79 13L80 13L80 14L81 14L81 13L82 13L82 15L76 15L76 16L75 16L75 15L73 15L73 16L75 16L75 17L76 17L76 16L78 16L78 17L80 17L80 16L82 16L82 17L83 17L83 18L82 18L82 19L81 19L81 18L80 18L80 19L78 19L78 20L77 20L77 19L76 19L76 18L75 18L75 19L74 19L74 17L72 17L72 16L71 16L71 17L72 17L72 18L70 18L70 17L69 17L69 16L70 16L70 15L71 15L71 14L70 14L70 13L69 13L69 14L68 14L68 11L69 11L69 12L70 12L70 11L71 11L71 10L72 10L72 11L74 11L74 13L75 13L75 11L74 11L74 9L73 9L73 8L72 8L72 9L71 9L71 8L70 8L70 11L69 11L69 9L67 9L67 10L66 10L66 11L65 11L65 10L64 10L64 13L65 13L65 12L66 12L66 11L67 11L67 14L68 14L68 15L66 15L66 14L65 14L65 15L62 15L62 13L63 13L63 11L62 11L62 12L61 12L61 11L60 11L60 10L63 10L63 9L66 9L66 8L68 8L68 7L69 7L69 6L68 6L68 5L70 5L70 4L71 4L71 3L70 3L70 0L69 0L69 3L68 3L68 1L67 1L67 0L66 0L66 2L65 2L65 1L64 1L64 0L62 0L62 3L60 3L60 4L59 4L59 3L58 3L58 1L60 1L60 0L58 0L58 1L54 1L54 0L53 0L53 1L52 1L52 0L51 0L51 1L50 1L50 3L49 3L49 4L48 4L48 3L46 3L46 1L47 1L47 2L48 2L48 0L45 0L45 4L46 4L46 5L47 5L47 6L46 6L46 7L47 7L47 6L48 6L48 7L49 7L49 6L50 6L50 9L48 9L48 11L50 11L50 13L52 13L52 12L54 12L54 13L56 13L56 11L57 11L57 14L55 14L55 15L54 15L54 14L53 14L53 15L50 15L50 14L48 14L48 13L47 13L47 12L46 12L46 11L47 11L47 10L45 10L45 9L47 9L47 8L45 8L45 9L44 9L44 8L43 8L43 4L42 4L42 3L43 3L43 2L44 2L44 0L41 0L41 1L39 1L39 0L38 0L38 2L37 2L37 3L39 3L39 4L40 4L40 3L41 3L41 5L40 5L40 8L41 8L41 6L42 6L42 9L43 9L43 11L42 11L42 10L41 10L41 9L37 9L37 4L32 4L32 1L31 1L31 0L30 0L30 2L29 2L29 1L28 1L28 2L27 2L27 0L26 0L26 1L25 1L25 0L24 0L24 2L25 2L25 3L20 3L20 2L19 2L19 1L23 1L23 0L17 0L17 1L18 1L18 2L19 2L19 4L17 4L17 2L14 2L14 1L15 1L15 0L13 0L13 2L12 2L12 1L11 1L11 2L10 2L10 0ZM96 0L96 1L97 1L97 0ZM115 0L115 1L114 1L114 2L115 2L115 3L116 3L116 2L115 2L115 1L117 1L117 0ZM33 1L33 2L34 2L34 3L35 3L35 2L36 2L36 1L35 1L35 2L34 2L34 1ZM75 1L75 2L76 2L76 1ZM84 1L84 3L85 3L85 5L84 5L84 6L83 6L83 7L82 7L82 6L81 6L81 7L80 7L80 8L79 8L79 10L80 10L80 8L83 8L83 9L81 9L81 10L84 10L84 9L86 9L86 2L85 2L85 1ZM99 1L99 3L100 3L100 1ZM104 1L104 2L102 2L102 3L101 3L101 4L103 4L103 5L104 5L104 6L103 6L103 7L104 7L104 8L102 8L102 9L103 9L103 10L101 10L101 9L100 9L100 6L99 6L99 9L98 9L98 10L97 10L97 11L96 11L96 9L95 9L95 8L97 8L97 7L98 7L98 5L99 5L99 4L98 4L98 5L96 5L96 4L95 4L95 5L94 5L94 6L93 6L93 7L94 7L94 8L93 8L93 9L95 9L95 11L94 11L94 10L93 10L93 11L92 11L92 10L91 10L91 9L88 9L88 11L87 11L87 10L86 10L86 11L82 11L82 12L86 12L86 11L87 11L87 13L86 13L86 14L85 14L85 13L84 13L84 14L85 14L85 15L82 15L82 16L85 16L85 15L88 15L88 14L89 14L89 13L88 13L88 11L89 11L89 12L91 12L91 14L90 14L90 15L91 15L91 14L92 14L92 12L93 12L93 11L94 11L94 13L93 13L93 15L92 15L92 16L91 16L91 17L93 17L93 19L92 19L92 18L90 18L90 17L88 17L88 18L87 18L87 17L86 17L86 20L87 20L87 21L86 21L86 22L85 22L85 19L84 19L84 18L83 18L83 19L82 19L82 22L81 22L81 23L80 23L80 22L79 22L79 21L80 21L80 20L81 20L81 19L80 19L80 20L78 20L78 21L77 21L77 20L73 20L73 19L71 19L71 20L70 20L70 19L68 19L68 20L66 20L66 19L67 19L67 17L66 17L66 15L65 15L65 17L64 17L64 16L63 16L63 17L61 17L61 16L62 16L62 15L61 15L61 16L60 16L60 14L59 14L59 15L58 15L58 14L57 14L57 15L56 15L56 16L59 16L59 17L61 17L61 18L60 18L60 19L61 19L61 18L62 18L62 19L63 19L63 18L64 18L64 19L65 19L65 20L66 20L66 21L65 21L65 23L67 23L67 21L68 21L68 20L69 20L69 22L68 22L68 25L69 25L69 22L71 22L71 23L70 23L70 24L72 24L72 25L71 25L71 27L70 27L70 26L69 26L69 27L68 27L68 26L66 26L66 25L67 25L67 24L66 24L66 25L65 25L65 24L64 24L64 22L62 22L62 20L60 20L60 21L61 21L61 22L62 22L62 24L63 24L63 25L62 25L62 27L63 27L63 29L64 29L64 28L65 28L65 27L63 27L63 26L66 26L66 27L68 27L68 28L67 28L67 30L66 30L66 29L65 29L65 30L64 30L64 31L65 31L65 30L66 30L66 31L67 31L67 32L65 32L65 33L67 33L67 34L65 34L65 35L67 35L67 36L66 36L66 37L61 37L61 38L60 38L60 39L58 39L58 37L57 37L57 35L58 35L58 36L59 36L59 37L60 37L60 36L59 36L59 35L60 35L60 34L59 34L59 33L60 33L60 31L62 31L62 32L63 32L63 30L62 30L62 29L61 29L61 28L60 28L60 27L61 27L61 26L60 26L60 25L61 25L61 24L60 24L60 23L58 23L58 21L59 21L59 19L58 19L58 18L57 18L57 17L54 17L54 15L53 15L53 17L52 17L52 16L51 16L51 17L50 17L50 19L51 19L51 20L50 20L50 23L46 23L46 20L45 20L45 19L46 19L46 18L48 18L48 19L47 19L47 21L48 21L48 22L49 22L49 20L48 20L48 19L49 19L49 18L48 18L48 17L47 17L47 16L50 16L50 15L48 15L48 14L47 14L47 13L45 13L45 11L43 11L43 12L42 12L42 13L40 13L40 11L41 11L41 10L37 10L37 11L36 11L36 9L35 9L35 11L34 11L34 10L33 10L33 12L32 12L32 13L33 13L33 14L31 14L31 11L30 11L30 10L32 10L32 8L30 8L30 6L29 6L29 8L28 8L28 6L27 6L27 8L28 8L28 10L27 10L27 9L26 9L26 10L25 10L25 8L24 8L24 9L23 9L23 12L22 12L22 13L21 13L21 14L20 14L20 15L21 15L21 18L22 18L22 20L23 20L23 22L22 22L22 23L23 23L23 24L21 24L21 25L22 25L22 26L25 26L25 25L26 25L26 24L25 24L25 25L24 25L24 23L23 23L23 22L25 22L25 23L27 23L27 26L26 26L26 27L27 27L27 26L28 26L28 27L29 27L29 26L30 26L30 27L31 27L31 28L32 28L32 29L30 29L30 28L25 28L25 27L24 27L24 28L23 28L23 27L22 27L22 30L21 30L21 31L20 31L20 29L21 29L21 27L20 27L20 29L19 29L19 26L20 26L20 23L21 23L21 22L20 22L20 23L19 23L19 24L18 24L18 20L19 20L19 19L20 19L20 21L21 21L21 19L20 19L20 18L19 18L19 19L18 19L18 18L16 18L16 19L17 19L17 22L16 22L16 24L14 24L14 25L12 25L12 24L13 24L13 23L14 23L14 22L15 22L15 21L16 21L16 20L14 20L14 19L15 19L15 17L19 17L19 16L16 16L16 15L13 15L13 16L12 16L12 15L9 15L9 14L11 14L11 13L9 13L9 12L8 12L8 13L4 13L4 14L8 14L8 15L4 15L4 16L5 16L5 17L4 17L4 18L3 18L3 19L4 19L4 20L3 20L3 22L2 22L2 23L1 23L1 24L3 24L3 25L4 25L4 26L5 26L5 25L6 25L6 26L8 26L8 28L9 28L9 29L8 29L8 30L9 30L9 32L10 32L10 27L12 27L12 28L13 28L13 27L12 27L12 26L14 26L14 28L16 28L16 29L15 29L15 31L14 31L14 29L11 29L11 30L13 30L13 32L12 32L12 31L11 31L11 32L12 32L12 33L11 33L11 35L9 35L9 36L11 36L11 38L12 38L12 40L9 40L9 41L10 41L10 43L11 43L11 44L10 44L10 47L14 47L14 46L15 46L15 45L18 45L18 43L19 43L19 44L20 44L20 45L19 45L19 46L17 46L17 47L18 47L18 48L19 48L19 49L22 49L22 51L20 51L20 50L19 50L19 53L20 53L20 52L21 52L21 54L19 54L19 56L18 56L18 57L17 57L17 54L16 54L16 55L13 55L13 56L12 56L12 55L11 55L11 54L8 54L8 53L6 53L6 52L10 52L10 53L12 53L12 54L13 54L13 53L12 53L12 52L13 52L13 51L15 51L15 52L14 52L14 53L17 53L17 52L18 52L18 49L17 49L17 48L16 48L16 49L17 49L17 50L15 50L15 49L14 49L14 50L13 50L13 49L12 49L12 48L11 48L11 49L8 49L8 51L6 51L6 50L7 50L7 49L6 49L6 48L8 48L8 46L7 46L7 45L5 45L5 49L6 49L6 50L2 50L2 51L1 51L1 52L2 52L2 53L3 53L3 54L1 54L1 55L2 55L2 58L4 58L4 57L3 57L3 54L4 54L4 55L5 55L5 56L7 56L7 55L11 55L11 56L9 56L9 57L5 57L5 59L3 59L3 60L5 60L5 59L6 59L6 60L8 60L8 59L6 59L6 58L11 58L11 59L12 59L12 58L13 58L13 59L15 59L15 60L14 60L14 61L13 61L13 60L11 60L11 61L13 61L13 62L10 62L10 63L13 63L13 62L15 62L15 63L14 63L14 64L13 64L13 65L12 65L12 67L10 67L10 68L11 68L11 69L12 69L12 67L13 67L13 68L14 68L14 69L13 69L13 70L14 70L14 71L13 71L13 72L11 72L11 73L10 73L10 74L9 74L9 73L8 73L8 72L10 72L10 70L8 70L8 71L5 71L5 74L9 74L9 75L6 75L6 76L7 76L7 77L6 77L6 78L5 78L5 79L6 79L6 80L7 80L7 79L8 79L8 77L9 77L9 75L11 75L11 77L10 77L10 78L12 78L12 75L15 75L15 77L16 77L16 78L15 78L15 79L14 79L14 78L13 78L13 81L12 81L12 85L11 85L11 88L9 88L9 93L8 93L8 95L6 95L6 94L7 94L7 93L5 93L5 95L6 95L6 96L7 96L7 97L6 97L6 98L8 98L8 97L9 97L9 99L10 99L10 100L8 100L8 102L9 102L9 103L8 103L8 105L5 105L5 103L6 103L6 104L7 104L7 103L6 103L6 102L7 102L7 101L6 101L6 100L7 100L7 99L5 99L5 102L4 102L4 101L3 101L3 100L1 100L1 101L2 101L2 102L3 102L3 103L4 103L4 105L5 105L5 106L3 106L3 107L2 107L2 108L1 108L1 109L3 109L3 110L4 110L4 112L3 112L3 111L2 111L2 112L3 112L3 113L4 113L4 114L5 114L5 113L6 113L6 114L7 114L7 113L6 113L6 112L8 112L8 113L9 113L9 114L10 114L10 112L8 112L8 111L9 111L9 108L8 108L8 106L11 106L11 107L10 107L10 109L11 109L11 110L10 110L10 111L11 111L11 110L12 110L12 107L13 107L13 106L14 106L14 104L15 104L15 105L17 105L17 106L15 106L15 107L16 107L16 108L15 108L15 110L16 110L16 108L19 108L19 107L20 107L20 106L21 106L21 108L20 108L20 110L19 110L19 109L18 109L18 111L17 111L17 112L18 112L18 111L19 111L19 113L18 113L18 115L17 115L17 114L16 114L16 115L14 115L14 116L16 116L16 117L14 117L14 118L12 118L12 117L11 117L11 120L14 120L14 119L15 119L15 118L19 118L19 116L20 116L20 117L21 117L21 118L22 118L22 119L20 119L20 120L22 120L22 121L24 121L24 122L25 122L25 119L26 119L26 117L27 117L27 116L28 116L28 117L29 117L29 118L28 118L28 119L29 119L29 118L30 118L30 119L32 119L32 116L33 116L33 115L34 115L34 114L35 114L35 112L34 112L34 111L36 111L36 112L37 112L37 111L38 111L38 112L39 112L39 113L38 113L38 115L37 115L37 113L36 113L36 115L35 115L35 116L38 116L38 115L39 115L39 116L40 116L40 119L42 119L42 120L41 120L41 122L40 122L40 120L39 120L39 122L38 122L38 121L36 121L36 122L38 122L38 123L39 123L39 124L40 124L40 123L43 123L43 122L42 122L42 120L43 120L43 119L44 119L44 120L45 120L45 119L46 119L46 118L47 118L47 117L48 117L48 118L50 118L50 119L51 119L51 120L52 120L52 119L55 119L55 118L56 118L56 120L55 120L55 121L56 121L56 122L57 122L57 119L58 119L58 120L60 120L60 119L58 119L58 118L59 118L59 115L60 115L60 114L61 114L61 113L59 113L59 111L58 111L58 109L57 109L57 108L60 108L60 109L59 109L59 110L60 110L60 112L62 112L62 113L63 113L63 111L64 111L64 109L65 109L65 110L66 110L66 111L65 111L65 114L66 114L66 115L67 115L67 113L66 113L66 111L68 111L68 113L70 113L70 114L71 114L71 116L70 116L70 115L69 115L69 114L68 114L68 116L69 116L69 118L72 118L72 117L71 117L71 116L73 116L73 115L72 115L72 114L73 114L73 113L72 113L72 112L73 112L73 111L75 111L75 112L76 112L76 113L74 113L74 115L75 115L75 114L76 114L76 115L77 115L77 116L75 116L75 117L74 117L74 118L73 118L73 119L70 119L70 120L69 120L69 119L68 119L68 117L67 117L67 116L66 116L66 117L67 117L67 118L65 118L65 119L67 119L67 120L68 120L68 121L70 121L70 122L71 122L71 123L72 123L72 122L73 122L73 121L74 121L74 122L76 122L76 123L80 123L80 124L81 124L81 123L82 123L82 122L83 122L83 123L84 123L84 121L87 121L87 120L86 120L86 119L87 119L87 118L88 118L88 117L86 117L86 119L84 119L84 121L81 121L81 119L80 119L80 120L79 120L79 121L78 121L78 119L79 119L79 118L78 118L78 119L77 119L77 120L76 120L76 121L75 121L75 120L74 120L74 119L76 119L76 118L75 118L75 117L78 117L78 115L79 115L79 116L80 116L80 118L84 118L84 117L81 117L81 115L82 115L82 116L86 116L86 115L87 115L87 116L88 116L88 115L87 115L87 114L88 114L88 112L89 112L89 113L91 113L91 114L92 114L92 115L91 115L91 116L92 116L92 115L93 115L93 119L94 119L94 120L93 120L93 121L91 121L91 122L90 122L90 121L89 121L89 122L90 122L90 123L91 123L91 122L93 122L93 121L94 121L94 122L95 122L95 121L96 121L96 122L97 122L97 121L98 121L98 119L99 119L99 120L100 120L100 119L101 119L101 117L98 117L98 119L96 119L96 120L95 120L95 119L94 119L94 117L96 117L96 118L97 118L97 117L96 117L96 116L98 116L98 115L99 115L99 114L98 114L98 113L97 113L97 111L94 111L94 110L93 110L93 108L89 108L89 110L90 110L90 109L92 109L92 111L91 111L91 112L89 112L89 111L88 111L88 112L86 112L86 111L87 111L87 110L88 110L88 109L86 109L86 111L84 111L84 110L85 110L85 107L87 107L87 108L88 108L88 107L90 107L90 105L92 105L92 107L94 107L94 108L95 108L95 110L96 110L96 109L97 109L97 110L98 110L98 111L99 111L99 113L100 113L100 111L101 111L101 108L102 108L102 107L103 107L103 105L104 105L104 104L105 104L105 107L104 107L104 108L103 108L103 109L105 109L105 111L104 111L104 113L102 113L102 112L101 112L101 114L100 114L100 115L103 115L103 114L105 114L105 115L104 115L104 116L103 116L103 118L102 118L102 119L104 119L104 116L105 116L105 115L106 115L106 116L107 116L107 117L108 117L108 118L110 118L110 119L111 119L111 117L112 117L112 115L113 115L113 113L115 113L115 111L116 111L116 113L117 113L117 115L118 115L118 116L119 116L119 115L120 115L120 116L121 116L121 115L120 115L120 114L119 114L119 115L118 115L118 112L119 112L119 113L121 113L121 112L119 112L119 111L118 111L118 108L117 108L117 110L116 110L116 109L115 109L115 108L112 108L112 107L115 107L115 106L116 106L116 107L118 107L118 106L119 106L119 105L118 105L118 104L116 104L116 102L119 102L119 101L123 101L123 99L124 99L124 98L123 98L123 95L124 95L124 93L123 93L123 95L122 95L122 97L121 97L121 94L120 94L120 95L118 95L118 94L119 94L119 93L118 93L118 94L116 94L116 93L114 93L114 94L112 94L112 95L111 95L111 94L109 94L109 95L108 95L108 96L107 96L107 95L106 95L106 94L105 94L105 93L104 93L104 92L105 92L105 91L104 91L104 92L102 92L102 93L104 93L104 94L101 94L101 93L100 93L100 92L98 92L98 91L103 91L103 90L105 90L105 87L106 87L106 88L107 88L107 89L106 89L106 90L107 90L107 89L110 89L110 87L115 87L115 86L116 86L116 85L117 85L117 84L121 84L121 83L120 83L120 82L119 82L119 80L121 80L121 78L119 78L119 77L118 77L118 76L120 76L120 74L121 74L121 75L122 75L122 76L121 76L121 77L122 77L122 76L124 76L124 74L123 74L123 75L122 75L122 74L121 74L121 73L119 73L119 71L120 71L120 68L119 68L119 65L118 65L118 67L117 67L117 66L116 66L116 64L115 64L115 62L116 62L116 61L115 61L115 60L118 60L118 59L119 59L119 60L121 60L121 61L122 61L122 62L121 62L121 63L122 63L122 64L121 64L121 65L122 65L122 64L123 64L123 63L124 63L124 61L123 61L123 58L121 58L121 59L119 59L119 58L120 58L120 57L121 57L121 55L120 55L120 54L119 54L119 55L118 55L118 56L116 56L116 55L115 55L115 54L117 54L117 53L120 53L120 52L121 52L121 51L120 51L120 52L119 52L119 51L118 51L118 52L116 52L116 51L115 51L115 50L113 50L113 48L112 48L112 51L111 51L111 48L110 48L110 47L111 47L111 46L109 46L109 47L107 47L107 50L108 50L108 49L109 49L109 48L110 48L110 50L109 50L109 51L106 51L106 49L105 49L105 48L106 48L106 46L108 46L108 45L113 45L113 46L112 46L112 47L115 47L115 49L116 49L116 50L117 50L117 49L116 49L116 47L115 47L115 46L116 46L116 45L115 45L115 44L114 44L114 45L113 45L113 44L110 44L110 43L111 43L111 42L112 42L112 43L115 43L115 40L113 40L113 42L112 42L112 40L110 40L110 39L115 39L115 38L113 38L113 36L112 36L112 35L115 35L115 37L116 37L116 35L115 35L115 34L114 34L114 33L116 33L116 32L114 32L114 33L113 33L113 32L112 32L112 30L113 30L113 31L115 31L115 30L116 30L116 27L117 27L117 29L118 29L118 27L119 27L119 26L116 26L116 23L115 23L115 22L113 22L113 20L112 20L112 23L111 23L111 24L110 24L110 23L106 23L106 22L107 22L107 20L106 20L106 18L105 18L105 16L106 16L106 14L107 14L107 13L108 13L108 12L109 12L109 13L110 13L110 12L109 12L109 11L111 11L111 14L110 14L110 16L109 16L109 15L108 15L108 16L109 16L109 17L115 17L115 16L114 16L114 15L117 15L117 14L118 14L118 15L119 15L119 16L120 16L120 15L121 15L121 13L120 13L120 12L119 12L119 13L118 13L118 11L117 11L117 9L116 9L116 8L115 8L115 9L116 9L116 10L111 10L111 9L110 9L110 10L109 10L109 9L108 9L108 10L109 10L109 11L107 11L107 12L106 12L106 10L105 10L105 11L104 11L104 12L103 12L103 13L104 13L104 12L106 12L106 13L105 13L105 15L104 15L104 16L102 16L102 15L103 15L103 14L100 14L100 13L102 13L102 12L100 12L100 11L103 11L103 10L104 10L104 8L105 8L105 7L106 7L106 6L105 6L105 5L106 5L106 4L105 4L105 1ZM13 2L13 3L12 3L12 4L13 4L13 3L14 3L14 2ZM26 2L26 3L25 3L25 4L26 4L26 5L27 5L27 2ZM29 3L29 5L30 5L30 4L31 4L31 3ZM52 3L52 4L51 4L51 8L52 8L52 4L53 4L53 3ZM55 3L55 5L56 5L56 6L55 6L55 7L54 7L54 6L53 6L53 9L55 9L55 10L54 10L54 11L55 11L55 10L56 10L56 8L57 8L57 9L59 9L59 10L60 10L60 9L59 9L59 8L58 8L58 6L59 6L59 7L60 7L60 6L59 6L59 4L58 4L58 5L57 5L57 4L56 4L56 3ZM64 3L64 4L67 4L67 3ZM69 3L69 4L70 4L70 3ZM88 3L88 4L87 4L87 7L88 7L88 4L90 4L90 3ZM113 4L113 7L114 7L114 4ZM31 5L31 7L32 7L32 5ZM33 5L33 8L36 8L36 5ZM38 5L38 8L39 8L39 5ZM61 5L61 8L64 8L64 5ZM65 5L65 7L66 7L66 5ZM75 5L75 7L76 7L76 5ZM89 5L89 8L92 8L92 5ZM95 5L95 6L94 6L94 7L95 7L95 6L96 6L96 7L97 7L97 6L96 6L96 5ZM101 5L101 7L102 7L102 5ZM111 5L111 8L112 8L112 5ZM9 6L9 7L10 7L10 6ZM34 6L34 7L35 7L35 6ZM44 6L44 7L45 7L45 6ZM56 6L56 7L57 7L57 6ZM62 6L62 7L63 7L63 6ZM67 6L67 7L68 7L68 6ZM70 6L70 7L71 7L71 6ZM72 6L72 7L73 7L73 6ZM77 6L77 7L78 7L78 6ZM84 6L84 7L85 7L85 6ZM90 6L90 7L91 7L91 6ZM104 6L104 7L105 7L105 6ZM115 6L115 7L116 7L116 6ZM15 8L15 9L16 9L16 8ZM29 8L29 9L30 9L30 8ZM121 8L121 10L123 10L123 9L124 9L124 11L123 11L123 12L124 12L124 11L125 11L125 8ZM4 9L4 10L5 10L5 9ZM6 9L6 10L7 10L7 9ZM12 9L12 10L13 10L13 9ZM72 9L72 10L73 10L73 9ZM50 10L50 11L52 11L52 10ZM57 10L57 11L58 11L58 12L59 12L59 13L61 13L61 12L60 12L60 11L58 11L58 10ZM67 10L67 11L68 11L68 10ZM24 11L24 12L25 12L25 13L27 13L27 15L26 15L26 14L24 14L24 15L23 15L23 13L22 13L22 17L23 17L23 19L24 19L24 20L25 20L25 19L26 19L26 20L27 20L27 19L26 19L26 18L28 18L28 21L27 21L27 22L32 22L32 24L31 24L31 23L28 23L28 24L29 24L29 25L28 25L28 26L29 26L29 25L30 25L30 26L31 26L31 27L32 27L32 28L33 28L33 27L32 27L32 26L33 26L33 25L34 25L34 27L35 27L35 28L36 28L36 29L34 29L34 30L33 30L33 29L32 29L32 31L30 31L30 30L29 30L29 29L28 29L28 30L27 30L27 31L26 31L26 30L25 30L25 29L24 29L24 30L22 30L22 31L21 31L21 32L20 32L20 34L19 34L19 33L18 33L18 34L17 34L17 35L18 35L18 34L19 34L19 38L18 38L18 36L15 36L15 38L16 38L16 37L17 37L17 41L16 41L16 40L15 40L15 39L14 39L14 38L13 38L13 37L12 37L12 38L13 38L13 39L14 39L14 41L13 41L13 40L12 40L12 41L11 41L11 42L14 42L14 43L15 43L15 41L16 41L16 42L17 42L17 43L18 43L18 42L17 42L17 41L18 41L18 39L20 39L20 40L19 40L19 42L20 42L20 44L21 44L21 42L22 42L22 45L21 45L21 46L23 46L23 45L24 45L24 44L25 44L25 43L26 43L26 44L29 44L29 45L27 45L27 47L29 47L29 48L28 48L28 49L27 49L27 50L26 50L26 49L25 49L25 48L26 48L26 46L25 46L25 47L23 47L23 49L25 49L25 50L23 50L23 51L27 51L27 50L28 50L28 54L27 54L27 55L22 55L22 54L21 54L21 56L22 56L22 57L18 57L18 60L17 60L17 62L16 62L16 64L17 64L17 65L18 65L18 66L19 66L19 67L20 67L20 66L21 66L21 69L22 69L22 68L23 68L23 67L24 67L24 69L23 69L23 70L22 70L22 72L21 72L21 73L19 73L19 71L18 71L18 70L20 70L20 68L19 68L19 69L18 69L18 67L17 67L17 68L16 68L16 71L18 71L18 73L19 73L19 74L18 74L18 75L17 75L17 73L16 73L16 74L15 74L15 73L14 73L14 72L13 72L13 73L12 73L12 74L11 74L11 75L12 75L12 74L13 74L13 73L14 73L14 74L15 74L15 75L16 75L16 76L18 76L18 77L17 77L17 78L16 78L16 79L17 79L17 82L13 82L13 83L14 83L14 84L15 84L15 83L17 83L17 84L19 84L19 86L20 86L20 85L22 85L22 84L23 84L23 87L24 87L24 89L23 89L23 88L22 88L22 86L21 86L21 89L23 89L23 90L24 90L24 89L25 89L25 90L27 90L27 92L25 92L25 91L24 91L24 92L23 92L23 91L22 91L22 90L20 90L20 93L21 93L21 91L22 91L22 93L24 93L24 94L25 94L25 95L26 95L26 96L24 96L24 97L23 97L23 94L22 94L22 95L21 95L21 98L20 98L20 97L19 97L19 96L20 96L20 94L19 94L19 92L17 92L17 93L16 93L16 92L15 92L15 94L14 94L14 93L13 93L13 94L14 94L14 95L13 95L13 96L14 96L14 97L12 97L12 95L11 95L11 94L10 94L10 95L11 95L11 96L9 96L9 95L8 95L8 96L9 96L9 97L11 97L11 98L10 98L10 99L11 99L11 100L10 100L10 101L9 101L9 102L10 102L10 105L11 105L11 106L13 106L13 104L12 104L12 103L14 103L14 102L12 102L12 100L13 100L13 101L15 101L15 102L16 102L16 101L15 101L15 100L17 100L17 99L14 99L14 97L15 97L15 95L16 95L16 94L17 94L17 95L19 95L19 96L18 96L18 97L19 97L19 101L17 101L17 102L20 102L20 103L21 103L21 102L22 102L22 103L24 103L24 104L23 104L23 105L22 105L22 104L19 104L19 103L18 103L18 104L17 104L17 105L18 105L18 104L19 104L19 106L18 106L18 107L19 107L19 106L20 106L20 105L22 105L22 109L21 109L21 110L20 110L20 111L21 111L21 112L20 112L20 113L19 113L19 114L20 114L20 113L21 113L21 114L22 114L22 115L20 115L20 116L21 116L21 117L22 117L22 118L23 118L23 119L25 119L25 116L26 116L26 115L28 115L28 116L30 116L30 117L31 117L31 115L32 115L32 114L34 114L34 112L33 112L33 113L31 113L31 111L28 111L28 110L29 110L29 109L30 109L30 110L32 110L32 109L30 109L30 107L31 107L31 108L33 108L33 110L34 110L34 109L35 109L35 108L33 108L33 107L34 107L34 106L33 106L33 105L34 105L34 104L33 104L33 105L31 105L31 106L30 106L30 107L28 107L28 106L29 106L29 105L30 105L30 104L31 104L31 103L32 103L32 102L33 102L33 103L34 103L34 102L33 102L33 101L34 101L34 100L35 100L35 98L34 98L34 100L33 100L33 101L31 101L31 100L32 100L32 99L33 99L33 97L34 97L34 96L36 96L36 97L42 97L42 98L43 98L43 97L42 97L42 96L44 96L44 95L45 95L45 97L46 97L46 95L49 95L49 94L52 94L52 92L53 92L53 93L54 93L54 92L55 92L55 93L56 93L56 94L54 94L54 95L52 95L52 97L53 97L53 98L58 98L58 99L52 99L52 98L51 98L51 95L50 95L50 97L49 97L49 96L47 96L47 98L44 98L44 99L43 99L43 100L44 100L44 102L43 102L43 101L41 101L41 99L40 99L40 100L39 100L39 99L38 99L38 98L37 98L37 99L38 99L38 100L39 100L39 103L38 103L38 106L37 106L37 107L36 107L36 106L35 106L35 107L36 107L36 109L38 109L38 110L40 110L40 109L41 109L41 108L42 108L42 109L43 109L43 110L44 110L44 111L39 111L39 112L40 112L40 113L41 113L41 112L43 112L43 113L44 113L44 111L45 111L45 113L46 113L46 114L45 114L45 115L48 115L48 116L50 116L50 118L51 118L51 119L52 119L52 118L53 118L53 117L54 117L54 118L55 118L55 116L56 116L56 118L58 118L58 117L57 117L57 116L58 116L58 115L59 115L59 113L57 113L57 114L58 114L58 115L57 115L57 116L56 116L56 114L55 114L55 115L54 115L54 116L53 116L53 115L52 115L52 114L51 114L51 115L48 115L48 114L50 114L50 113L52 113L52 112L53 112L53 111L50 111L50 110L51 110L51 109L52 109L52 108L53 108L53 109L54 109L54 108L55 108L55 110L56 110L56 111L54 111L54 113L56 113L56 111L57 111L57 109L56 109L56 108L55 108L55 107L57 107L57 106L55 106L55 105L54 105L54 104L56 104L56 103L58 103L58 104L57 104L57 105L58 105L58 104L59 104L59 105L60 105L60 106L58 106L58 107L60 107L60 106L61 106L61 105L62 105L62 107L63 107L63 109L62 109L62 108L61 108L61 109L60 109L60 110L61 110L61 111L62 111L62 110L63 110L63 109L64 109L64 108L66 108L66 110L67 110L67 109L68 109L68 108L66 108L66 107L67 107L67 106L66 106L66 107L65 107L65 106L64 106L64 104L65 104L65 105L66 105L66 104L67 104L67 105L69 105L69 106L68 106L68 107L69 107L69 109L70 109L70 107L73 107L73 109L72 109L72 110L70 110L70 111L69 111L69 110L68 110L68 111L69 111L69 112L70 112L70 111L71 111L71 112L72 112L72 111L73 111L73 110L74 110L74 109L75 109L75 108L76 108L76 109L78 109L78 110L80 110L80 109L81 109L81 110L82 110L82 111L83 111L83 110L84 110L84 109L83 109L83 110L82 110L82 107L85 107L85 106L86 106L86 105L88 105L88 106L89 106L89 104L90 104L90 103L91 103L91 104L92 104L92 105L93 105L93 106L94 106L94 107L97 107L97 106L96 106L96 105L97 105L97 104L96 104L96 103L98 103L98 106L99 106L99 104L100 104L100 105L101 105L101 104L102 104L102 105L103 105L103 104L104 104L104 103L105 103L105 104L106 104L106 107L105 107L105 109L106 109L106 108L107 108L107 107L109 107L109 106L112 106L112 104L114 104L114 105L113 105L113 106L115 106L115 105L116 105L116 106L118 106L118 105L116 105L116 104L115 104L115 103L112 103L112 104L111 104L111 103L110 103L110 102L109 102L109 101L108 101L108 100L107 100L107 101L108 101L108 102L106 102L106 99L110 99L110 100L111 100L111 99L110 99L110 97L111 97L111 98L114 98L114 97L115 97L115 98L116 98L116 99L112 99L112 101L111 101L111 102L113 102L113 100L115 100L115 102L116 102L116 101L119 101L119 100L120 100L120 99L121 99L121 100L122 100L122 99L123 99L123 98L121 98L121 97L120 97L120 96L118 96L118 95L112 95L112 96L111 96L111 95L110 95L110 96L108 96L108 97L106 97L106 96L105 96L105 97L104 97L104 95L105 95L105 94L104 94L104 95L100 95L100 94L99 94L99 93L96 93L96 92L94 92L94 91L95 91L95 90L96 90L96 89L97 89L97 91L98 91L98 90L99 90L99 89L100 89L100 90L103 90L103 89L104 89L104 87L105 87L105 86L104 86L104 87L102 87L102 88L101 88L101 87L100 87L100 86L103 86L103 84L104 84L104 83L105 83L105 84L106 84L106 83L110 83L110 84L107 84L107 85L106 85L106 87L108 87L108 86L110 86L110 85L111 85L111 86L112 86L112 85L111 85L111 83L112 83L112 84L113 84L113 86L115 86L115 84L117 84L117 83L118 83L118 80L117 80L117 77L116 77L116 79L114 79L114 78L115 78L115 77L114 77L114 76L116 76L116 75L117 75L117 76L118 76L118 75L117 75L117 74L118 74L118 69L119 69L119 68L118 68L118 69L116 69L116 67L114 67L114 68L113 68L113 67L112 67L112 66L113 66L113 65L114 65L114 66L115 66L115 64L113 64L113 63L112 63L112 61L111 61L111 63L110 63L110 62L109 62L109 60L111 60L111 59L112 59L112 60L115 60L115 59L116 59L116 58L117 58L117 59L118 59L118 58L119 58L119 57L120 57L120 56L119 56L119 57L116 57L116 56L115 56L115 55L114 55L114 54L112 54L112 52L113 52L113 51L112 51L112 52L111 52L111 51L110 51L110 52L106 52L106 51L105 51L105 50L104 50L104 51L105 51L105 52L103 52L103 51L102 51L102 53L106 53L106 55L110 55L110 57L109 57L109 56L108 56L108 57L109 57L109 58L107 58L107 57L104 57L104 59L102 59L102 58L103 58L103 56L104 56L104 55L105 55L105 54L104 54L104 55L102 55L102 54L101 54L101 55L100 55L100 52L101 52L101 51L100 51L100 50L103 50L103 49L104 49L104 47L105 47L105 45L107 45L107 44L108 44L108 43L110 43L110 42L111 42L111 41L110 41L110 40L109 40L109 41L107 41L107 42L106 42L106 41L105 41L105 40L104 40L104 39L105 39L105 37L106 37L106 35L107 35L107 34L105 34L105 33L107 33L107 32L106 32L106 31L109 31L109 32L110 32L110 29L112 29L112 28L113 28L113 29L114 29L114 30L115 30L115 29L114 29L114 28L115 28L115 27L116 27L116 26L115 26L115 23L112 23L112 24L111 24L111 25L112 25L112 26L111 26L111 27L110 27L110 26L109 26L109 24L104 24L104 23L105 23L105 22L106 22L106 20L105 20L105 21L103 21L103 19L102 19L102 21L101 21L101 19L98 19L98 18L99 18L99 17L98 17L98 16L100 16L100 17L101 17L101 15L98 15L98 14L99 14L99 13L100 13L100 12L99 12L99 11L97 11L97 12L95 12L95 13L97 13L97 14L94 14L94 15L93 15L93 17L94 17L94 15L95 15L95 18L94 18L94 19L93 19L93 20L92 20L92 19L90 19L90 20L92 20L92 22L91 22L91 23L90 23L90 22L89 22L89 24L88 24L88 21L89 21L89 18L88 18L88 19L87 19L87 20L88 20L88 21L87 21L87 23L86 23L86 24L88 24L88 25L85 25L85 26L84 26L84 27L86 27L86 28L87 28L87 27L86 27L86 26L88 26L88 29L90 29L90 28L89 28L89 26L90 26L90 25L92 25L92 27L91 27L91 28L92 28L92 29L91 29L91 31L90 31L90 30L89 30L89 31L88 31L88 30L87 30L87 31L86 31L86 30L84 30L84 29L81 29L81 28L80 28L80 27L81 27L81 25L82 25L82 27L83 27L83 24L82 24L82 23L85 23L85 22L84 22L84 21L83 21L83 22L82 22L82 23L81 23L81 24L80 24L80 23L79 23L79 25L80 25L80 27L76 27L76 26L74 26L74 25L72 25L72 27L71 27L71 28L70 28L70 27L69 27L69 28L68 28L68 31L69 31L69 32L68 32L68 34L67 34L67 35L69 35L69 36L68 36L68 37L67 37L67 39L66 39L66 40L67 40L67 39L68 39L68 38L69 38L69 37L70 37L70 35L74 35L74 36L73 36L73 37L72 37L72 39L71 39L71 38L70 38L70 39L69 39L69 40L68 40L68 41L66 41L66 42L68 42L68 43L65 43L65 42L63 42L63 41L64 41L64 39L63 39L63 41L62 41L62 40L61 40L61 39L60 39L60 40L61 40L61 41L58 41L58 43L57 43L57 42L56 42L56 41L57 41L57 40L56 40L56 39L57 39L57 37L56 37L56 39L52 39L52 38L55 38L55 36L53 36L53 35L52 35L52 36L51 36L51 35L50 35L50 36L51 36L51 38L50 38L50 37L49 37L49 36L48 36L48 35L49 35L49 34L56 34L56 35L57 35L57 34L58 34L58 35L59 35L59 34L58 34L58 33L59 33L59 32L58 32L58 31L60 31L60 30L61 30L61 29L60 29L60 30L58 30L58 28L57 28L57 29L56 29L56 27L59 27L59 26L57 26L57 25L55 25L55 24L56 24L56 23L57 23L57 24L58 24L58 23L57 23L57 21L55 21L55 20L56 20L56 19L57 19L57 20L58 20L58 19L57 19L57 18L55 18L55 19L54 19L54 18L53 18L53 19L52 19L52 21L53 21L53 22L54 22L54 21L55 21L55 22L56 22L56 23L52 23L52 22L51 22L51 23L50 23L50 26L52 26L52 25L51 25L51 23L52 23L52 24L54 24L54 25L53 25L53 26L56 26L56 27L54 27L54 30L56 30L56 31L57 31L57 32L55 32L55 31L52 31L52 32L51 32L51 31L50 31L50 30L49 30L49 29L51 29L51 28L52 28L52 29L53 29L53 27L50 27L50 28L49 28L49 29L48 29L48 30L49 30L49 32L47 32L47 30L46 30L46 29L45 29L45 28L46 28L46 27L47 27L47 28L48 28L48 27L49 27L49 26L48 26L48 27L47 27L47 26L46 26L46 25L49 25L49 24L46 24L46 23L45 23L45 20L44 20L44 19L45 19L45 18L44 18L44 19L42 19L42 18L43 18L43 16L44 16L44 17L45 17L45 16L46 16L46 15L47 15L47 14L45 14L45 13L44 13L44 12L43 12L43 13L42 13L42 14L41 14L41 15L39 15L39 16L38 16L38 15L37 15L37 14L36 14L36 13L35 13L35 12L34 12L34 15L30 15L30 16L29 16L29 15L28 15L28 13L27 13L27 11L26 11L26 12L25 12L25 11ZM28 11L28 12L29 12L29 13L30 13L30 11ZM38 11L38 12L37 12L37 13L38 13L38 14L39 14L39 11ZM80 11L80 12L81 12L81 11ZM112 11L112 12L114 12L114 13L117 13L117 11L116 11L116 12L115 12L115 11ZM71 12L71 13L72 13L72 14L73 14L73 12ZM78 12L78 13L79 13L79 12ZM97 12L97 13L99 13L99 12ZM2 13L2 16L1 16L1 17L2 17L2 16L3 16L3 13ZM87 13L87 14L88 14L88 13ZM112 13L112 14L111 14L111 16L113 16L113 15L114 15L114 14L113 14L113 13ZM42 14L42 15L44 15L44 16L45 16L45 15L44 15L44 14ZM69 14L69 15L68 15L68 16L69 16L69 15L70 15L70 14ZM112 14L112 15L113 15L113 14ZM119 14L119 15L120 15L120 14ZM8 15L8 16L6 16L6 17L9 17L9 20L11 20L11 18L10 18L10 17L9 17L9 15ZM25 15L25 17L27 17L27 16L28 16L28 15L27 15L27 16L26 16L26 15ZM34 15L34 16L35 16L35 17L33 17L33 16L32 16L32 17L31 17L31 16L30 16L30 18L29 18L29 17L28 17L28 18L29 18L29 21L30 21L30 19L31 19L31 18L32 18L32 19L33 19L33 18L35 18L35 17L36 17L36 18L37 18L37 19L34 19L34 20L31 20L31 21L34 21L34 22L33 22L33 23L34 23L34 24L35 24L35 23L36 23L36 24L38 24L38 25L39 25L39 26L38 26L38 27L36 27L36 28L37 28L37 29L36 29L36 30L37 30L37 31L32 31L32 32L38 32L38 31L39 31L39 30L40 30L40 31L44 31L44 33L43 33L43 34L42 34L42 35L43 35L43 36L41 36L41 35L39 35L39 34L38 34L38 33L37 33L37 35L39 35L39 37L35 37L35 38L34 38L34 39L33 39L33 38L32 38L32 35L31 35L31 34L32 34L32 33L31 33L31 34L30 34L30 35L31 35L31 36L30 36L30 37L28 37L28 35L29 35L29 32L30 32L30 31L29 31L29 30L28 30L28 31L27 31L27 32L28 32L28 35L27 35L27 34L26 34L26 32L25 32L25 31L24 31L24 32L23 32L23 31L22 31L22 32L23 32L23 33L24 33L24 34L26 34L26 36L27 36L27 37L25 37L25 38L23 38L23 39L22 39L22 36L25 36L25 35L22 35L22 33L21 33L21 34L20 34L20 35L22 35L22 36L21 36L21 37L20 37L20 38L21 38L21 40L20 40L20 42L21 42L21 40L22 40L22 42L23 42L23 43L25 43L25 41L24 41L24 40L23 40L23 39L25 39L25 40L26 40L26 39L27 39L27 38L28 38L28 39L29 39L29 38L30 38L30 39L33 39L33 41L34 41L34 42L35 42L35 43L37 43L37 42L38 42L38 43L39 43L39 44L38 44L38 47L37 47L37 48L38 48L38 47L39 47L39 49L36 49L36 45L34 45L34 43L31 43L31 42L32 42L32 41L29 41L29 42L28 42L28 43L31 43L31 44L30 44L30 46L29 46L29 47L32 47L32 46L31 46L31 44L32 44L32 45L33 45L33 50L32 50L32 52L33 52L33 53L32 53L32 55L33 55L33 57L32 57L32 58L30 58L30 59L29 59L29 57L30 57L30 55L31 55L31 54L30 54L30 53L29 53L29 54L28 54L28 55L27 55L27 57L28 57L28 59L27 59L27 58L26 58L26 57L25 57L25 56L23 56L23 57L22 57L22 59L21 59L21 58L20 58L20 59L21 59L21 61L20 61L20 60L19 60L19 61L18 61L18 62L17 62L17 63L18 63L18 62L19 62L19 63L20 63L20 64L18 64L18 65L19 65L19 66L20 66L20 64L21 64L21 65L22 65L22 66L24 66L24 67L26 67L26 68L25 68L25 69L26 69L26 70L25 70L25 71L24 71L24 72L25 72L25 74L26 74L26 72L25 72L25 71L27 71L27 75L26 75L26 78L27 78L27 80L26 80L26 79L25 79L25 78L24 78L24 77L22 77L22 76L24 76L24 75L23 75L23 74L21 74L21 77L20 77L20 76L19 76L19 77L20 77L20 78L21 78L21 79L22 79L22 81L23 81L23 83L24 83L24 84L25 84L25 85L24 85L24 86L25 86L25 87L26 87L26 86L25 86L25 85L26 85L26 84L27 84L27 85L29 85L29 86L28 86L28 87L27 87L27 88L26 88L26 89L27 89L27 90L28 90L28 91L29 91L29 92L27 92L27 93L29 93L29 96L28 96L28 97L25 97L25 98L26 98L26 99L24 99L24 98L23 98L23 100L22 100L22 98L21 98L21 100L20 100L20 101L22 101L22 102L24 102L24 100L27 100L27 99L31 99L31 98L32 98L32 97L33 97L33 94L34 94L34 95L35 95L35 93L33 93L33 94L32 94L32 95L31 95L31 92L30 92L30 91L31 91L31 90L32 90L32 87L33 87L33 86L34 86L34 88L35 88L35 86L34 86L34 85L37 85L37 86L38 86L38 87L39 87L39 86L40 86L40 87L41 87L41 89L40 89L40 88L39 88L39 89L37 89L37 90L38 90L38 91L39 91L39 92L37 92L37 93L36 93L36 95L37 95L37 93L38 93L38 95L39 95L39 96L40 96L40 95L41 95L41 96L42 96L42 95L44 95L44 92L45 92L45 91L46 91L46 92L47 92L47 93L48 93L48 92L49 92L49 93L51 93L51 92L52 92L52 91L53 91L53 92L54 92L54 91L55 91L55 88L52 88L52 87L56 87L56 88L57 88L57 89L56 89L56 90L57 90L57 91L56 91L56 92L57 92L57 91L58 91L58 94L59 94L59 95L58 95L58 96L57 96L57 94L56 94L56 96L55 96L55 95L54 95L54 97L59 97L59 98L60 98L60 99L62 99L62 97L65 97L65 102L66 102L66 103L65 103L65 104L66 104L66 103L67 103L67 104L70 104L70 106L69 106L69 107L70 107L70 106L71 106L71 105L72 105L72 106L73 106L73 107L75 107L75 105L77 105L77 104L75 104L75 105L74 105L74 106L73 106L73 104L74 104L74 103L75 103L75 102L74 102L74 101L72 101L72 102L71 102L71 103L70 103L70 102L69 102L69 103L68 103L68 102L67 102L67 101L68 101L68 100L69 100L69 99L68 99L68 100L66 100L66 99L67 99L67 98L71 98L71 99L70 99L70 100L74 100L74 99L75 99L75 101L77 101L77 100L79 100L79 101L82 101L82 102L81 102L81 103L80 103L80 102L76 102L76 103L79 103L79 104L78 104L78 106L76 106L76 107L79 107L79 106L82 106L82 105L85 105L85 104L86 104L86 103L87 103L87 104L88 104L88 103L89 103L89 100L88 100L88 99L87 99L87 98L88 98L88 97L85 97L85 96L86 96L86 95L87 95L87 96L89 96L89 97L91 97L91 95L90 95L90 96L89 96L89 94L90 94L90 93L89 93L89 94L88 94L88 93L86 93L86 95L82 95L82 93L83 93L83 94L84 94L84 93L85 93L85 92L86 92L86 91L87 91L87 92L88 92L88 91L87 91L87 89L88 89L88 88L89 88L89 87L88 87L88 86L90 86L90 87L92 87L92 88L93 88L93 89L95 89L95 87L94 87L94 86L95 86L95 85L96 85L96 84L98 84L98 83L99 83L99 84L100 84L100 85L101 85L101 84L100 84L100 83L104 83L104 82L105 82L105 83L106 83L106 81L107 81L107 80L109 80L109 79L106 79L106 78L105 78L105 77L104 77L104 76L109 76L109 78L110 78L110 79L111 79L111 81L110 81L110 83L111 83L111 82L112 82L112 83L113 83L113 82L114 82L114 83L116 83L116 81L117 81L117 80L114 80L114 81L112 81L112 79L113 79L113 78L114 78L114 77L112 77L112 75L113 75L113 73L112 73L112 71L117 71L117 70L114 70L114 69L115 69L115 68L114 68L114 69L107 69L107 68L110 68L110 67L111 67L111 68L112 68L112 67L111 67L111 65L113 65L113 64L112 64L112 63L111 63L111 64L110 64L110 63L108 63L108 61L107 61L107 63L106 63L106 62L105 62L105 63L104 63L104 61L103 61L103 62L102 62L102 61L100 61L100 59L101 59L101 58L100 58L100 59L99 59L99 57L101 57L101 56L102 56L102 55L101 55L101 56L98 56L98 55L99 55L99 54L98 54L98 51L99 51L99 52L100 52L100 51L99 51L99 50L98 50L98 51L96 51L96 52L95 52L95 51L94 51L94 50L92 50L92 51L90 51L90 53L88 53L88 52L89 52L89 51L87 51L87 49L88 49L88 50L90 50L90 49L92 49L92 47L91 47L91 46L90 46L90 48L89 48L89 47L87 47L87 46L85 46L85 47L84 47L84 45L88 45L88 46L89 46L89 45L92 45L92 46L93 46L93 47L94 47L94 48L95 48L95 50L96 50L96 49L100 49L100 47L104 47L104 46L103 46L103 45L102 45L102 44L101 44L101 46L100 46L100 43L104 43L104 44L105 44L105 43L106 43L106 44L107 44L107 43L108 43L108 42L107 42L107 43L106 43L106 42L105 42L105 43L104 43L104 42L101 42L101 40L102 40L102 41L104 41L104 40L102 40L102 39L104 39L104 37L103 37L103 38L102 38L102 37L100 37L100 35L104 35L104 36L105 36L105 35L104 35L104 34L101 34L101 32L102 32L102 31L103 31L103 32L104 32L104 33L105 33L105 31L103 31L103 29L102 29L102 28L100 28L100 27L101 27L101 25L100 25L100 24L98 24L98 23L99 23L99 22L100 22L100 23L104 23L104 22L103 22L103 21L102 21L102 22L100 22L100 20L98 20L98 19L96 19L96 18L95 18L95 19L94 19L94 21L93 21L93 22L92 22L92 25L95 25L95 27L94 27L94 26L93 26L93 27L92 27L92 28L94 28L94 29L93 29L93 31L92 31L92 32L93 32L93 34L94 34L94 33L95 33L95 35L93 35L93 36L94 36L94 37L90 37L90 38L89 38L89 37L88 37L88 38L86 38L86 39L85 39L85 38L83 38L83 36L85 36L85 35L83 35L83 36L82 36L82 34L84 34L84 33L86 33L86 31L82 31L82 30L81 30L81 31L80 31L80 30L79 30L79 29L80 29L80 28L78 28L78 29L77 29L77 28L76 28L76 27L72 27L72 28L71 28L71 29L70 29L70 28L69 28L69 31L70 31L70 32L71 32L71 33L69 33L69 34L71 34L71 33L72 33L72 34L73 34L73 33L74 33L74 32L72 32L72 31L75 31L75 32L76 32L76 34L74 34L74 35L77 35L77 37L76 37L76 36L75 36L75 37L73 37L73 38L74 38L74 39L72 39L72 40L71 40L71 39L70 39L70 40L71 40L71 41L69 41L69 42L71 42L71 43L70 43L70 44L69 44L69 43L68 43L68 45L67 45L67 44L66 44L66 46L64 46L64 45L65 45L65 43L62 43L62 42L61 42L61 44L60 44L60 43L58 43L58 44L59 44L59 45L61 45L61 44L62 44L62 46L60 46L60 47L61 47L61 48L62 48L62 49L60 49L60 50L59 50L59 47L58 47L58 45L57 45L57 43L56 43L56 45L57 45L57 47L56 47L56 46L54 46L54 47L53 47L53 46L50 46L50 44L49 44L49 43L48 43L48 45L46 45L46 44L47 44L47 43L46 43L46 42L45 42L45 43L44 43L44 41L42 41L42 40L41 40L41 41L40 41L40 40L39 40L39 42L38 42L38 41L35 41L35 38L38 38L38 39L37 39L37 40L38 40L38 39L39 39L39 37L40 37L40 36L41 36L41 38L40 38L40 39L43 39L43 40L47 40L47 39L46 39L46 38L45 38L45 37L48 37L48 38L49 38L49 37L48 37L48 36L46 36L46 33L47 33L47 32L46 32L46 31L44 31L44 30L43 30L43 29L44 29L44 28L45 28L45 27L46 27L46 26L44 26L44 25L45 25L45 23L44 23L44 20L42 20L42 21L41 21L41 20L38 20L38 19L39 19L39 17L38 17L38 18L37 18L37 17L36 17L36 16L37 16L37 15ZM96 15L96 16L98 16L98 15ZM14 16L14 17L12 17L12 21L11 21L11 23L10 23L10 21L9 21L9 23L7 23L7 22L8 22L8 21L7 21L7 20L6 20L6 21L7 21L7 22L4 22L4 23L3 23L3 24L4 24L4 25L5 25L5 23L7 23L7 24L6 24L6 25L8 25L8 26L10 26L10 25L9 25L9 23L10 23L10 24L11 24L11 23L12 23L12 21L13 21L13 19L14 19L14 17L15 17L15 16ZM40 16L40 17L41 17L41 16ZM32 17L32 18L33 18L33 17ZM51 17L51 18L52 18L52 17ZM68 17L68 18L69 18L69 17ZM123 17L123 18L122 18L122 21L123 21L123 19L124 19L124 17ZM4 18L4 19L5 19L5 18ZM6 18L6 19L7 19L7 18ZM24 18L24 19L25 19L25 18ZM40 18L40 19L41 19L41 18ZM65 18L65 19L66 19L66 18ZM104 18L104 19L105 19L105 18ZM4 20L4 21L5 21L5 20ZM34 20L34 21L35 21L35 22L34 22L34 23L35 23L35 22L36 22L36 20ZM37 20L37 22L38 22L38 20ZM53 20L53 21L54 21L54 20ZM63 20L63 21L64 21L64 20ZM71 20L71 21L72 21L72 22L73 22L73 23L74 23L74 24L75 24L75 25L76 25L76 24L77 24L77 26L78 26L78 24L77 24L77 21L72 21L72 20ZM95 20L95 21L96 21L96 22L94 22L94 23L93 23L93 24L94 24L94 23L97 23L97 22L99 22L99 21L96 21L96 20ZM115 20L115 21L116 21L116 20ZM25 21L25 22L26 22L26 21ZM39 21L39 23L38 23L38 24L39 24L39 25L40 25L40 24L41 24L41 27L38 27L38 28L40 28L40 29L42 29L42 28L43 28L43 27L44 27L44 26L43 26L43 27L42 27L42 23L43 23L43 24L44 24L44 23L43 23L43 22L42 22L42 23L40 23L40 22L41 22L41 21ZM74 22L74 23L76 23L76 22ZM117 22L117 25L118 25L118 22ZM39 23L39 24L40 24L40 23ZM16 24L16 25L17 25L17 27L16 27L16 26L15 26L15 27L16 27L16 28L18 28L18 25L17 25L17 24ZM32 24L32 25L31 25L31 26L32 26L32 25L33 25L33 24ZM59 24L59 25L60 25L60 24ZM89 24L89 25L88 25L88 26L89 26L89 25L90 25L90 24ZM95 24L95 25L96 25L96 27L97 27L97 26L99 26L99 27L98 27L98 28L97 28L97 30L96 30L96 29L95 29L95 30L94 30L94 31L93 31L93 32L94 32L94 31L95 31L95 30L96 30L96 31L97 31L97 30L99 30L99 31L98 31L98 32L97 32L97 34L96 34L96 35L97 35L97 36L95 36L95 37L96 37L96 38L97 38L97 39L98 39L98 40L96 40L96 42L95 42L95 41L94 41L94 43L91 43L91 42L92 42L92 41L93 41L93 40L94 40L94 39L95 39L95 38L94 38L94 39L92 39L92 38L90 38L90 39L91 39L91 42L90 42L90 41L89 41L89 38L88 38L88 42L87 42L87 41L86 41L86 40L87 40L87 39L86 39L86 40L82 40L82 39L83 39L83 38L82 38L82 36L81 36L81 37L80 37L80 35L81 35L81 34L80 34L80 35L79 35L79 36L78 36L78 38L77 38L77 39L76 39L76 37L75 37L75 39L74 39L74 40L75 40L75 41L72 41L72 43L71 43L71 44L70 44L70 45L68 45L68 47L69 47L69 48L67 48L67 47L65 47L65 48L66 48L66 49L71 49L71 50L70 50L70 51L69 51L69 50L68 50L68 51L66 51L66 53L67 53L67 54L68 54L68 55L66 55L66 54L65 54L65 55L66 55L66 57L64 57L64 55L63 55L63 57L64 57L64 58L62 58L62 59L66 59L66 58L67 58L67 59L69 59L69 57L70 57L70 59L73 59L73 56L71 56L71 55L74 55L74 57L75 57L75 56L76 56L76 57L78 57L78 56L79 56L79 60L78 60L78 61L74 61L74 60L77 60L77 59L76 59L76 58L75 58L75 59L74 59L74 60L71 60L71 61L68 61L68 60L67 60L67 61L65 61L65 60L60 60L60 63L59 63L59 62L58 62L58 60L57 60L57 62L56 62L56 59L57 59L57 58L58 58L58 59L59 59L59 58L58 58L58 56L59 56L59 55L57 55L57 53L58 53L58 54L60 54L60 53L59 53L59 52L58 52L58 51L59 51L59 50L58 50L58 47L57 47L57 48L55 48L55 49L53 49L53 50L55 50L55 51L50 51L50 50L52 50L52 49L50 49L50 48L51 48L51 47L50 47L50 48L48 48L48 49L47 49L47 50L46 50L46 49L43 49L43 48L44 48L44 47L45 47L45 46L46 46L46 48L47 48L47 46L46 46L46 45L45 45L45 44L44 44L44 43L42 43L42 42L41 42L41 43L40 43L40 44L39 44L39 45L40 45L40 44L41 44L41 45L42 45L42 46L41 46L41 47L40 47L40 46L39 46L39 47L40 47L40 48L42 48L42 49L39 49L39 51L38 51L38 50L37 50L37 52L35 52L35 51L36 51L36 50L35 50L35 51L34 51L34 53L33 53L33 55L34 55L34 57L33 57L33 59L31 59L31 60L29 60L29 59L28 59L28 60L27 60L27 59L26 59L26 58L25 58L25 57L24 57L24 58L25 58L25 59L24 59L24 60L25 60L25 59L26 59L26 60L27 60L27 61L24 61L24 62L23 62L23 63L24 63L24 64L22 64L22 65L26 65L26 66L27 66L27 67L28 67L28 68L26 68L26 69L28 69L28 70L27 70L27 71L28 71L28 73L29 73L29 72L30 72L30 73L33 73L33 74L35 74L35 75L33 75L33 76L32 76L32 75L30 75L30 74L29 74L29 75L27 75L27 77L29 77L29 79L28 79L28 81L26 81L26 83L27 83L27 84L29 84L29 83L30 83L30 85L31 85L31 84L32 84L32 85L34 85L34 84L35 84L35 83L36 83L36 84L37 84L37 85L38 85L38 86L39 86L39 85L40 85L40 84L41 84L41 85L42 85L42 84L43 84L43 85L46 85L46 83L49 83L49 82L52 82L52 84L51 84L51 83L50 83L50 84L48 84L48 85L47 85L47 86L46 86L46 87L45 87L45 86L43 86L43 87L42 87L42 90L41 90L41 91L40 91L40 90L39 90L39 91L40 91L40 92L39 92L39 95L40 95L40 92L41 92L41 91L42 91L42 93L43 93L43 92L44 92L44 91L45 91L45 90L46 90L46 91L47 91L47 90L46 90L46 87L47 87L47 88L48 88L48 87L49 87L49 88L50 88L50 89L49 89L49 90L48 90L48 91L50 91L50 92L51 92L51 91L52 91L52 88L50 88L50 87L49 87L49 86L48 86L48 85L50 85L50 86L52 86L52 84L53 84L53 85L54 85L54 86L55 86L55 85L56 85L56 83L57 83L57 84L58 84L58 83L60 83L60 82L59 82L59 80L60 80L60 81L61 81L61 80L62 80L62 81L66 81L66 82L67 82L67 83L65 83L65 82L63 82L63 84L62 84L62 85L61 85L61 87L59 87L59 86L60 86L60 84L59 84L59 85L57 85L57 86L56 86L56 87L57 87L57 88L58 88L58 89L57 89L57 90L58 90L58 91L60 91L60 92L59 92L59 93L60 93L60 94L61 94L61 93L64 93L64 94L63 94L63 95L59 95L59 97L60 97L60 96L63 96L63 95L64 95L64 96L65 96L65 97L66 97L66 98L67 98L67 97L71 97L71 96L70 96L70 95L73 95L73 98L72 98L72 99L74 99L74 96L75 96L75 95L74 95L74 94L73 94L73 93L77 93L77 95L76 95L76 97L75 97L75 99L76 99L76 100L77 100L77 99L76 99L76 98L77 98L77 96L78 96L78 97L83 97L83 96L82 96L82 95L81 95L81 93L80 93L80 92L79 92L79 91L76 91L76 89L75 89L75 87L76 87L76 88L77 88L77 87L76 87L76 85L77 85L77 84L78 84L78 83L79 83L79 82L78 82L78 83L74 83L74 82L77 82L77 81L78 81L78 80L79 80L79 81L81 81L81 82L80 82L80 83L81 83L81 84L79 84L79 85L81 85L81 84L82 84L82 83L85 83L85 84L88 84L88 83L89 83L89 84L90 84L90 85L92 85L92 87L93 87L93 86L94 86L94 85L95 85L95 84L94 84L94 83L97 83L97 82L95 82L95 81L98 81L98 82L99 82L99 83L100 83L100 82L99 82L99 79L100 79L100 81L103 81L103 82L104 82L104 81L105 81L105 80L106 80L106 79L105 79L105 78L104 78L104 77L103 77L103 78L104 78L104 79L105 79L105 80L104 80L104 81L103 81L103 79L101 79L101 78L100 78L100 76L101 76L101 75L102 75L102 76L104 76L104 75L105 75L105 73L106 73L106 71L107 71L107 69L106 69L106 71L105 71L105 69L102 69L102 68L104 68L104 67L105 67L105 66L106 66L106 67L110 67L110 66L107 66L107 64L108 64L108 63L107 63L107 64L105 64L105 65L103 65L103 67L102 67L102 65L101 65L101 67L98 67L98 66L100 66L100 65L97 65L97 66L96 66L96 65L95 65L95 63L98 63L98 64L104 64L104 63L100 63L100 62L99 62L99 59L97 59L97 58L98 58L98 56L97 56L97 57L96 57L96 58L95 58L95 56L94 56L94 55L95 55L95 54L96 54L96 55L98 55L98 54L96 54L96 53L97 53L97 52L96 52L96 53L94 53L94 51L92 51L92 54L91 54L91 53L90 53L90 54L87 54L87 53L86 53L86 54L85 54L85 52L87 52L87 51L86 51L86 49L85 49L85 50L84 50L84 49L83 49L83 48L82 48L82 47L83 47L83 44L82 44L82 46L81 46L81 45L80 45L80 44L79 44L79 43L81 43L81 42L82 42L82 43L85 43L85 44L87 44L87 43L88 43L88 42L89 42L89 43L91 43L91 44L92 44L92 45L93 45L93 46L94 46L94 47L97 47L97 46L99 46L99 45L97 45L97 44L96 44L96 43L98 43L98 44L99 44L99 43L100 43L100 41L99 41L99 40L101 40L101 39L100 39L100 37L99 37L99 35L100 35L100 34L99 34L99 35L97 35L97 34L98 34L98 32L99 32L99 33L100 33L100 32L101 32L101 31L102 31L102 30L101 30L101 29L99 29L99 27L100 27L100 26L99 26L99 25L97 25L97 24ZM103 24L103 26L102 26L102 27L104 27L104 29L105 29L105 30L107 30L107 29L108 29L108 28L109 28L109 27L108 27L108 26L107 26L107 27L106 27L106 25L104 25L104 24ZM112 24L112 25L113 25L113 26L112 26L112 27L111 27L111 28L112 28L112 27L113 27L113 28L114 28L114 27L115 27L115 26L114 26L114 25L113 25L113 24ZM35 25L35 26L36 26L36 25ZM121 25L121 26L122 26L122 27L123 27L123 26L124 26L124 27L125 27L125 25ZM104 26L104 27L105 27L105 26ZM105 28L105 29L107 29L107 28ZM6 29L6 30L7 30L7 29ZM16 29L16 32L13 32L13 33L12 33L12 34L13 34L13 35L11 35L11 36L14 36L14 35L15 35L15 33L16 33L16 32L17 32L17 30L18 30L18 29ZM37 29L37 30L39 30L39 29ZM71 29L71 30L70 30L70 31L72 31L72 29ZM75 29L75 31L76 31L76 32L78 32L78 33L77 33L77 35L78 35L78 34L79 34L79 33L82 33L82 31L81 31L81 32L79 32L79 31L76 31L76 30L77 30L77 29ZM4 30L4 31L5 31L5 32L8 32L8 31L5 31L5 30ZM57 30L57 31L58 31L58 30ZM100 30L100 31L99 31L99 32L100 32L100 31L101 31L101 30ZM28 31L28 32L29 32L29 31ZM122 31L122 33L124 33L124 32L123 32L123 31ZM49 32L49 33L50 33L50 32ZM57 32L57 33L58 33L58 32ZM83 32L83 33L84 33L84 32ZM87 32L87 33L88 33L88 32ZM95 32L95 33L96 33L96 32ZM111 32L111 33L108 33L108 35L109 35L109 34L111 34L111 35L110 35L110 38L108 38L108 37L107 37L107 38L106 38L106 39L107 39L107 38L108 38L108 39L110 39L110 38L112 38L112 36L111 36L111 35L112 35L112 32ZM5 33L5 36L8 36L8 33ZM9 33L9 34L10 34L10 33ZM13 33L13 34L14 34L14 33ZM33 33L33 36L36 36L36 33ZM40 33L40 34L41 34L41 33ZM61 33L61 36L64 36L64 33ZM89 33L89 36L92 36L92 33ZM117 33L117 36L120 36L120 33ZM6 34L6 35L7 35L7 34ZM34 34L34 35L35 35L35 34ZM44 34L44 35L45 35L45 34ZM62 34L62 35L63 35L63 34ZM86 34L86 35L87 35L87 34ZM90 34L90 35L91 35L91 34ZM118 34L118 35L119 35L119 34ZM122 34L122 36L121 36L121 37L122 37L122 38L124 38L124 37L123 37L123 36L124 36L124 34ZM43 36L43 37L45 37L45 36ZM86 36L86 37L87 37L87 36ZM97 36L97 37L98 37L98 36ZM5 37L5 39L6 39L6 40L7 40L7 41L6 41L6 42L7 42L7 41L8 41L8 40L7 40L7 39L6 39L6 38L7 38L7 37ZM8 37L8 38L9 38L9 39L10 39L10 38L9 38L9 37ZM30 37L30 38L31 38L31 37ZM44 38L44 39L45 39L45 38ZM78 38L78 39L77 39L77 40L76 40L76 39L75 39L75 40L76 40L76 41L75 41L75 42L73 42L73 43L72 43L72 44L71 44L71 45L70 45L70 46L69 46L69 47L70 47L70 48L71 48L71 49L72 49L72 50L73 50L73 51L70 51L70 52L69 52L69 51L68 51L68 53L69 53L69 55L68 55L68 57L69 57L69 56L70 56L70 54L72 54L72 52L73 52L73 51L75 51L75 49L74 49L74 50L73 50L73 48L74 48L74 47L75 47L75 48L76 48L76 51L77 51L77 52L75 52L75 53L73 53L73 54L74 54L74 55L75 55L75 53L77 53L77 54L76 54L76 55L77 55L77 56L78 56L78 55L80 55L80 57L81 57L81 58L82 58L82 57L83 57L83 55L82 55L82 54L83 54L83 51L82 51L82 50L83 50L83 49L81 49L81 46L80 46L80 49L81 49L81 51L80 51L80 50L79 50L79 49L78 49L78 47L79 47L79 44L78 44L78 43L79 43L79 42L78 42L78 41L79 41L79 40L78 40L78 39L80 39L80 41L81 41L81 39L80 39L80 38ZM98 38L98 39L99 39L99 38ZM48 39L48 40L51 40L51 42L50 42L50 41L49 41L49 42L50 42L50 43L51 43L51 45L54 45L54 43L55 43L55 41L56 41L56 40L55 40L55 41L54 41L54 40L52 40L52 39ZM27 40L27 41L26 41L26 43L27 43L27 41L28 41L28 40ZM124 40L124 43L123 43L123 44L124 44L124 43L125 43L125 40ZM23 41L23 42L24 42L24 41ZM47 41L47 42L48 42L48 41ZM76 41L76 44L77 44L77 41ZM82 41L82 42L84 42L84 41ZM85 41L85 42L86 42L86 43L87 43L87 42L86 42L86 41ZM109 41L109 42L110 42L110 41ZM117 41L117 42L118 42L118 41ZM1 42L1 43L0 43L0 44L1 44L1 45L2 45L2 43L3 43L3 44L4 44L4 42ZM8 42L8 43L9 43L9 42ZM51 42L51 43L52 43L52 44L53 44L53 43L54 43L54 42L53 42L53 43L52 43L52 42ZM98 42L98 43L99 43L99 42ZM12 43L12 44L13 44L13 45L12 45L12 46L13 46L13 45L14 45L14 44L13 44L13 43ZM41 43L41 44L42 44L42 45L43 45L43 44L42 44L42 43ZM74 43L74 44L73 44L73 45L72 45L72 47L74 47L74 45L75 45L75 43ZM94 43L94 44L93 44L93 45L96 45L96 46L97 46L97 45L96 45L96 44L95 44L95 43ZM8 44L8 45L9 45L9 44ZM63 44L63 45L64 45L64 44ZM44 45L44 46L42 46L42 47L44 47L44 46L45 46L45 45ZM48 45L48 46L49 46L49 45ZM76 45L76 46L75 46L75 47L76 47L76 48L77 48L77 47L76 47L76 46L78 46L78 45ZM118 45L118 46L119 46L119 45ZM6 46L6 47L7 47L7 46ZM34 46L34 49L35 49L35 46ZM62 46L62 47L63 47L63 46ZM70 46L70 47L71 47L71 46ZM20 47L20 48L21 48L21 47ZM52 47L52 48L53 48L53 47ZM86 47L86 48L87 48L87 47ZM98 47L98 48L99 48L99 47ZM29 48L29 51L31 51L31 49L30 49L30 48ZM63 48L63 50L65 50L65 49L64 49L64 48ZM101 48L101 49L102 49L102 48ZM11 49L11 50L10 50L10 52L11 52L11 51L13 51L13 50L12 50L12 49ZM49 49L49 50L50 50L50 49ZM55 49L55 50L56 50L56 51L55 51L55 52L54 52L54 54L53 54L53 53L52 53L52 52L49 52L49 51L48 51L48 50L47 50L47 51L46 51L46 50L45 50L45 51L44 51L44 50L40 50L40 51L44 51L44 52L45 52L45 53L40 53L40 52L37 52L37 54L35 54L35 53L34 53L34 54L35 54L35 57L34 57L34 58L36 58L36 59L37 59L37 58L36 58L36 55L37 55L37 56L38 56L38 55L39 55L39 56L40 56L40 55L43 55L43 56L42 56L42 57L38 57L38 59L39 59L39 60L37 60L37 61L38 61L38 62L39 62L39 60L40 60L40 63L41 63L41 65L40 65L40 64L39 64L39 63L37 63L37 65L39 65L39 66L36 66L36 67L35 67L35 68L34 68L34 66L33 66L33 65L32 65L32 67L31 67L31 66L29 66L29 64L28 64L28 63L31 63L31 64L32 64L32 63L31 63L31 62L32 62L32 61L31 61L31 62L28 62L28 61L29 61L29 60L28 60L28 61L27 61L27 62L24 62L24 63L25 63L25 64L26 64L26 63L27 63L27 64L28 64L28 65L27 65L27 66L28 66L28 67L31 67L31 68L30 68L30 69L29 69L29 68L28 68L28 69L29 69L29 70L28 70L28 71L29 71L29 70L30 70L30 71L31 71L31 69L32 69L32 72L33 72L33 71L34 71L34 73L39 73L39 74L38 74L38 75L37 75L37 74L36 74L36 75L37 75L37 76L33 76L33 77L32 77L32 76L31 76L31 77L30 77L30 79L29 79L29 82L28 82L28 83L29 83L29 82L30 82L30 83L31 83L31 81L32 81L32 84L34 84L34 81L36 81L36 82L37 82L37 84L38 84L38 85L39 85L39 84L38 84L38 83L40 83L40 82L38 82L38 81L36 81L36 80L37 80L37 79L36 79L36 78L35 78L35 79L33 79L33 78L34 78L34 77L37 77L37 76L38 76L38 75L39 75L39 74L40 74L40 75L41 75L41 76L40 76L40 79L39 79L39 77L38 77L38 79L39 79L39 81L40 81L40 79L44 79L44 80L43 80L43 81L42 81L42 80L41 80L41 82L42 82L42 83L41 83L41 84L42 84L42 83L44 83L44 84L45 84L45 83L46 83L46 82L45 82L45 79L47 79L47 82L48 82L48 81L51 81L51 80L52 80L52 79L55 79L55 80L54 80L54 82L53 82L53 81L52 81L52 82L53 82L53 83L56 83L56 82L55 82L55 81L56 81L56 80L57 80L57 79L58 79L58 80L59 80L59 79L58 79L58 78L60 78L60 79L61 79L61 77L62 77L62 78L64 78L64 79L63 79L63 80L66 80L66 81L67 81L67 82L68 82L68 81L67 81L67 80L66 80L66 79L68 79L68 80L69 80L69 82L70 82L70 81L71 81L71 82L72 82L72 81L71 81L71 79L72 79L72 80L73 80L73 79L75 79L75 80L74 80L74 81L73 81L73 82L74 82L74 81L75 81L75 80L76 80L76 79L77 79L77 80L78 80L78 79L79 79L79 80L83 80L83 82L84 82L84 81L85 81L85 82L86 82L86 83L87 83L87 82L86 82L86 79L88 79L88 80L89 80L89 79L88 79L88 78L87 78L87 77L89 77L89 75L88 75L88 73L90 73L90 75L91 75L91 74L92 74L92 76L91 76L91 77L90 77L90 79L91 79L91 78L92 78L92 77L94 77L94 78L93 78L93 80L92 80L92 81L89 81L89 83L90 83L90 84L91 84L91 83L90 83L90 82L92 82L92 81L93 81L93 83L94 83L94 80L98 80L98 79L99 79L99 78L97 78L97 77L99 77L99 76L100 76L100 75L101 75L101 74L102 74L102 75L103 75L103 73L104 73L104 72L105 72L105 71L104 71L104 70L102 70L102 69L100 69L100 68L98 68L98 67L96 67L96 66L95 66L95 67L94 67L94 66L92 66L92 65L89 65L89 67L88 67L88 65L87 65L87 64L88 64L88 62L87 62L87 61L88 61L88 60L89 60L89 57L88 57L88 55L87 55L87 54L86 54L86 55L84 55L84 57L85 57L85 56L86 56L86 57L87 57L87 58L85 58L85 59L82 59L82 61L81 61L81 62L80 62L80 61L79 61L79 62L76 62L76 63L75 63L75 62L74 62L74 61L73 61L73 63L72 63L72 62L71 62L71 63L70 63L70 62L69 62L69 63L68 63L68 62L66 62L66 63L65 63L65 65L62 65L62 66L61 66L61 65L60 65L60 64L59 64L59 63L58 63L58 62L57 62L57 63L56 63L56 62L55 62L55 60L53 60L53 59L51 59L51 58L50 58L50 57L49 57L49 58L50 58L50 59L51 59L51 60L50 60L50 61L52 61L52 60L53 60L53 62L50 62L50 63L46 63L46 61L47 61L47 62L49 62L49 61L47 61L47 60L49 60L49 59L46 59L46 57L47 57L47 56L50 56L50 55L51 55L51 54L52 54L52 55L56 55L56 56L57 56L57 55L56 55L56 54L55 54L55 53L56 53L56 52L57 52L57 51L58 51L58 50L57 50L57 49ZM61 50L61 51L60 51L60 52L61 52L61 54L63 54L63 53L62 53L62 52L61 52L61 51L62 51L62 50ZM77 50L77 51L78 51L78 52L77 52L77 53L78 53L78 52L80 52L80 53L79 53L79 54L80 54L80 55L81 55L81 56L82 56L82 55L81 55L81 53L82 53L82 51L81 51L81 52L80 52L80 51L78 51L78 50ZM123 50L123 51L124 51L124 50ZM2 51L2 52L3 52L3 53L4 53L4 52L6 52L6 51L4 51L4 52L3 52L3 51ZM16 51L16 52L17 52L17 51ZM63 51L63 52L64 52L64 51ZM84 51L84 52L85 52L85 51ZM114 51L114 53L115 53L115 51ZM25 52L25 54L26 54L26 53L27 53L27 52ZM46 52L46 55L45 55L45 54L44 54L44 55L45 55L45 56L46 56L46 55L47 55L47 53L49 53L49 54L48 54L48 55L49 55L49 54L51 54L51 53L49 53L49 52ZM70 52L70 53L71 53L71 52ZM5 53L5 54L6 54L6 55L7 55L7 54L6 54L6 53ZM93 53L93 54L92 54L92 55L90 55L90 60L91 60L91 58L92 58L92 59L93 59L93 60L94 60L94 62L93 62L93 64L94 64L94 62L96 62L96 61L97 61L97 62L98 62L98 63L99 63L99 62L98 62L98 61L97 61L97 59L94 59L94 58L92 58L92 55L94 55L94 53ZM107 53L107 54L110 54L110 55L111 55L111 58L109 58L109 59L107 59L107 60L109 60L109 59L111 59L111 58L112 58L112 59L115 59L115 56L114 56L114 55L113 55L113 56L114 56L114 57L112 57L112 54L111 54L111 53ZM37 54L37 55L38 55L38 54ZM39 54L39 55L40 55L40 54ZM28 55L28 57L29 57L29 55ZM60 55L60 58L61 58L61 55ZM86 55L86 56L87 56L87 55ZM43 56L43 57L42 57L42 58L41 58L41 59L40 59L40 58L39 58L39 59L40 59L40 60L42 60L42 61L44 61L44 63L42 63L42 65L43 65L43 67L42 67L42 66L41 66L41 67L40 67L40 66L39 66L39 67L38 67L38 68L37 68L37 69L36 69L36 70L37 70L37 71L36 71L36 72L37 72L37 71L38 71L38 72L39 72L39 71L40 71L40 73L42 73L42 72L41 72L41 71L42 71L42 70L43 70L43 68L44 68L44 67L47 67L47 68L45 68L45 69L46 69L46 71L49 71L49 72L48 72L48 73L47 73L47 74L46 74L46 72L45 72L45 74L46 74L46 75L47 75L47 76L45 76L45 75L42 75L42 77L41 77L41 78L43 78L43 77L44 77L44 76L45 76L45 77L46 77L46 78L47 78L47 79L48 79L48 78L49 78L49 79L50 79L50 80L51 80L51 79L52 79L52 77L51 77L51 76L53 76L53 78L55 78L55 79L57 79L57 78L55 78L55 77L59 77L59 76L61 76L61 75L62 75L62 77L63 77L63 75L62 75L62 74L61 74L61 75L59 75L59 74L56 74L56 75L57 75L57 76L55 76L55 75L52 75L52 74L53 74L53 73L54 73L54 74L55 74L55 72L56 72L56 71L57 71L57 73L58 73L58 71L59 71L59 73L61 73L61 72L62 72L62 73L63 73L63 72L62 72L62 69L63 69L63 68L64 68L64 69L65 69L65 70L63 70L63 71L65 71L65 72L64 72L64 73L65 73L65 72L66 72L66 73L70 73L70 72L67 72L67 71L65 71L65 70L67 70L67 68L68 68L68 67L69 67L69 69L70 69L70 70L68 70L68 71L71 71L71 67L73 67L73 68L72 68L72 71L73 71L73 69L74 69L74 70L75 70L75 71L74 71L74 72L73 72L73 73L74 73L74 74L75 74L75 75L76 75L76 76L74 76L74 75L73 75L73 74L72 74L72 73L71 73L71 74L70 74L70 75L69 75L69 74L67 74L67 75L66 75L66 74L64 74L64 77L65 77L65 75L66 75L66 77L67 77L67 76L68 76L68 75L69 75L69 76L70 76L70 75L71 75L71 78L70 78L70 77L69 77L69 78L68 78L68 79L69 79L69 78L70 78L70 79L71 79L71 78L73 78L73 77L74 77L74 78L75 78L75 77L76 77L76 78L78 78L78 77L80 77L80 79L81 79L81 78L82 78L82 79L85 79L85 78L86 78L86 77L87 77L87 76L88 76L88 75L86 75L86 76L85 76L85 78L83 78L83 76L82 76L82 75L85 75L85 74L87 74L87 73L88 73L88 72L90 72L90 73L91 73L91 72L92 72L92 71L93 71L93 70L94 70L94 71L97 71L97 70L99 70L99 71L98 71L98 72L97 72L97 73L96 73L96 74L94 74L94 75L93 75L93 76L94 76L94 75L97 75L97 76L95 76L95 77L97 77L97 76L99 76L99 75L100 75L100 74L101 74L101 72L102 72L102 73L103 73L103 72L104 72L104 71L100 71L100 70L99 70L99 69L97 69L97 70L96 70L96 68L95 68L95 70L94 70L94 67L93 67L93 69L92 69L92 66L90 66L90 68L89 68L89 69L88 69L88 71L86 71L86 72L87 72L87 73L84 73L84 74L82 74L82 71L83 71L83 72L84 72L84 71L85 71L85 70L87 70L87 69L85 69L85 68L86 68L86 66L85 66L85 65L86 65L86 64L87 64L87 63L86 63L86 64L84 64L84 65L83 65L83 64L82 64L82 63L85 63L85 62L86 62L86 60L87 60L87 59L86 59L86 60L83 60L83 61L84 61L84 62L82 62L82 63L81 63L81 64L80 64L80 65L79 65L79 63L80 63L80 62L79 62L79 63L78 63L78 65L79 65L79 66L82 66L82 67L81 67L81 69L80 69L80 67L77 67L77 66L76 66L76 68L75 68L75 67L74 67L74 66L75 66L75 63L73 63L73 64L74 64L74 65L72 65L72 66L71 66L71 64L72 64L72 63L71 63L71 64L69 64L69 65L67 65L67 66L68 66L68 67L66 67L66 66L65 66L65 67L64 67L64 66L63 66L63 67L62 67L62 69L61 69L61 68L60 68L60 67L59 67L59 64L58 64L58 63L57 63L57 65L56 65L56 63L50 63L50 64L48 64L48 65L47 65L47 64L46 64L46 63L45 63L45 60L43 60L43 59L42 59L42 58L44 58L44 59L45 59L45 58L44 58L44 56ZM51 56L51 57L53 57L53 58L54 58L54 59L56 59L56 57L54 57L54 56ZM11 57L11 58L12 58L12 57ZM14 57L14 58L15 58L15 59L16 59L16 58L17 58L17 57ZM105 58L105 59L104 59L104 60L105 60L105 59L106 59L106 58ZM9 59L9 60L10 60L10 59ZM80 59L80 60L81 60L81 59ZM15 60L15 61L16 61L16 60ZM95 60L95 61L96 61L96 60ZM5 61L5 64L8 64L8 61ZM21 61L21 63L22 63L22 61ZM33 61L33 64L36 64L36 61ZM61 61L61 64L64 64L64 61ZM89 61L89 64L92 64L92 61ZM117 61L117 64L120 64L120 61ZM6 62L6 63L7 63L7 62ZM27 62L27 63L28 63L28 62ZM34 62L34 63L35 63L35 62ZM62 62L62 63L63 63L63 62ZM90 62L90 63L91 63L91 62ZM118 62L118 63L119 63L119 62ZM122 62L122 63L123 63L123 62ZM44 63L44 64L43 64L43 65L44 65L44 64L45 64L45 63ZM66 63L66 64L68 64L68 63ZM76 63L76 65L77 65L77 63ZM0 64L0 65L2 65L2 64ZM9 64L9 65L11 65L11 64ZM14 64L14 65L13 65L13 66L14 66L14 65L15 65L15 64ZM50 64L50 65L49 65L49 66L47 66L47 67L48 67L48 68L49 68L49 69L50 69L50 71L51 71L51 72L52 72L52 71L56 71L56 70L57 70L57 71L58 71L58 70L59 70L59 71L60 71L60 72L61 72L61 69L60 69L60 68L59 68L59 67L58 67L58 66L57 66L57 67L56 67L56 68L54 68L54 70L52 70L52 71L51 71L51 69L53 69L53 68L50 68L50 67L51 67L51 66L52 66L52 67L53 67L53 66L54 66L54 67L55 67L55 66L56 66L56 65L55 65L55 64L54 64L54 65L52 65L52 64ZM81 64L81 65L82 65L82 66L83 66L83 65L82 65L82 64ZM6 65L6 66L7 66L7 67L8 67L8 65ZM50 65L50 66L51 66L51 65ZM54 65L54 66L55 66L55 65ZM69 65L69 67L71 67L71 66L70 66L70 65ZM123 65L123 67L124 67L124 65ZM120 66L120 67L121 67L121 66ZM0 67L0 68L1 68L1 67ZM39 67L39 69L38 69L38 71L39 71L39 69L42 69L42 67L41 67L41 68L40 68L40 67ZM57 67L57 69L59 69L59 68L58 68L58 67ZM82 67L82 68L83 68L83 67ZM84 67L84 68L85 68L85 67ZM87 67L87 68L88 68L88 67ZM7 68L7 69L8 69L8 68ZM33 68L33 69L34 69L34 70L35 70L35 69L34 69L34 68ZM65 68L65 69L66 69L66 68ZM78 68L78 71L75 71L75 73L76 73L76 72L78 72L78 71L79 71L79 68ZM14 69L14 70L15 70L15 69ZM17 69L17 70L18 70L18 69ZM47 69L47 70L48 70L48 69ZM81 69L81 71L80 71L80 72L79 72L79 73L77 73L77 74L76 74L76 75L80 75L80 77L81 77L81 75L82 75L82 74L81 74L81 75L80 75L80 72L81 72L81 71L82 71L82 70L83 70L83 71L84 71L84 70L85 70L85 69L84 69L84 70L83 70L83 69ZM90 69L90 71L92 71L92 69ZM0 70L0 71L1 71L1 70ZM11 70L11 71L12 71L12 70ZM40 70L40 71L41 71L41 70ZM44 70L44 71L43 71L43 72L44 72L44 71L45 71L45 70ZM108 70L108 71L110 71L110 74L108 74L108 72L107 72L107 74L106 74L106 75L107 75L107 74L108 74L108 75L109 75L109 76L111 76L111 75L112 75L112 74L111 74L111 71L110 71L110 70ZM6 72L6 73L7 73L7 72ZM93 72L93 73L92 73L92 74L93 74L93 73L94 73L94 72ZM99 72L99 73L98 73L98 75L99 75L99 73L100 73L100 72ZM116 72L116 73L115 73L115 74L114 74L114 75L116 75L116 73L117 73L117 72ZM50 73L50 74L49 74L49 75L48 75L48 76L47 76L47 78L48 78L48 76L49 76L49 77L50 77L50 76L49 76L49 75L51 75L51 73ZM19 74L19 75L20 75L20 74ZM110 74L110 75L111 75L111 74ZM29 75L29 76L30 76L30 75ZM58 75L58 76L59 76L59 75ZM72 75L72 77L73 77L73 75ZM4 76L4 77L5 77L5 76ZM13 76L13 77L14 77L14 76ZM76 76L76 77L77 77L77 76ZM31 77L31 79L30 79L30 81L31 81L31 80L33 80L33 81L34 81L34 80L33 80L33 79L32 79L32 77ZM6 78L6 79L7 79L7 78ZM22 78L22 79L24 79L24 80L23 80L23 81L24 81L24 82L25 82L25 79L24 79L24 78ZM44 78L44 79L45 79L45 78ZM50 78L50 79L51 79L51 78ZM65 78L65 79L66 79L66 78ZM94 78L94 79L97 79L97 78ZM111 78L111 79L112 79L112 78ZM9 79L9 80L8 80L8 81L9 81L9 80L10 80L10 83L11 83L11 80L12 80L12 79L11 79L11 80L10 80L10 79ZM35 79L35 80L36 80L36 79ZM14 80L14 81L16 81L16 80ZM2 81L2 83L4 83L4 82L3 82L3 81ZM19 81L19 82L21 82L21 81ZM57 81L57 83L58 83L58 81ZM114 81L114 82L115 82L115 81ZM8 82L8 83L6 83L6 84L2 84L2 85L5 85L5 86L7 86L7 87L2 87L2 88L3 88L3 89L4 89L4 88L7 88L7 87L10 87L10 86L9 86L9 85L10 85L10 84L9 84L9 82ZM17 82L17 83L18 83L18 82ZM44 82L44 83L45 83L45 82ZM81 82L81 83L82 83L82 82ZM20 83L20 84L22 84L22 83ZM67 83L67 84L68 84L68 85L67 85L67 86L65 86L65 84L64 84L64 85L62 85L62 86L63 86L63 87L64 87L64 86L65 86L65 87L70 87L70 88L71 88L71 87L70 87L70 86L71 86L71 85L72 85L72 86L73 86L73 85L74 85L74 87L72 87L72 88L74 88L74 87L75 87L75 85L76 85L76 84L74 84L74 83L72 83L72 84L71 84L71 83L70 83L70 86L69 86L69 83ZM6 84L6 85L7 85L7 86L8 86L8 85L9 85L9 84ZM54 84L54 85L55 85L55 84ZM72 84L72 85L73 85L73 84ZM83 84L83 85L82 85L82 86L79 86L79 88L78 88L78 90L79 90L79 89L80 89L80 91L81 91L81 92L83 92L83 93L84 93L84 92L83 92L83 90L82 90L82 89L83 89L83 88L84 88L84 87L86 87L86 88L85 88L85 89L84 89L84 91L86 91L86 90L85 90L85 89L87 89L87 88L88 88L88 87L86 87L86 86L88 86L88 85L84 85L84 84ZM92 84L92 85L94 85L94 84ZM16 85L16 86L14 86L14 87L15 87L15 88L13 88L13 89L14 89L14 91L17 91L17 90L18 90L18 89L20 89L20 88L18 88L18 85ZM97 85L97 86L98 86L98 87L96 87L96 88L98 88L98 89L99 89L99 88L100 88L100 89L101 89L101 88L100 88L100 87L99 87L99 86L98 86L98 85ZM118 85L118 88L119 88L119 86L120 86L120 87L122 87L122 89L124 89L124 88L123 88L123 87L124 87L124 86L123 86L123 87L122 87L122 86L120 86L120 85ZM12 86L12 87L13 87L13 86ZM16 86L16 87L17 87L17 86ZM31 86L31 87L28 87L28 88L27 88L27 89L28 89L28 88L29 88L29 90L31 90L31 87L32 87L32 86ZM47 86L47 87L48 87L48 86ZM57 86L57 87L58 87L58 88L59 88L59 89L58 89L58 90L60 90L60 88L59 88L59 87L58 87L58 86ZM83 86L83 87L80 87L80 88L83 88L83 87L84 87L84 86ZM36 87L36 88L37 88L37 87ZM43 87L43 88L44 88L44 89L45 89L45 87ZM61 87L61 88L62 88L62 87ZM98 87L98 88L99 88L99 87ZM11 88L11 89L12 89L12 88ZM15 88L15 90L16 90L16 88ZM65 88L65 89L66 89L66 88ZM68 88L68 89L67 89L67 90L65 90L65 92L66 92L66 91L67 91L67 90L71 90L71 91L70 91L70 93L71 93L71 94L72 94L72 93L71 93L71 91L72 91L72 92L73 92L73 91L72 91L72 90L73 90L73 89L69 89L69 88ZM111 88L111 90L109 90L109 91L108 91L108 92L107 92L107 91L106 91L106 92L107 92L107 93L108 93L108 92L109 92L109 93L111 93L111 92L110 92L110 91L111 91L111 90L112 90L112 91L113 91L113 92L112 92L112 93L113 93L113 92L114 92L114 91L115 91L115 92L116 92L116 91L115 91L115 90L116 90L116 89L115 89L115 88L114 88L114 89L112 89L112 88ZM5 89L5 92L8 92L8 89ZM33 89L33 92L36 92L36 89ZM50 89L50 91L51 91L51 89ZM61 89L61 92L64 92L64 89ZM74 89L74 92L76 92L76 91L75 91L75 89ZM89 89L89 92L92 92L92 89ZM117 89L117 92L120 92L120 89ZM3 90L3 91L4 91L4 90ZM6 90L6 91L7 91L7 90ZM10 90L10 92L13 92L13 90ZM34 90L34 91L35 91L35 90ZM42 90L42 91L44 91L44 90ZM53 90L53 91L54 91L54 90ZM62 90L62 91L63 91L63 90ZM90 90L90 91L91 91L91 90ZM93 90L93 91L94 91L94 90ZM118 90L118 91L119 91L119 90ZM68 91L68 92L67 92L67 93L68 93L68 94L66 94L66 93L65 93L65 95L68 95L68 96L69 96L69 95L70 95L70 94L69 94L69 93L68 93L68 92L69 92L69 91ZM29 92L29 93L30 93L30 92ZM121 92L121 93L122 93L122 92ZM17 93L17 94L18 94L18 93ZM25 93L25 94L26 94L26 93ZM78 93L78 95L79 95L79 96L81 96L81 95L80 95L80 94L79 94L79 93ZM92 93L92 96L94 96L94 97L92 97L92 98L91 98L91 99L90 99L90 100L91 100L91 101L92 101L92 104L93 104L93 103L94 103L94 106L95 106L95 105L96 105L96 104L95 104L95 103L94 103L94 102L95 102L95 101L96 101L96 102L97 102L97 101L100 101L100 99L101 99L101 98L100 98L100 95L99 95L99 94L97 94L97 95L96 95L96 96L95 96L95 95L94 95L94 94L93 94L93 93ZM95 93L95 94L96 94L96 93ZM27 94L27 95L28 95L28 94ZM45 94L45 95L46 95L46 94ZM68 94L68 95L69 95L69 94ZM87 94L87 95L88 95L88 94ZM98 95L98 96L99 96L99 95ZM16 96L16 97L17 97L17 96ZM30 96L30 97L29 97L29 98L30 98L30 97L32 97L32 96ZM96 96L96 97L95 97L95 98L94 98L94 99L93 99L93 100L92 100L92 99L91 99L91 100L92 100L92 101L95 101L95 100L96 100L96 101L97 101L97 100L96 100L96 99L97 99L97 98L99 98L99 97L97 97L97 96ZM101 96L101 97L102 97L102 99L104 99L104 100L105 100L105 99L106 99L106 98L105 98L105 99L104 99L104 97L102 97L102 96ZM112 96L112 97L114 97L114 96ZM116 96L116 97L117 97L117 99L118 99L118 100L119 100L119 99L118 99L118 97L117 97L117 96ZM96 97L96 98L97 98L97 97ZM108 97L108 98L109 98L109 97ZM11 98L11 99L12 99L12 98ZM50 98L50 99L51 99L51 98ZM63 98L63 102L64 102L64 98ZM80 98L80 99L79 99L79 100L80 100L80 99L81 99L81 100L82 100L82 101L83 101L83 102L82 102L82 103L81 103L81 104L79 104L79 105L81 105L81 104L82 104L82 103L86 103L86 102L87 102L87 103L88 103L88 102L87 102L87 101L88 101L88 100L87 100L87 99L86 99L86 98ZM44 99L44 100L45 100L45 99ZM46 99L46 100L48 100L48 101L47 101L47 102L48 102L48 101L49 101L49 99ZM58 99L58 100L56 100L56 101L55 101L55 100L51 100L51 101L50 101L50 103L46 103L46 101L45 101L45 103L43 103L43 102L40 102L40 103L39 103L39 104L40 104L40 103L43 103L43 104L44 104L44 105L48 105L48 104L49 104L49 105L50 105L50 103L51 103L51 104L52 104L52 102L53 102L53 103L56 103L56 102L57 102L57 101L58 101L58 102L60 102L60 105L61 105L61 104L62 104L62 105L63 105L63 104L64 104L64 103L62 103L62 102L61 102L61 101L60 101L60 100L59 100L59 99ZM82 99L82 100L84 100L84 101L85 101L85 102L86 102L86 101L85 101L85 99ZM94 99L94 100L95 100L95 99ZM98 99L98 100L99 100L99 99ZM29 100L29 101L27 101L27 104L26 104L26 102L25 102L25 105L23 105L23 106L25 106L25 107L23 107L23 108L24 108L24 109L25 109L25 108L26 108L26 107L27 107L27 108L28 108L28 107L27 107L27 106L26 106L26 105L27 105L27 104L28 104L28 103L29 103L29 104L30 104L30 103L31 103L31 102L30 102L30 100ZM101 100L101 102L100 102L100 103L104 103L104 102L105 102L105 103L106 103L106 104L110 104L110 105L111 105L111 104L110 104L110 103L106 103L106 102L105 102L105 101L103 101L103 100ZM37 101L37 102L38 102L38 101ZM51 101L51 102L52 102L52 101ZM53 101L53 102L55 102L55 101ZM72 102L72 103L74 103L74 102ZM98 102L98 103L99 103L99 102ZM11 104L11 105L12 105L12 104ZM35 104L35 105L37 105L37 104ZM41 104L41 106L40 106L40 107L39 107L39 106L38 106L38 107L39 107L39 108L40 108L40 107L44 107L44 108L43 108L43 109L44 109L44 110L45 110L45 111L46 111L46 113L47 113L47 114L48 114L48 113L47 113L47 112L49 112L49 111L48 111L48 109L49 109L49 110L50 110L50 109L49 109L49 108L50 108L50 107L52 107L52 106L54 106L54 107L55 107L55 106L54 106L54 105L52 105L52 106L50 106L50 107L46 107L46 106L45 106L45 107L44 107L44 106L43 106L43 105L42 105L42 104ZM0 105L0 106L1 106L1 105ZM107 105L107 106L108 106L108 105ZM5 106L5 107L4 107L4 108L3 108L3 109L4 109L4 108L5 108L5 107L7 107L7 106ZM31 106L31 107L32 107L32 106ZM63 106L63 107L64 107L64 106ZM101 106L101 107L100 107L100 108L99 108L99 107L98 107L98 109L100 109L100 108L101 108L101 107L102 107L102 106ZM45 107L45 108L44 108L44 109L45 109L45 108L46 108L46 107ZM80 107L80 108L81 108L81 107ZM110 107L110 108L109 108L109 109L108 109L108 111L107 111L107 110L106 110L106 111L107 111L107 112L108 112L108 111L109 111L109 113L108 113L108 114L106 114L106 112L105 112L105 114L106 114L106 115L109 115L109 116L111 116L111 115L112 115L112 112L113 112L113 111L112 111L112 110L114 110L114 109L112 109L112 108L111 108L111 107ZM6 108L6 109L7 109L7 108ZM13 108L13 109L14 109L14 108ZM26 109L26 112L27 112L27 113L25 113L25 110L24 110L24 112L22 112L22 113L25 113L25 115L22 115L22 116L25 116L25 115L26 115L26 114L28 114L28 115L31 115L31 113L28 113L28 111L27 111L27 109ZM46 109L46 111L47 111L47 109ZM61 109L61 110L62 110L62 109ZM109 109L109 110L110 110L110 111L111 111L111 112L110 112L110 113L109 113L109 115L111 115L111 114L110 114L110 113L111 113L111 112L112 112L112 111L111 111L111 110L112 110L112 109L111 109L111 110L110 110L110 109ZM6 110L6 111L7 111L7 110ZM102 110L102 111L103 111L103 110ZM76 111L76 112L78 112L78 113L76 113L76 114L79 114L79 113L80 113L80 112L81 112L81 113L85 113L85 114L82 114L82 115L85 115L85 114L87 114L87 113L85 113L85 112L81 112L81 111ZM92 111L92 112L91 112L91 113L92 113L92 112L94 112L94 113L93 113L93 114L94 114L94 116L95 116L95 114L96 114L96 112L94 112L94 111ZM117 111L117 112L118 112L118 111ZM14 112L14 113L15 113L15 112ZM71 113L71 114L72 114L72 113ZM124 113L124 114L123 114L123 117L124 117L124 119L125 119L125 113ZM39 114L39 115L40 115L40 116L41 116L41 117L42 117L42 116L44 116L44 117L43 117L43 118L42 118L42 119L43 119L43 118L44 118L44 119L45 119L45 118L46 118L46 116L44 116L44 114L43 114L43 115L42 115L42 114L41 114L41 115L40 115L40 114ZM63 114L63 115L61 115L61 116L63 116L63 115L64 115L64 114ZM80 114L80 115L81 115L81 114ZM97 114L97 115L98 115L98 114ZM114 114L114 115L116 115L116 114ZM89 115L89 116L90 116L90 115ZM17 116L17 117L18 117L18 116ZM51 116L51 117L53 117L53 116ZM23 117L23 118L24 118L24 117ZM33 117L33 120L36 120L36 117ZM37 117L37 118L38 118L38 119L37 119L37 120L38 120L38 119L39 119L39 118L38 118L38 117ZM61 117L61 120L64 120L64 117ZM89 117L89 120L92 120L92 117ZM117 117L117 120L120 120L120 117ZM34 118L34 119L35 119L35 118ZM62 118L62 119L63 119L63 118ZM90 118L90 119L91 119L91 118ZM99 118L99 119L100 119L100 118ZM112 118L112 119L113 119L113 120L111 120L111 121L113 121L113 122L112 122L112 123L115 123L115 120L116 120L116 118ZM118 118L118 119L119 119L119 118ZM16 119L16 121L15 121L15 122L14 122L14 123L15 123L15 122L17 122L17 119ZM18 119L18 120L19 120L19 119ZM82 119L82 120L83 120L83 119ZM107 119L107 120L108 120L108 121L107 121L107 122L108 122L108 121L110 121L110 120L109 120L109 119ZM114 119L114 120L113 120L113 121L114 121L114 120L115 120L115 119ZM26 120L26 122L27 122L27 123L32 123L32 121L31 121L31 120L29 120L29 122L28 122L28 120ZM71 120L71 122L72 122L72 120ZM94 120L94 121L95 121L95 120ZM96 120L96 121L97 121L97 120ZM123 120L123 121L124 121L124 120ZM10 121L10 122L11 122L11 121ZM34 121L34 122L35 122L35 121ZM62 121L62 122L61 122L61 123L63 123L63 121ZM77 121L77 122L78 122L78 121ZM39 122L39 123L40 123L40 122ZM80 122L80 123L81 123L81 122ZM101 122L101 123L100 123L100 125L102 125L102 124L104 124L104 123L105 123L105 122L104 122L104 123L102 123L102 122ZM110 122L110 123L111 123L111 122ZM121 122L121 123L122 123L122 122ZM123 122L123 125L124 125L124 124L125 124L125 122ZM8 123L8 125L11 125L11 124L9 124L9 123ZM51 123L51 124L52 124L52 123ZM17 124L17 125L19 125L19 124ZM33 124L33 125L36 125L36 124ZM47 124L47 125L49 125L49 124ZM121 124L121 125L122 125L122 124ZM0 0L0 7L7 7L7 0ZM1 1L1 6L6 6L6 1ZM2 2L2 5L5 5L5 2ZM118 0L118 7L125 7L125 0ZM119 1L119 6L124 6L124 1ZM120 2L120 5L123 5L123 2ZM0 118L0 125L7 125L7 118ZM1 119L1 124L6 124L6 119ZM2 120L2 123L5 123L5 120Z" fill="#000000"/></g></g></svg>
