<?xml version="1.0" encoding="UTF-8"?>
<svg xmlns="http://www.w3.org/2000/svg" version="1.1" width="500" height="500" viewBox="0 0 500 500"><rect x="0" y="0" width="500" height="500" fill="#ffffcc"/><g transform="scale(23.81)"><g transform="translate(0,0)"><path fill-rule="evenodd" d="M8 0L8 1L9 1L9 0ZM10 0L10 2L8 2L8 5L9 5L9 6L8 6L8 7L9 7L9 6L10 6L10 7L11 7L11 5L13 5L13 2L12 2L12 1L13 1L13 0L12 0L12 1L11 1L11 0ZM10 2L10 4L9 4L9 5L11 5L11 4L12 4L12 2ZM12 6L12 8L13 8L13 10L14 10L14 11L15 11L15 12L14 12L14 13L15 13L15 15L17 15L17 19L16 19L16 20L15 20L15 19L14 19L14 17L13 17L13 16L14 16L14 15L12 15L12 14L13 14L13 12L12 12L12 11L11 11L11 13L10 13L10 11L9 11L9 13L8 13L8 10L5 10L5 9L4 9L4 8L0 8L0 9L2 9L2 10L1 10L1 11L0 11L0 12L1 12L1 13L2 13L2 12L3 12L3 9L4 9L4 13L8 13L8 14L9 14L9 16L10 16L10 19L9 19L9 17L8 17L8 21L11 21L11 20L14 20L14 21L16 21L16 20L17 20L17 19L19 19L19 18L20 18L20 16L21 16L21 15L20 15L20 14L19 14L19 15L18 15L18 13L17 13L17 12L18 12L18 11L17 11L17 12L16 12L16 10L17 10L17 9L18 9L18 10L19 10L19 12L21 12L21 8L20 8L20 10L19 10L19 8L16 8L16 9L15 9L15 10L14 10L14 8L13 8L13 6ZM6 8L6 9L7 9L7 8ZM8 8L8 9L10 9L10 10L12 10L12 9L11 9L11 8ZM1 11L1 12L2 12L2 11ZM6 11L6 12L7 12L7 11ZM15 12L15 13L16 13L16 14L17 14L17 13L16 13L16 12ZM9 13L9 14L10 14L10 13ZM10 15L10 16L11 16L11 15ZM11 17L11 18L12 18L12 17ZM20 19L20 20L21 20L21 19ZM18 20L18 21L19 21L19 20ZM0 0L0 7L7 7L7 0ZM1 1L1 6L6 6L6 1ZM2 2L2 5L5 5L5 2ZM14 0L14 7L21 7L21 0ZM15 1L15 6L20 6L20 1ZM16 2L16 5L19 5L19 2ZM0 14L0 21L7 21L7 14ZM1 15L1 20L6 20L6 15ZM2 16L2 19L5 19L5 16Z" fill="#000000"/></g></g></svg>
