<?xml version="1.0" encoding="UTF-8"?>
<svg xmlns="http://www.w3.org/2000/svg" version="1.1" width="500" height="500" viewBox="0 0 500 500"><rect x="0" y="0" width="500" height="500" fill="#ffffcc"/><g transform="scale(23.81)"><g transform="translate(0,0)"><path fill-rule="evenodd" d="M10 0L10 3L12 3L12 5L13 5L13 3L12 3L12 2L13 2L13 0L12 0L12 2L11 2L11 0ZM8 1L8 3L9 3L9 1ZM8 4L8 8L6 8L6 9L8 9L8 11L7 11L7 10L6 10L6 11L3 11L3 10L5 10L5 9L4 9L4 8L3 8L3 9L2 9L2 8L0 8L0 10L2 10L2 12L3 12L3 13L5 13L5 12L6 12L6 13L8 13L8 15L9 15L9 16L10 16L10 15L11 15L11 10L12 10L12 15L14 15L14 14L16 14L16 15L15 15L15 16L17 16L17 15L18 15L18 13L17 13L17 14L16 14L16 12L18 12L18 11L19 11L19 12L20 12L20 14L21 14L21 12L20 12L20 11L21 11L21 9L20 9L20 8L18 8L18 9L17 9L17 8L14 8L14 9L13 9L13 6L12 6L12 7L11 7L11 4ZM9 6L9 8L8 8L8 9L10 9L10 8L11 8L11 7L10 7L10 6ZM14 9L14 10L13 10L13 14L14 14L14 13L15 13L15 12L14 12L14 11L15 11L15 10L16 10L16 11L17 11L17 10L16 10L16 9ZM18 9L18 10L19 10L19 11L20 11L20 10L19 10L19 9ZM9 10L9 11L8 11L8 13L9 13L9 15L10 15L10 13L9 13L9 12L10 12L10 10ZM6 11L6 12L7 12L7 11ZM0 12L0 13L1 13L1 12ZM19 15L19 16L21 16L21 15ZM11 16L11 17L12 17L12 18L10 18L10 19L8 19L8 21L10 21L10 19L11 19L11 20L12 20L12 21L13 21L13 20L14 20L14 21L18 21L18 20L17 20L17 19L19 19L19 18L20 18L20 19L21 19L21 17L19 17L19 18L18 18L18 17L16 17L16 18L15 18L15 19L16 19L16 20L14 20L14 19L13 19L13 17L14 17L14 16ZM8 17L8 18L9 18L9 17ZM12 19L12 20L13 20L13 19ZM19 20L19 21L20 21L20 20ZM0 0L0 7L7 7L7 0ZM1 1L1 6L6 6L6 1ZM2 2L2 5L5 5L5 2ZM14 0L14 7L21 7L21 0ZM15 1L15 6L20 6L20 1ZM16 2L16 5L19 5L19 2ZM0 14L0 21L7 21L7 14ZM1 15L1 20L6 20L6 15ZM2 16L2 19L5 19L5 16Z" fill="#000000"/></g></g></svg>
