<?xml version="1.0" encoding="UTF-8"?>
<svg xmlns="http://www.w3.org/2000/svg" version="1.1" width="500" height="500" viewBox="0 0 500 500"><rect x="0" y="0" width="500" height="500" fill="#ffffcc"/><g transform="scale(20)"><g transform="translate(0,0)"><path fill-rule="evenodd" d="M10 0L10 1L9 1L9 2L8 2L8 3L9 3L9 5L10 5L10 7L11 7L11 8L12 8L12 9L11 9L11 10L10 10L10 9L9 9L9 6L8 6L8 8L4 8L4 9L3 9L3 8L0 8L0 10L1 10L1 12L4 12L4 13L3 13L3 14L2 14L2 13L1 13L1 14L0 14L0 15L1 15L1 16L0 16L0 17L1 17L1 16L4 16L4 17L5 17L5 16L4 16L4 15L5 15L5 12L6 12L6 13L7 13L7 12L8 12L8 10L10 10L10 11L9 11L9 12L10 12L10 14L12 14L12 12L14 12L14 13L16 13L16 17L15 17L15 18L14 18L14 17L13 17L13 16L12 16L12 15L11 15L11 16L12 16L12 17L10 17L10 16L8 16L8 15L9 15L9 14L6 14L6 15L7 15L7 16L6 16L6 17L7 17L7 16L8 16L8 21L9 21L9 22L8 22L8 25L9 25L9 24L10 24L10 25L11 25L11 24L12 24L12 25L13 25L13 24L12 24L12 23L11 23L11 22L12 22L12 20L14 20L14 22L13 22L13 23L14 23L14 22L15 22L15 25L18 25L18 24L20 24L20 23L22 23L22 22L23 22L23 21L25 21L25 20L24 20L24 19L25 19L25 12L24 12L24 13L23 13L23 14L22 14L22 15L23 15L23 16L24 16L24 17L23 17L23 18L22 18L22 17L21 17L21 16L20 16L20 15L21 15L21 14L19 14L19 12L16 12L16 11L15 11L15 10L14 10L14 9L15 9L15 8L14 8L14 7L15 7L15 6L16 6L16 7L17 7L17 5L16 5L16 4L15 4L15 3L14 3L14 4L13 4L13 3L12 3L12 2L11 2L11 3L12 3L12 5L10 5L10 3L9 3L9 2L10 2L10 1L11 1L11 0ZM14 0L14 1L13 1L13 2L14 2L14 1L15 1L15 2L16 2L16 3L17 3L17 1L16 1L16 0ZM11 6L11 7L12 7L12 8L13 8L13 7L14 7L14 6L13 6L13 7L12 7L12 6ZM16 8L16 10L17 10L17 11L19 11L19 8ZM22 8L22 9L21 9L21 10L20 10L20 12L21 12L21 11L25 11L25 9L23 9L23 8ZM4 9L4 12L5 12L5 10L8 10L8 9ZM2 10L2 11L3 11L3 10ZM6 11L6 12L7 12L7 11ZM11 11L11 12L12 12L12 11ZM14 11L14 12L15 12L15 11ZM1 14L1 15L2 15L2 14ZM13 14L13 15L14 15L14 14ZM18 15L18 16L19 16L19 15ZM9 17L9 18L10 18L10 20L12 20L12 19L11 19L11 18L10 18L10 17ZM17 17L17 20L20 20L20 17ZM13 18L13 19L14 19L14 18ZM18 18L18 19L19 19L19 18ZM23 18L23 19L21 19L21 21L23 21L23 19L24 19L24 18ZM15 19L15 21L16 21L16 19ZM17 21L17 24L18 24L18 23L19 23L19 21ZM9 22L9 23L10 23L10 22ZM24 22L24 23L23 23L23 25L25 25L25 24L24 24L24 23L25 23L25 22ZM0 0L0 7L7 7L7 0ZM1 1L1 6L6 6L6 1ZM2 2L2 5L5 5L5 2ZM18 0L18 7L25 7L25 0ZM19 1L19 6L24 6L24 1ZM20 2L20 5L23 5L23 2ZM0 18L0 25L7 25L7 18ZM1 19L1 24L6 24L6 19ZM2 20L2 23L5 23L5 20Z" fill="#000000"/></g></g></svg>
