<?xml version="1.0" encoding="UTF-8"?>
<svg xmlns="http://www.w3.org/2000/svg" version="1.1" width="500" height="500" viewBox="0 0 500 500"><rect x="0" y="0" width="500" height="500" fill="#ffffcc"/><g transform="scale(23.81)"><g transform="translate(0,0)"><path fill-rule="evenodd" d="M8 0L8 1L9 1L9 0ZM10 0L10 2L8 2L8 5L9 5L9 6L8 6L8 7L9 7L9 6L10 6L10 7L11 7L11 8L8 8L8 9L9 9L9 10L10 10L10 12L9 12L9 11L8 11L8 10L6 10L6 11L8 11L8 14L10 14L10 15L13 15L13 16L12 16L12 17L14 17L14 18L12 18L12 19L10 19L10 18L11 18L11 16L10 16L10 17L8 17L8 21L10 21L10 20L13 20L13 21L15 21L15 20L16 20L16 21L19 21L19 20L17 20L17 19L19 19L19 18L20 18L20 17L19 17L19 16L21 16L21 15L20 15L20 14L19 14L19 13L16 13L16 12L18 12L18 11L16 11L16 10L17 10L17 9L18 9L18 10L19 10L19 12L21 12L21 8L20 8L20 10L19 10L19 8L16 8L16 10L15 10L15 12L14 12L14 13L16 13L16 14L15 14L15 16L14 16L14 15L13 15L13 14L12 14L12 13L13 13L13 12L12 12L12 10L13 10L13 11L14 11L14 10L13 10L13 9L14 9L14 8L13 8L13 5L12 5L12 4L13 4L13 3L12 3L12 1L13 1L13 0ZM10 2L10 4L9 4L9 5L11 5L11 4L12 4L12 3L11 3L11 2ZM11 6L11 7L12 7L12 6ZM0 8L0 9L2 9L2 11L3 11L3 9L4 9L4 8ZM6 8L6 9L7 9L7 8ZM4 10L4 12L3 12L3 13L4 13L4 12L5 12L5 10ZM0 11L0 13L2 13L2 12L1 12L1 11ZM6 12L6 13L7 13L7 12ZM10 12L10 13L12 13L12 12ZM18 14L18 15L19 15L19 14ZM16 15L16 16L15 16L15 19L17 19L17 18L18 18L18 17L16 17L16 16L17 16L17 15ZM13 19L13 20L14 20L14 19ZM20 19L20 20L21 20L21 19ZM0 0L0 7L7 7L7 0ZM1 1L1 6L6 6L6 1ZM2 2L2 5L5 5L5 2ZM14 0L14 7L21 7L21 0ZM15 1L15 6L20 6L20 1ZM16 2L16 5L19 5L19 2ZM0 14L0 21L7 21L7 14ZM1 15L1 20L6 20L6 15ZM2 16L2 19L5 19L5 16Z" fill="#000000"/></g></g></svg>
