<?xml version="1.0" encoding="UTF-8"?>
<svg xmlns="http://www.w3.org/2000/svg" version="1.1" width="500" height="500" viewBox="0 0 500 500"><rect x="0" y="0" width="500" height="500" fill="#ffffcc"/><g transform="scale(23.81)"><g transform="translate(0,0)"><path fill-rule="evenodd" d="M10 0L10 1L8 1L8 2L10 2L10 3L8 3L8 4L9 4L9 5L8 5L8 7L9 7L9 8L6 8L6 9L5 9L5 8L0 8L0 9L2 9L2 11L3 11L3 12L0 12L0 13L3 13L3 12L4 12L4 13L8 13L8 15L9 15L9 16L8 16L8 21L9 21L9 19L10 19L10 20L11 20L11 19L12 19L12 20L14 20L14 21L16 21L16 20L14 20L14 19L13 19L13 18L14 18L14 17L15 17L15 18L17 18L17 20L19 20L19 21L20 21L20 20L19 20L19 19L18 19L18 18L17 18L17 16L19 16L19 17L21 17L21 15L19 15L19 14L18 14L18 13L15 13L15 12L16 12L16 11L15 11L15 10L14 10L14 11L13 11L13 10L10 10L10 11L12 11L12 12L13 12L13 13L14 13L14 14L11 14L11 19L10 19L10 15L9 15L9 14L10 14L10 13L11 13L11 12L9 12L9 11L8 11L8 12L4 12L4 11L7 11L7 10L8 10L8 9L9 9L9 8L10 8L10 7L11 7L11 8L12 8L12 9L14 9L14 8L13 8L13 5L12 5L12 7L11 7L11 6L10 6L10 7L9 7L9 5L10 5L10 3L11 3L11 0ZM12 0L12 2L13 2L13 0ZM12 3L12 4L13 4L13 3ZM15 8L15 9L16 9L16 10L17 10L17 12L19 12L19 11L20 11L20 12L21 12L21 11L20 11L20 10L21 10L21 9L20 9L20 8L19 8L19 9L18 9L18 8L17 8L17 9L16 9L16 8ZM4 9L4 10L5 10L5 9ZM6 9L6 10L7 10L7 9ZM17 9L17 10L18 10L18 9ZM19 9L19 10L20 10L20 9ZM14 11L14 12L15 12L15 11ZM8 12L8 13L9 13L9 12ZM20 13L20 14L21 14L21 13ZM14 14L14 16L13 16L13 17L12 17L12 18L13 18L13 17L14 17L14 16L15 16L15 17L16 17L16 16L15 16L15 15L18 15L18 14ZM0 0L0 7L7 7L7 0ZM1 1L1 6L6 6L6 1ZM2 2L2 5L5 5L5 2ZM14 0L14 7L21 7L21 0ZM15 1L15 6L20 6L20 1ZM16 2L16 5L19 5L19 2ZM0 14L0 21L7 21L7 14ZM1 15L1 20L6 20L6 15ZM2 16L2 19L5 19L5 16Z" fill="#000000"/></g></g></svg>
