<?xml version="1.0" encoding="UTF-8"?>
<svg xmlns="http://www.w3.org/2000/svg" version="1.1" width="500" height="500" viewBox="0 0 500 500"><rect x="0" y="0" width="500" height="500" fill="#ffffcc"/><g transform="scale(20)"><g transform="translate(0,0)"><path fill-rule="evenodd" d="M8 0L8 4L10 4L10 3L11 3L11 4L12 4L12 2L11 2L11 0ZM12 0L12 1L13 1L13 0ZM15 0L15 1L14 1L14 2L15 2L15 3L13 3L13 5L11 5L11 6L10 6L10 7L9 7L9 5L8 5L8 7L9 7L9 8L10 8L10 7L11 7L11 6L12 6L12 8L11 8L11 9L9 9L9 10L8 10L8 11L7 11L7 10L6 10L6 11L5 11L5 9L7 9L7 8L4 8L4 10L3 10L3 9L2 9L2 8L0 8L0 9L1 9L1 10L0 10L0 11L2 11L2 10L3 10L3 11L4 11L4 12L3 12L3 13L2 13L2 12L0 12L0 14L1 14L1 13L2 13L2 16L0 16L0 17L2 17L2 16L3 16L3 17L4 17L4 15L5 15L5 17L7 17L7 16L8 16L8 18L9 18L9 16L10 16L10 15L11 15L11 14L9 14L9 13L8 13L8 11L9 11L9 10L11 10L11 11L10 11L10 13L11 13L11 12L12 12L12 13L13 13L13 14L14 14L14 16L15 16L15 17L12 17L12 16L13 16L13 15L12 15L12 16L11 16L11 17L10 17L10 19L11 19L11 20L9 20L9 19L8 19L8 21L11 21L11 20L12 20L12 21L13 21L13 23L12 23L12 24L11 24L11 25L16 25L16 23L15 23L15 24L13 24L13 23L14 23L14 22L16 22L16 21L17 21L17 23L18 23L18 24L17 24L17 25L19 25L19 24L21 24L21 23L22 23L22 25L25 25L25 24L24 24L24 22L25 22L25 19L24 19L24 18L22 18L22 21L23 21L23 23L22 23L22 22L21 22L21 23L20 23L20 22L19 22L19 21L21 21L21 16L20 16L20 14L21 14L21 15L22 15L22 17L23 17L23 16L24 16L24 17L25 17L25 15L23 15L23 9L25 9L25 8L21 8L21 9L20 9L20 8L19 8L19 9L20 9L20 10L21 10L21 11L22 11L22 13L20 13L20 14L18 14L18 16L17 16L17 15L16 15L16 14L17 14L17 13L19 13L19 12L20 12L20 11L19 11L19 10L18 10L18 11L19 11L19 12L17 12L17 11L16 11L16 10L17 10L17 9L16 9L16 8L15 8L15 5L17 5L17 3L16 3L16 2L15 2L15 1L17 1L17 0ZM9 2L9 3L10 3L10 2ZM13 6L13 8L12 8L12 9L11 9L11 10L12 10L12 9L13 9L13 11L12 11L12 12L13 12L13 13L17 13L17 12L14 12L14 11L15 11L15 8L14 8L14 6ZM16 6L16 7L17 7L17 6ZM6 11L6 12L4 12L4 13L6 13L6 14L7 14L7 15L6 15L6 16L7 16L7 15L8 15L8 16L9 16L9 14L7 14L7 13L6 13L6 12L7 12L7 11ZM24 12L24 13L25 13L25 12ZM11 17L11 18L12 18L12 17ZM17 17L17 20L20 20L20 17ZM13 18L13 19L12 19L12 20L13 20L13 21L14 21L14 20L15 20L15 21L16 21L16 18L15 18L15 19L14 19L14 18ZM18 18L18 19L19 19L19 18ZM23 19L23 20L24 20L24 19ZM9 22L9 23L8 23L8 25L10 25L10 22ZM0 0L0 7L7 7L7 0ZM1 1L1 6L6 6L6 1ZM2 2L2 5L5 5L5 2ZM18 0L18 7L25 7L25 0ZM19 1L19 6L24 6L24 1ZM20 2L20 5L23 5L23 2ZM0 18L0 25L7 25L7 18ZM1 19L1 24L6 24L6 19ZM2 20L2 23L5 23L5 20Z" fill="#000000"/></g></g></svg>
