<?xml version="1.0" encoding="UTF-8"?>
<svg xmlns="http://www.w3.org/2000/svg" version="1.1" width="500" height="500" viewBox="0 0 500 500"><rect x="0" y="0" width="500" height="500" fill="#ffffcc"/><g transform="scale(20)"><g transform="translate(0,0)"><path fill-rule="evenodd" d="M9 0L9 1L11 1L11 2L9 2L9 3L8 3L8 5L9 5L9 6L8 6L8 7L9 7L9 9L8 9L8 8L5 8L5 9L2 9L2 8L0 8L0 9L1 9L1 10L3 10L3 11L2 11L2 12L1 12L1 11L0 11L0 17L1 17L1 14L3 14L3 15L2 15L2 16L3 16L3 17L4 17L4 16L3 16L3 15L4 15L4 14L5 14L5 13L4 13L4 12L5 12L5 10L6 10L6 11L8 11L8 12L9 12L9 14L11 14L11 12L12 12L12 11L14 11L14 10L15 10L15 12L13 12L13 13L12 13L12 14L13 14L13 15L12 15L12 17L13 17L13 16L14 16L14 17L15 17L15 15L16 15L16 14L17 14L17 13L16 13L16 11L17 11L17 10L18 10L18 11L19 11L19 12L18 12L18 13L19 13L19 14L18 14L18 15L17 15L17 16L16 16L16 19L15 19L15 18L12 18L12 19L11 19L11 20L10 20L10 18L9 18L9 17L11 17L11 15L9 15L9 17L8 17L8 20L9 20L9 22L10 22L10 25L14 25L14 23L15 23L15 22L17 22L17 23L16 23L16 25L18 25L18 24L21 24L21 25L22 25L22 22L24 22L24 25L25 25L25 18L22 18L22 17L23 17L23 15L25 15L25 14L22 14L22 15L21 15L21 14L20 14L20 13L19 13L19 12L20 12L20 11L19 11L19 10L21 10L21 9L22 9L22 10L23 10L23 11L25 11L25 10L23 10L23 9L22 9L22 8L20 8L20 9L19 9L19 10L18 10L18 9L17 9L17 6L16 6L16 8L15 8L15 6L14 6L14 8L13 8L13 6L12 6L12 9L14 9L14 10L11 10L11 8L10 8L10 7L11 7L11 4L12 4L12 5L15 5L15 4L16 4L16 5L17 5L17 1L16 1L16 3L15 3L15 4L14 4L14 3L13 3L13 4L12 4L12 2L14 2L14 0L13 0L13 1L12 1L12 0ZM9 3L9 5L10 5L10 3ZM9 6L9 7L10 7L10 6ZM14 8L14 9L15 9L15 8ZM6 9L6 10L8 10L8 11L9 11L9 12L10 12L10 11L11 11L11 10L10 10L10 9L9 9L9 10L8 10L8 9ZM16 9L16 10L17 10L17 9ZM9 10L9 11L10 11L10 10ZM3 11L3 12L4 12L4 11ZM21 11L21 12L22 12L22 11ZM6 12L6 13L7 13L7 14L6 14L6 15L8 15L8 13L7 13L7 12ZM23 12L23 13L25 13L25 12ZM14 13L14 14L15 14L15 13ZM19 14L19 15L20 15L20 16L21 16L21 15L20 15L20 14ZM5 16L5 17L7 17L7 16ZM24 16L24 17L25 17L25 16ZM17 17L17 20L20 20L20 17ZM18 18L18 19L19 19L19 18ZM21 18L21 19L22 19L22 20L24 20L24 19L22 19L22 18ZM12 19L12 21L10 21L10 22L11 22L11 24L12 24L12 23L13 23L13 22L12 22L12 21L14 21L14 22L15 22L15 20L14 20L14 19ZM19 21L19 22L18 22L18 23L19 23L19 22L20 22L20 23L21 23L21 21ZM8 23L8 25L9 25L9 23ZM0 0L0 7L7 7L7 0ZM1 1L1 6L6 6L6 1ZM2 2L2 5L5 5L5 2ZM18 0L18 7L25 7L25 0ZM19 1L19 6L24 6L24 1ZM20 2L20 5L23 5L23 2ZM0 18L0 25L7 25L7 18ZM1 19L1 24L6 24L6 19ZM2 20L2 23L5 23L5 20Z" fill="#000000"/></g></g></svg>
