<?xml version="1.0" encoding="UTF-8"?>
<svg xmlns="http://www.w3.org/2000/svg" version="1.1" width="500" height="500" viewBox="0 0 500 500"><rect x="0" y="0" width="500" height="500" fill="#ffffcc"/><g transform="scale(23.81)"><g transform="translate(0,0)"><path fill-rule="evenodd" d="M9 0L9 3L8 3L8 5L10 5L10 7L11 7L11 8L12 8L12 9L13 9L13 10L11 10L11 11L12 11L12 12L10 12L10 11L9 11L9 10L10 10L10 8L9 8L9 9L8 9L8 8L5 8L5 9L4 9L4 10L6 10L6 11L3 11L3 9L2 9L2 8L0 8L0 9L2 9L2 11L1 11L1 12L0 12L0 13L1 13L1 12L2 12L2 11L3 11L3 12L6 12L6 13L7 13L7 12L6 12L6 11L8 11L8 12L10 12L10 13L8 13L8 16L9 16L9 17L10 17L10 18L9 18L9 19L8 19L8 21L9 21L9 20L10 20L10 18L12 18L12 19L11 19L11 20L14 20L14 21L16 21L16 20L17 20L17 21L18 21L18 20L19 20L19 21L20 21L20 20L19 20L19 19L21 19L21 18L20 18L20 17L18 17L18 16L21 16L21 15L19 15L19 13L20 13L20 14L21 14L21 11L20 11L20 10L19 10L19 9L18 9L18 8L16 8L16 9L15 9L15 10L14 10L14 9L13 9L13 5L12 5L12 4L13 4L13 3L12 3L12 2L13 2L13 1L12 1L12 0L11 0L11 5L10 5L10 4L9 4L9 3L10 3L10 0ZM8 6L8 7L9 7L9 6ZM11 6L11 7L12 7L12 6ZM6 9L6 10L7 10L7 9ZM17 9L17 10L15 10L15 11L14 11L14 13L15 13L15 14L14 14L14 15L17 15L17 14L18 14L18 13L19 13L19 12L20 12L20 11L19 11L19 10L18 10L18 9ZM17 11L17 13L16 13L16 14L17 14L17 13L18 13L18 12L19 12L19 11ZM12 12L12 13L10 13L10 14L9 14L9 15L11 15L11 16L10 16L10 17L11 17L11 16L12 16L12 15L11 15L11 14L13 14L13 12ZM13 16L13 17L12 17L12 18L14 18L14 16ZM15 16L15 19L14 19L14 20L15 20L15 19L16 19L16 17L17 17L17 19L19 19L19 18L18 18L18 17L17 17L17 16ZM0 0L0 7L7 7L7 0ZM1 1L1 6L6 6L6 1ZM2 2L2 5L5 5L5 2ZM14 0L14 7L21 7L21 0ZM15 1L15 6L20 6L20 1ZM16 2L16 5L19 5L19 2ZM0 14L0 21L7 21L7 14ZM1 15L1 20L6 20L6 15ZM2 16L2 19L5 19L5 16Z" fill="#000000"/></g></g></svg>
