<?xml version="1.0" encoding="UTF-8"?>
<svg xmlns="http://www.w3.org/2000/svg" version="1.1" width="500" height="500" viewBox="0 0 500 500"><rect x="0" y="0" width="500" height="500" fill="#ffffcc"/><g transform="scale(20)"><g transform="translate(0,0)"><path fill-rule="evenodd" d="M8 0L8 4L10 4L10 3L11 3L11 4L12 4L12 2L11 2L11 0ZM12 0L12 1L14 1L14 2L15 2L15 4L14 4L14 3L13 3L13 5L11 5L11 6L10 6L10 7L9 7L9 5L8 5L8 7L9 7L9 8L10 8L10 7L11 7L11 6L12 6L12 8L11 8L11 9L9 9L9 10L8 10L8 9L7 9L7 8L4 8L4 10L1 10L1 9L2 9L2 8L0 8L0 10L1 10L1 11L4 11L4 13L9 13L9 10L11 10L11 11L10 11L10 13L11 13L11 12L12 12L12 13L13 13L13 14L15 14L15 15L14 15L14 16L13 16L13 15L12 15L12 16L11 16L11 15L9 15L9 14L5 14L5 15L4 15L4 14L3 14L3 13L2 13L2 16L0 16L0 17L2 17L2 16L3 16L3 17L4 17L4 16L6 16L6 17L7 17L7 16L6 16L6 15L9 15L9 17L8 17L8 18L9 18L9 17L12 17L12 18L11 18L11 20L12 20L12 21L13 21L13 22L16 22L16 23L14 23L14 24L13 24L13 23L12 23L12 24L11 24L11 21L10 21L10 20L9 20L9 19L8 19L8 21L10 21L10 23L8 23L8 25L10 25L10 24L11 24L11 25L12 25L12 24L13 24L13 25L16 25L16 23L19 23L19 24L18 24L18 25L21 25L21 24L20 24L20 23L19 23L19 22L20 22L20 21L23 21L23 23L22 23L22 22L21 22L21 23L22 23L22 25L25 25L25 24L24 24L24 22L25 22L25 19L24 19L24 18L22 18L22 20L21 20L21 13L20 13L20 15L19 15L19 14L17 14L17 13L19 13L19 12L17 12L17 11L16 11L16 10L17 10L17 9L15 9L15 8L16 8L16 7L17 7L17 6L16 6L16 7L15 7L15 5L17 5L17 3L16 3L16 2L17 2L17 0L15 0L15 1L14 1L14 0ZM15 1L15 2L16 2L16 1ZM9 2L9 3L10 3L10 2ZM13 5L13 8L12 8L12 9L11 9L11 10L12 10L12 9L13 9L13 10L14 10L14 9L13 9L13 8L15 8L15 7L14 7L14 5ZM19 8L19 9L20 9L20 10L19 10L19 11L22 11L22 17L23 17L23 16L24 16L24 17L25 17L25 15L23 15L23 9L25 9L25 8L21 8L21 9L20 9L20 8ZM6 9L6 10L4 10L4 11L6 11L6 12L8 12L8 11L6 11L6 10L7 10L7 9ZM21 9L21 10L22 10L22 9ZM12 11L12 12L13 12L13 11ZM14 11L14 13L17 13L17 12L15 12L15 11ZM24 11L24 13L25 13L25 11ZM0 13L0 14L1 14L1 13ZM3 15L3 16L4 16L4 15ZM15 15L15 16L19 16L19 15ZM12 16L12 17L13 17L13 18L15 18L15 19L14 19L14 21L16 21L16 22L17 22L17 21L16 21L16 17L13 17L13 16ZM17 17L17 20L20 20L20 17ZM18 18L18 19L19 19L19 18ZM12 19L12 20L13 20L13 19ZM23 19L23 21L24 21L24 19ZM0 0L0 7L7 7L7 0ZM1 1L1 6L6 6L6 1ZM2 2L2 5L5 5L5 2ZM18 0L18 7L25 7L25 0ZM19 1L19 6L24 6L24 1ZM20 2L20 5L23 5L23 2ZM0 18L0 25L7 25L7 18ZM1 19L1 24L6 24L6 19ZM2 20L2 23L5 23L5 20Z" fill="#000000"/></g></g></svg>
