<?xml version="1.0" encoding="UTF-8"?>
<svg xmlns="http://www.w3.org/2000/svg" version="1.1" width="500" height="500" viewBox="0 0 500 500"><rect x="0" y="0" width="500" height="500" fill="#ffffcc"/><g transform="scale(23.81)"><g transform="translate(0,0)"><path fill-rule="evenodd" d="M8 0L8 4L9 4L9 5L8 5L8 7L9 7L9 5L10 5L10 7L11 7L11 5L12 5L12 7L13 7L13 2L12 2L12 1L13 1L13 0L12 0L12 1L11 1L11 2L10 2L10 1L9 1L9 0ZM9 3L9 4L10 4L10 3ZM11 3L11 4L12 4L12 3ZM0 8L0 9L1 9L1 10L0 10L0 13L1 13L1 12L2 12L2 13L5 13L5 12L6 12L6 13L8 13L8 14L9 14L9 15L8 15L8 17L9 17L9 19L8 19L8 21L9 21L9 19L10 19L10 17L11 17L11 15L12 15L12 14L13 14L13 15L14 15L14 14L15 14L15 13L14 13L14 11L15 11L15 10L14 10L14 11L13 11L13 8L12 8L12 11L10 11L10 10L11 10L11 9L9 9L9 10L8 10L8 11L10 11L10 13L8 13L8 12L6 12L6 11L7 11L7 10L5 10L5 9L7 9L7 8L4 8L4 9L2 9L2 8ZM15 8L15 9L16 9L16 12L17 12L17 11L18 11L18 10L19 10L19 11L20 11L20 12L19 12L19 13L16 13L16 15L15 15L15 17L14 17L14 16L12 16L12 19L11 19L11 20L10 20L10 21L12 21L12 20L13 20L13 21L16 21L16 20L17 20L17 21L18 21L18 19L17 19L17 18L21 18L21 17L20 17L20 16L21 16L21 15L20 15L20 16L19 16L19 17L16 17L16 16L17 16L17 14L20 14L20 13L21 13L21 11L20 11L20 9L21 9L21 8L17 8L17 9L16 9L16 8ZM1 10L1 11L2 11L2 12L4 12L4 10L3 10L3 11L2 11L2 10ZM12 12L12 13L13 13L13 12ZM10 14L10 15L9 15L9 17L10 17L10 15L11 15L11 14ZM15 17L15 19L14 19L14 18L13 18L13 20L15 20L15 19L16 19L16 17ZM20 20L20 21L21 21L21 20ZM0 0L0 7L7 7L7 0ZM1 1L1 6L6 6L6 1ZM2 2L2 5L5 5L5 2ZM14 0L14 7L21 7L21 0ZM15 1L15 6L20 6L20 1ZM16 2L16 5L19 5L19 2ZM0 14L0 21L7 21L7 14ZM1 15L1 20L6 20L6 15ZM2 16L2 19L5 19L5 16Z" fill="#000000"/></g></g></svg>
