<?xml version="1.0" encoding="UTF-8"?>
<svg xmlns="http://www.w3.org/2000/svg" version="1.1" width="500" height="500" viewBox="0 0 500 500"><rect x="0" y="0" width="500" height="500" fill="#ffffcc"/><g transform="scale(20)"><g transform="translate(0,0)"><path fill-rule="evenodd" d="M8 0L8 4L10 4L10 3L11 3L11 4L12 4L12 2L11 2L11 0ZM12 0L12 1L13 1L13 2L14 2L14 3L13 3L13 4L14 4L14 5L17 5L17 3L16 3L16 2L15 2L15 1L17 1L17 0L14 0L14 1L13 1L13 0ZM9 2L9 3L10 3L10 2ZM15 3L15 4L16 4L16 3ZM8 5L8 7L9 7L9 8L10 8L10 7L11 7L11 6L12 6L12 8L11 8L11 9L9 9L9 10L8 10L8 9L7 9L7 8L4 8L4 9L2 9L2 8L0 8L0 9L1 9L1 10L2 10L2 11L0 11L0 14L4 14L4 13L5 13L5 12L6 12L6 13L8 13L8 12L9 12L9 10L11 10L11 11L10 11L10 13L11 13L11 12L12 12L12 13L13 13L13 15L12 15L12 16L11 16L11 14L9 14L9 15L8 15L8 14L6 14L6 15L2 15L2 16L0 16L0 17L2 17L2 16L5 16L5 17L7 17L7 16L6 16L6 15L8 15L8 16L9 16L9 17L8 17L8 18L10 18L10 16L11 16L11 17L12 17L12 18L11 18L11 20L10 20L10 21L9 21L9 19L8 19L8 21L9 21L9 23L8 23L8 25L9 25L9 23L10 23L10 24L11 24L11 25L12 25L12 24L13 24L13 25L16 25L16 21L17 21L17 23L19 23L19 24L17 24L17 25L25 25L25 24L24 24L24 22L25 22L25 20L23 20L23 19L24 19L24 18L22 18L22 17L23 17L23 16L24 16L24 17L25 17L25 15L22 15L22 14L23 14L23 13L25 13L25 12L24 12L24 11L23 11L23 10L22 10L22 9L25 9L25 8L21 8L21 9L20 9L20 8L19 8L19 9L20 9L20 10L22 10L22 13L20 13L20 12L21 12L21 11L19 11L19 10L17 10L17 9L14 9L14 10L13 10L13 9L12 9L12 8L13 8L13 5L11 5L11 6L10 6L10 7L9 7L9 5ZM14 6L14 7L15 7L15 6ZM16 6L16 8L17 8L17 6ZM5 9L5 10L7 10L7 9ZM11 9L11 10L12 10L12 9ZM3 10L3 11L2 11L2 12L1 12L1 13L2 13L2 12L3 12L3 13L4 13L4 12L5 12L5 11L4 11L4 10ZM14 10L14 11L12 11L12 12L13 12L13 13L14 13L14 11L15 11L15 10ZM16 10L16 11L17 11L17 12L15 12L15 13L17 13L17 15L15 15L15 14L14 14L14 15L13 15L13 16L12 16L12 17L13 17L13 18L14 18L14 17L13 17L13 16L17 16L17 15L20 15L20 16L22 16L22 15L21 15L21 14L20 14L20 13L17 13L17 12L19 12L19 11L17 11L17 10ZM3 11L3 12L4 12L4 11ZM6 11L6 12L8 12L8 11ZM9 15L9 16L10 16L10 15ZM15 17L15 19L14 19L14 21L16 21L16 17ZM17 17L17 20L20 20L20 17ZM18 18L18 19L19 19L19 18ZM12 19L12 20L11 20L11 22L10 22L10 23L11 23L11 24L12 24L12 23L13 23L13 24L14 24L14 23L15 23L15 22L13 22L13 21L12 21L12 20L13 20L13 19ZM21 19L21 21L19 21L19 22L20 22L20 23L21 23L21 24L22 24L22 19ZM0 0L0 7L7 7L7 0ZM1 1L1 6L6 6L6 1ZM2 2L2 5L5 5L5 2ZM18 0L18 7L25 7L25 0ZM19 1L19 6L24 6L24 1ZM20 2L20 5L23 5L23 2ZM0 18L0 25L7 25L7 18ZM1 19L1 24L6 24L6 19ZM2 20L2 23L5 23L5 20Z" fill="#000000"/></g></g></svg>
