<?xml version="1.0" encoding="UTF-8"?>
<svg xmlns="http://www.w3.org/2000/svg" version="1.1" width="500" height="500" viewBox="0 0 500 500"><rect x="0" y="0" width="500" height="500" fill="#ffffcc"/><g transform="scale(23.81)"><g transform="translate(0,0)"><path fill-rule="evenodd" d="M12 0L12 2L11 2L11 1L10 1L10 4L9 4L9 3L8 3L8 5L9 5L9 6L8 6L8 7L9 7L9 6L10 6L10 7L11 7L11 6L12 6L12 7L13 7L13 6L12 6L12 5L13 5L13 0ZM11 3L11 4L10 4L10 6L11 6L11 5L12 5L12 3ZM0 8L0 9L1 9L1 10L2 10L2 11L5 11L5 12L6 12L6 13L8 13L8 16L9 16L9 17L10 17L10 16L11 16L11 17L12 17L12 18L9 18L9 19L8 19L8 21L10 21L10 19L14 19L14 18L13 18L13 17L12 17L12 16L11 16L11 15L12 15L12 14L13 14L13 12L14 12L14 11L13 11L13 10L15 10L15 9L12 9L12 8L11 8L11 10L8 10L8 8L5 8L5 9L7 9L7 10L4 10L4 9L3 9L3 10L2 10L2 8ZM16 8L16 9L17 9L17 10L18 10L18 11L16 11L16 12L17 12L17 13L16 13L16 14L15 14L15 13L14 13L14 14L15 14L15 15L13 15L13 16L14 16L14 17L16 17L16 21L17 21L17 20L19 20L19 21L20 21L20 20L19 20L19 19L21 19L21 18L19 18L19 17L18 17L18 19L17 19L17 17L16 17L16 16L20 16L20 17L21 17L21 16L20 16L20 15L19 15L19 14L17 14L17 13L18 13L18 12L19 12L19 13L20 13L20 14L21 14L21 11L20 11L20 10L19 10L19 9L18 9L18 8ZM7 10L7 11L6 11L6 12L8 12L8 13L9 13L9 16L10 16L10 14L12 14L12 13L11 13L11 12L10 12L10 11L8 11L8 10ZM11 10L11 11L12 11L12 10ZM19 11L19 12L20 12L20 11ZM2 12L2 13L3 13L3 12ZM9 12L9 13L10 13L10 12ZM16 14L16 15L17 15L17 14ZM12 20L12 21L13 21L13 20ZM14 20L14 21L15 21L15 20ZM0 0L0 7L7 7L7 0ZM1 1L1 6L6 6L6 1ZM2 2L2 5L5 5L5 2ZM14 0L14 7L21 7L21 0ZM15 1L15 6L20 6L20 1ZM16 2L16 5L19 5L19 2ZM0 14L0 21L7 21L7 14ZM1 15L1 20L6 20L6 15ZM2 16L2 19L5 19L5 16Z" fill="#000000"/></g></g></svg>
