<?xml version="1.0" encoding="UTF-8"?>
<svg xmlns="http://www.w3.org/2000/svg" version="1.1" width="500" height="500" viewBox="0 0 500 500"><rect x="0" y="0" width="500" height="500" fill="#ffffcc"/><g transform="scale(23.81)"><g transform="translate(0,0)"><path fill-rule="evenodd" d="M8 0L8 1L9 1L9 0ZM10 0L10 2L8 2L8 5L9 5L9 6L8 6L8 7L9 7L9 6L10 6L10 7L11 7L11 8L8 8L8 9L7 9L7 8L6 8L6 9L7 9L7 10L6 10L6 11L9 11L9 12L8 12L8 14L9 14L9 12L11 12L11 11L12 11L12 13L11 13L11 14L10 14L10 15L11 15L11 17L10 17L10 16L9 16L9 17L8 17L8 21L11 21L11 19L13 19L13 21L16 21L16 20L17 20L17 19L15 19L15 18L13 18L13 17L14 17L14 15L15 15L15 17L17 17L17 18L18 18L18 19L19 19L19 18L20 18L20 14L19 14L19 13L18 13L18 14L17 14L17 12L18 12L18 10L19 10L19 12L21 12L21 8L20 8L20 10L19 10L19 8L16 8L16 9L15 9L15 10L14 10L14 8L13 8L13 5L12 5L12 4L13 4L13 3L12 3L12 1L13 1L13 0ZM10 2L10 4L9 4L9 5L11 5L11 4L12 4L12 3L11 3L11 2ZM11 6L11 7L12 7L12 6ZM0 8L0 10L1 10L1 9L4 9L4 10L2 10L2 11L0 11L0 13L1 13L1 12L2 12L2 11L4 11L4 10L5 10L5 9L4 9L4 8ZM9 9L9 11L10 11L10 10L12 10L12 11L13 11L13 12L16 12L16 11L17 11L17 10L16 10L16 11L13 11L13 10L12 10L12 9ZM5 12L5 13L7 13L7 12ZM13 13L13 14L11 14L11 15L13 15L13 14L14 14L14 13ZM15 13L15 14L16 14L16 13ZM17 16L17 17L18 17L18 18L19 18L19 17L18 17L18 16ZM9 19L9 20L10 20L10 19ZM20 19L20 20L21 20L21 19ZM18 20L18 21L19 21L19 20ZM0 0L0 7L7 7L7 0ZM1 1L1 6L6 6L6 1ZM2 2L2 5L5 5L5 2ZM14 0L14 7L21 7L21 0ZM15 1L15 6L20 6L20 1ZM16 2L16 5L19 5L19 2ZM0 14L0 21L7 21L7 14ZM1 15L1 20L6 20L6 15ZM2 16L2 19L5 19L5 16Z" fill="#000000"/></g></g></svg>
