<?xml version="1.0" encoding="UTF-8"?>
<svg xmlns="http://www.w3.org/2000/svg" version="1.1" width="500" height="500" viewBox="0 0 500 500"><rect x="0" y="0" width="500" height="500" fill="#ffffcc"/><g transform="scale(20)"><g transform="translate(0,0)"><path fill-rule="evenodd" d="M9 0L9 1L8 1L8 3L9 3L9 4L8 4L8 8L6 8L6 9L4 9L4 8L3 8L3 9L2 9L2 8L0 8L0 12L1 12L1 14L0 14L0 15L1 15L1 16L0 16L0 17L2 17L2 15L1 15L1 14L2 14L2 11L3 11L3 13L4 13L4 12L5 12L5 11L7 11L7 12L6 12L6 13L7 13L7 14L6 14L6 15L5 15L5 14L3 14L3 15L4 15L4 17L8 17L8 19L10 19L10 18L9 18L9 17L10 17L10 16L11 16L11 18L13 18L13 16L14 16L14 15L15 15L15 14L11 14L11 13L10 13L10 14L8 14L8 13L9 13L9 11L11 11L11 12L12 12L12 13L14 13L14 12L15 12L15 13L17 13L17 14L16 14L16 15L17 15L17 14L20 14L20 15L19 15L19 16L15 16L15 17L14 17L14 20L12 20L12 19L11 19L11 20L10 20L10 22L9 22L9 21L8 21L8 22L9 22L9 23L8 23L8 25L14 25L14 23L15 23L15 22L17 22L17 21L20 21L20 24L17 24L17 23L16 23L16 24L15 24L15 25L22 25L22 24L21 24L21 23L23 23L23 21L24 21L24 20L25 20L25 9L24 9L24 8L22 8L22 9L21 9L21 8L18 8L18 9L16 9L16 12L15 12L15 11L13 11L13 10L14 10L14 9L15 9L15 8L16 8L16 7L17 7L17 2L16 2L16 0L12 0L12 1L11 1L11 2L9 2L9 1L10 1L10 0ZM13 1L13 3L12 3L12 4L9 4L9 5L10 5L10 6L9 6L9 7L10 7L10 8L8 8L8 10L7 10L7 9L6 9L6 10L7 10L7 11L8 11L8 10L10 10L10 8L11 8L11 9L12 9L12 10L11 10L11 11L12 11L12 12L13 12L13 11L12 11L12 10L13 10L13 9L12 9L12 6L13 6L13 8L14 8L14 6L15 6L15 7L16 7L16 6L15 6L15 5L14 5L14 2L15 2L15 3L16 3L16 2L15 2L15 1ZM11 5L11 6L10 6L10 7L11 7L11 6L12 6L12 5ZM1 9L1 10L2 10L2 9ZM3 9L3 11L5 11L5 10L4 10L4 9ZM19 9L19 10L18 10L18 11L17 11L17 12L19 12L19 13L20 13L20 14L21 14L21 13L22 13L22 14L23 14L23 15L21 15L21 16L23 16L23 17L22 17L22 18L21 18L21 22L22 22L22 21L23 21L23 20L24 20L24 16L23 16L23 15L24 15L24 14L23 14L23 12L24 12L24 11L23 11L23 9L22 9L22 11L21 11L21 12L19 12L19 11L20 11L20 10L21 10L21 9ZM7 12L7 13L8 13L8 12ZM10 14L10 15L11 15L11 14ZM6 15L6 16L8 16L8 17L9 17L9 15ZM15 17L15 18L16 18L16 17ZM17 17L17 20L20 20L20 17ZM18 18L18 19L19 19L19 18ZM15 19L15 21L14 21L14 22L12 22L12 21L11 21L11 22L10 22L10 23L9 23L9 24L10 24L10 23L11 23L11 24L13 24L13 23L14 23L14 22L15 22L15 21L16 21L16 19ZM22 19L22 20L23 20L23 19ZM24 22L24 23L25 23L25 22ZM23 24L23 25L25 25L25 24ZM0 0L0 7L7 7L7 0ZM1 1L1 6L6 6L6 1ZM2 2L2 5L5 5L5 2ZM18 0L18 7L25 7L25 0ZM19 1L19 6L24 6L24 1ZM20 2L20 5L23 5L23 2ZM0 18L0 25L7 25L7 18ZM1 19L1 24L6 24L6 19ZM2 20L2 23L5 23L5 20Z" fill="#000000"/></g></g></svg>
