<?xml version="1.0" encoding="UTF-8"?>
<svg xmlns="http://www.w3.org/2000/svg" version="1.1" width="500" height="500" viewBox="0 0 500 500"><rect x="0" y="0" width="500" height="500" fill="#ffffcc"/><g transform="scale(20)"><g transform="translate(0,0)"><path fill-rule="evenodd" d="M8 0L8 4L9 4L9 5L8 5L8 7L9 7L9 6L10 6L10 9L11 9L11 8L12 8L12 9L13 9L13 11L12 11L12 12L11 12L11 13L7 13L7 12L6 12L6 13L7 13L7 14L5 14L5 13L4 13L4 14L3 14L3 11L8 11L8 9L7 9L7 8L4 8L4 9L2 9L2 8L0 8L0 9L2 9L2 10L1 10L1 11L0 11L0 12L1 12L1 11L2 11L2 16L0 16L0 17L2 17L2 16L4 16L4 17L5 17L5 16L6 16L6 17L7 17L7 16L8 16L8 18L9 18L9 17L11 17L11 18L10 18L10 19L8 19L8 21L9 21L9 22L10 22L10 23L8 23L8 25L9 25L9 24L12 24L12 25L13 25L13 24L12 24L12 23L13 23L13 22L12 22L12 21L13 21L13 19L14 19L14 20L15 20L15 19L14 19L14 18L16 18L16 21L14 21L14 22L15 22L15 23L14 23L14 24L15 24L15 25L16 25L16 24L15 24L15 23L17 23L17 25L18 25L18 24L21 24L21 25L22 25L22 24L23 24L23 25L25 25L25 24L24 24L24 22L25 22L25 21L23 21L23 20L25 20L25 19L24 19L24 18L23 18L23 16L24 16L24 17L25 17L25 15L22 15L22 14L23 14L23 13L25 13L25 11L23 11L23 10L24 10L24 9L25 9L25 8L21 8L21 9L20 9L20 8L19 8L19 9L20 9L20 10L22 10L22 13L20 13L20 12L21 12L21 11L19 11L19 12L17 12L17 11L18 11L18 10L17 10L17 6L16 6L16 9L13 9L13 8L12 8L12 7L13 7L13 6L12 6L12 7L11 7L11 3L10 3L10 2L9 2L9 0ZM14 0L14 1L17 1L17 0ZM11 1L11 2L12 2L12 5L16 5L16 4L17 4L17 3L16 3L16 4L15 4L15 2L14 2L14 3L13 3L13 1ZM14 6L14 7L15 7L15 6ZM4 9L4 10L5 10L5 9ZM6 9L6 10L7 10L7 9ZM22 9L22 10L23 10L23 9ZM9 10L9 12L10 12L10 11L11 11L11 10ZM16 10L16 11L17 11L17 10ZM13 11L13 14L12 14L12 13L11 13L11 14L10 14L10 16L11 16L11 17L12 17L12 16L13 16L13 17L16 17L16 16L18 16L18 15L19 15L19 16L21 16L21 20L22 20L22 19L23 19L23 18L22 18L22 15L20 15L20 13L17 13L17 12L15 12L15 11ZM0 13L0 14L1 14L1 13ZM14 13L14 14L15 14L15 15L14 15L14 16L16 16L16 15L18 15L18 14L17 14L17 13ZM4 14L4 15L5 15L5 14ZM7 14L7 15L6 15L6 16L7 16L7 15L8 15L8 16L9 16L9 15L8 15L8 14ZM11 14L11 15L12 15L12 14ZM17 17L17 20L20 20L20 17ZM12 18L12 19L13 19L13 18ZM18 18L18 19L19 19L19 18ZM9 20L9 21L10 21L10 22L11 22L11 20ZM20 21L20 23L21 23L21 24L22 24L22 21ZM0 0L0 7L7 7L7 0ZM1 1L1 6L6 6L6 1ZM2 2L2 5L5 5L5 2ZM18 0L18 7L25 7L25 0ZM19 1L19 6L24 6L24 1ZM20 2L20 5L23 5L23 2ZM0 18L0 25L7 25L7 18ZM1 19L1 24L6 24L6 19ZM2 20L2 23L5 23L5 20Z" fill="#000000"/></g></g></svg>
