<?xml version="1.0" encoding="UTF-8"?>
<svg xmlns="http://www.w3.org/2000/svg" version="1.1" width="500" height="500" viewBox="0 0 500 500"><rect x="0" y="0" width="500" height="500" fill="#ffffcc"/><g transform="scale(23.81)"><g transform="translate(0,0)"><path fill-rule="evenodd" d="M8 0L8 1L9 1L9 2L8 2L8 5L12 5L12 3L13 3L13 0L12 0L12 3L11 3L11 2L10 2L10 0ZM9 2L9 4L11 4L11 3L10 3L10 2ZM8 6L8 7L9 7L9 8L8 8L8 14L9 14L9 15L11 15L11 16L9 16L9 17L8 17L8 21L9 21L9 20L10 20L10 19L12 19L12 20L11 20L11 21L17 21L17 20L15 20L15 19L14 19L14 17L11 17L11 16L14 16L14 15L17 15L17 17L18 17L18 18L17 18L17 19L19 19L19 18L20 18L20 16L21 16L21 15L20 15L20 14L19 14L19 13L16 13L16 12L18 12L18 11L19 11L19 12L21 12L21 8L20 8L20 10L19 10L19 8L16 8L16 10L15 10L15 12L14 12L14 13L13 13L13 12L11 12L11 11L12 11L12 10L11 10L11 11L10 11L10 10L9 10L9 8L10 8L10 9L11 9L11 8L13 8L13 9L14 9L14 8L13 8L13 6L12 6L12 7L11 7L11 6L10 6L10 7L9 7L9 6ZM0 8L0 10L1 10L1 9L3 9L3 10L2 10L2 11L3 11L3 12L2 12L2 13L5 13L5 12L4 12L4 8ZM6 8L6 9L7 9L7 8ZM5 10L5 11L7 11L7 10ZM16 10L16 11L18 11L18 10ZM0 12L0 13L1 13L1 12ZM6 12L6 13L7 13L7 12ZM9 13L9 14L10 14L10 13ZM11 13L11 14L12 14L12 15L13 15L13 14L12 14L12 13ZM14 13L14 14L16 14L16 13ZM17 14L17 15L19 15L19 16L20 16L20 15L19 15L19 14ZM9 17L9 19L10 19L10 18L11 18L11 17ZM20 19L20 20L21 20L21 19ZM18 20L18 21L19 21L19 20ZM0 0L0 7L7 7L7 0ZM1 1L1 6L6 6L6 1ZM2 2L2 5L5 5L5 2ZM14 0L14 7L21 7L21 0ZM15 1L15 6L20 6L20 1ZM16 2L16 5L19 5L19 2ZM0 14L0 21L7 21L7 14ZM1 15L1 20L6 20L6 15ZM2 16L2 19L5 19L5 16Z" fill="#000000"/></g></g></svg>
