<?xml version="1.0" encoding="UTF-8"?>
<svg xmlns="http://www.w3.org/2000/svg" version="1.1" width="500" height="500" viewBox="0 0 500 500"><rect x="0" y="0" width="500" height="500" fill="#ffffcc"/><g transform="scale(23.81)"><g transform="translate(0,0)"><path fill-rule="evenodd" d="M8 0L8 1L9 1L9 2L8 2L8 5L11 5L11 4L12 4L12 3L13 3L13 0L12 0L12 3L11 3L11 2L10 2L10 0ZM9 2L9 4L11 4L11 3L10 3L10 2ZM8 6L8 7L9 7L9 8L8 8L8 9L7 9L7 8L6 8L6 9L7 9L7 10L6 10L6 11L7 11L7 10L8 10L8 9L9 9L9 8L10 8L10 10L9 10L9 12L8 12L8 14L9 14L9 16L10 16L10 17L8 17L8 21L11 21L11 20L9 20L9 19L10 19L10 18L11 18L11 17L12 17L12 19L13 19L13 21L15 21L15 20L16 20L16 21L17 21L17 20L16 20L16 19L13 19L13 18L15 18L15 17L17 17L17 18L20 18L20 16L19 16L19 15L20 15L20 14L19 14L19 15L18 15L18 13L17 13L17 12L18 12L18 10L17 10L17 9L19 9L19 8L16 8L16 9L15 9L15 10L13 10L13 9L14 9L14 8L13 8L13 9L12 9L12 12L10 12L10 11L11 11L11 6L10 6L10 7L9 7L9 6ZM12 6L12 7L13 7L13 6ZM0 8L0 9L3 9L3 10L2 10L2 13L3 13L3 12L4 12L4 13L5 13L5 9L4 9L4 8ZM20 8L20 10L19 10L19 12L21 12L21 8ZM16 10L16 12L17 12L17 10ZM13 11L13 12L12 12L12 14L11 14L11 13L10 13L10 12L9 12L9 14L11 14L11 16L12 16L12 17L15 17L15 16L16 16L16 15L14 15L14 13L13 13L13 12L15 12L15 11ZM6 12L6 13L7 13L7 12ZM15 13L15 14L16 14L16 13ZM13 15L13 16L14 16L14 15ZM20 19L20 20L21 20L21 19ZM18 20L18 21L19 21L19 20ZM0 0L0 7L7 7L7 0ZM1 1L1 6L6 6L6 1ZM2 2L2 5L5 5L5 2ZM14 0L14 7L21 7L21 0ZM15 1L15 6L20 6L20 1ZM16 2L16 5L19 5L19 2ZM0 14L0 21L7 21L7 14ZM1 15L1 20L6 20L6 15ZM2 16L2 19L5 19L5 16Z" fill="#000000"/></g></g></svg>
