<?xml version="1.0" encoding="UTF-8"?>
<svg xmlns="http://www.w3.org/2000/svg" version="1.1" width="500" height="500" viewBox="0 0 500 500"><rect x="0" y="0" width="500" height="500" fill="#ffffcc"/><g transform="scale(23.81)"><g transform="translate(0,0)"><path fill-rule="evenodd" d="M11 0L11 1L10 1L10 3L9 3L9 1L8 1L8 3L9 3L9 4L8 4L8 8L6 8L6 9L5 9L5 10L6 10L6 11L4 11L4 12L3 12L3 13L4 13L4 12L5 12L5 13L7 13L7 12L8 12L8 11L9 11L9 13L8 13L8 15L9 15L9 14L10 14L10 16L11 16L11 17L12 17L12 18L10 18L10 17L8 17L8 18L9 18L9 19L8 19L8 21L11 21L11 19L13 19L13 20L14 20L14 21L15 21L15 20L14 20L14 19L16 19L16 21L18 21L18 20L17 20L17 18L19 18L19 17L20 17L20 19L21 19L21 16L19 16L19 17L16 17L16 15L17 15L17 14L18 14L18 15L19 15L19 14L18 14L18 13L17 13L17 14L16 14L16 13L15 13L15 18L14 18L14 16L11 16L11 14L12 14L12 15L14 15L14 14L13 14L13 12L11 12L11 11L10 11L10 10L11 10L11 9L12 9L12 11L13 11L13 6L12 6L12 8L11 8L11 5L12 5L12 4L11 4L11 3L12 3L12 0ZM9 4L9 5L11 5L11 4ZM9 6L9 7L10 7L10 6ZM0 8L0 9L1 9L1 11L0 11L0 13L1 13L1 11L3 11L3 9L4 9L4 8L3 8L3 9L2 9L2 8ZM8 8L8 9L6 9L6 10L7 10L7 11L6 11L6 12L7 12L7 11L8 11L8 9L9 9L9 10L10 10L10 8ZM14 8L14 10L15 10L15 11L14 11L14 12L15 12L15 11L16 11L16 10L15 10L15 9L17 9L17 10L18 10L18 11L17 11L17 12L18 12L18 11L19 11L19 12L20 12L20 14L21 14L21 12L20 12L20 11L21 11L21 9L20 9L20 8L18 8L18 9L17 9L17 8ZM19 10L19 11L20 11L20 10ZM10 12L10 13L11 13L11 12ZM13 18L13 19L14 19L14 18ZM19 20L19 21L20 21L20 20ZM0 0L0 7L7 7L7 0ZM1 1L1 6L6 6L6 1ZM2 2L2 5L5 5L5 2ZM14 0L14 7L21 7L21 0ZM15 1L15 6L20 6L20 1ZM16 2L16 5L19 5L19 2ZM0 14L0 21L7 21L7 14ZM1 15L1 20L6 20L6 15ZM2 16L2 19L5 19L5 16Z" fill="#000000"/></g></g></svg>
