<?xml version="1.0" encoding="UTF-8"?>
<svg xmlns="http://www.w3.org/2000/svg" version="1.1" width="500" height="500" viewBox="0 0 500 500"><rect x="0" y="0" width="500" height="500" fill="#ffffcc"/><g transform="scale(23.81)"><g transform="translate(0,0)"><path fill-rule="evenodd" d="M8 0L8 1L10 1L10 3L9 3L9 2L8 2L8 5L11 5L11 6L10 6L10 7L9 7L9 6L8 6L8 7L9 7L9 8L8 8L8 10L6 10L6 11L7 11L7 12L4 12L4 11L5 11L5 9L4 9L4 8L0 8L0 9L1 9L1 10L0 10L0 13L1 13L1 11L3 11L3 13L7 13L7 12L8 12L8 14L10 14L10 12L12 12L12 13L11 13L11 15L9 15L9 17L8 17L8 21L12 21L12 19L13 19L13 20L14 20L14 21L17 21L17 20L16 20L16 19L13 19L13 17L14 17L14 15L12 15L12 14L15 14L15 17L17 17L17 18L18 18L18 19L19 19L19 15L20 15L20 14L19 14L19 15L18 15L18 14L17 14L17 13L16 13L16 14L15 14L15 12L18 12L18 10L17 10L17 9L19 9L19 8L16 8L16 9L14 9L14 8L13 8L13 6L12 6L12 5L13 5L13 4L12 4L12 3L13 3L13 2L12 2L12 1L10 1L10 0ZM11 2L11 3L10 3L10 4L11 4L11 3L12 3L12 2ZM11 6L11 7L12 7L12 6ZM6 8L6 9L7 9L7 8ZM9 8L9 11L12 11L12 12L15 12L15 11L14 11L14 9L11 9L11 10L10 10L10 8ZM20 8L20 10L19 10L19 12L21 12L21 8ZM16 10L16 11L17 11L17 10ZM10 16L10 18L12 18L12 16ZM20 16L20 17L21 17L21 16ZM10 19L10 20L11 20L11 19ZM20 19L20 20L21 20L21 19ZM18 20L18 21L19 21L19 20ZM0 0L0 7L7 7L7 0ZM1 1L1 6L6 6L6 1ZM2 2L2 5L5 5L5 2ZM14 0L14 7L21 7L21 0ZM15 1L15 6L20 6L20 1ZM16 2L16 5L19 5L19 2ZM0 14L0 21L7 21L7 14ZM1 15L1 20L6 20L6 15ZM2 16L2 19L5 19L5 16Z" fill="#000000"/></g></g></svg>
