<?xml version="1.0" encoding="UTF-8"?>
<svg xmlns="http://www.w3.org/2000/svg" version="1.1" width="500" height="500" viewBox="0 0 500 500"><rect x="0" y="0" width="500" height="500" fill="#ffffcc"/><g transform="scale(20)"><g transform="translate(0,0)"><path fill-rule="evenodd" d="M9 0L9 1L11 1L11 2L9 2L9 3L8 3L8 5L9 5L9 6L8 6L8 7L9 7L9 9L8 9L8 8L5 8L5 12L4 12L4 9L2 9L2 8L0 8L0 11L2 11L2 12L1 12L1 13L0 13L0 17L1 17L1 14L5 14L5 15L4 15L4 16L2 16L2 17L8 17L8 20L9 20L9 23L8 23L8 25L10 25L10 24L11 24L11 25L14 25L14 23L15 23L15 22L16 22L16 25L17 25L17 24L18 24L18 23L17 23L17 22L19 22L19 24L20 24L20 25L22 25L22 23L21 23L21 24L20 24L20 22L19 22L19 21L21 21L21 20L22 20L22 21L23 21L23 22L24 22L24 25L25 25L25 18L23 18L23 19L24 19L24 20L22 20L22 19L21 19L21 16L22 16L22 17L23 17L23 15L25 15L25 14L23 14L23 13L24 13L24 12L25 12L25 10L23 10L23 9L22 9L22 8L20 8L20 9L19 9L19 10L18 10L18 11L17 11L17 10L16 10L16 9L14 9L14 8L13 8L13 6L12 6L12 9L14 9L14 10L11 10L11 8L10 8L10 7L11 7L11 4L12 4L12 5L13 5L13 4L14 4L14 3L15 3L15 4L16 4L16 5L17 5L17 1L16 1L16 2L15 2L15 0L13 0L13 1L12 1L12 0ZM13 1L13 2L12 2L12 4L13 4L13 3L14 3L14 1ZM9 3L9 5L10 5L10 3ZM14 5L14 7L15 7L15 5ZM9 6L9 7L10 7L10 6ZM16 6L16 7L17 7L17 6ZM1 9L1 10L2 10L2 11L3 11L3 10L2 10L2 9ZM6 9L6 10L7 10L7 11L6 11L6 12L5 12L5 13L6 13L6 14L7 14L7 15L6 15L6 16L7 16L7 15L8 15L8 16L10 16L10 17L11 17L11 19L12 19L12 21L11 21L11 20L10 20L10 21L11 21L11 24L12 24L12 23L13 23L13 22L12 22L12 21L14 21L14 22L15 22L15 20L14 20L14 19L12 19L12 18L15 18L15 19L16 19L16 18L15 18L15 17L14 17L14 16L13 16L13 17L12 17L12 15L13 15L13 14L12 14L12 13L13 13L13 12L17 12L17 13L18 13L18 14L17 14L17 16L19 16L19 15L23 15L23 14L21 14L21 11L22 11L22 13L23 13L23 10L22 10L22 9L21 9L21 11L20 11L20 10L19 10L19 11L20 11L20 14L19 14L19 13L18 13L18 12L17 12L17 11L15 11L15 10L14 10L14 11L12 11L12 12L11 12L11 14L10 14L10 15L9 15L9 14L8 14L8 13L9 13L9 12L10 12L10 11L11 11L11 10L10 10L10 9L9 9L9 10L10 10L10 11L9 11L9 12L7 12L7 11L8 11L8 10L7 10L7 9ZM2 12L2 13L4 13L4 12ZM6 12L6 13L7 13L7 12ZM14 13L14 14L15 14L15 13ZM18 14L18 15L19 15L19 14ZM15 15L15 16L16 16L16 15ZM24 16L24 17L25 17L25 16ZM17 17L17 20L20 20L20 17ZM9 18L9 19L10 19L10 18ZM18 18L18 19L19 19L19 18ZM16 21L16 22L17 22L17 21ZM9 23L9 24L10 24L10 23ZM0 0L0 7L7 7L7 0ZM1 1L1 6L6 6L6 1ZM2 2L2 5L5 5L5 2ZM18 0L18 7L25 7L25 0ZM19 1L19 6L24 6L24 1ZM20 2L20 5L23 5L23 2ZM0 18L0 25L7 25L7 18ZM1 19L1 24L6 24L6 19ZM2 20L2 23L5 23L5 20Z" fill="#000000"/></g></g></svg>
