<?xml version="1.0" encoding="UTF-8"?>
<svg xmlns="http://www.w3.org/2000/svg" version="1.1" width="500" height="500" viewBox="0 0 500 500"><rect x="0" y="0" width="500" height="500" fill="#ffffcc"/><g transform="scale(23.81)"><g transform="translate(0,0)"><path fill-rule="evenodd" d="M9 0L9 3L8 3L8 5L9 5L9 4L10 4L10 7L9 7L9 6L8 6L8 7L9 7L9 10L10 10L10 11L9 11L9 12L10 12L10 13L11 13L11 11L12 11L12 10L13 10L13 13L12 13L12 15L13 15L13 16L12 16L12 17L13 17L13 16L14 16L14 17L15 17L15 14L14 14L14 15L13 15L13 13L14 13L14 10L16 10L16 9L18 9L18 8L16 8L16 9L13 9L13 4L12 4L12 3L10 3L10 1L11 1L11 2L12 2L12 1L13 1L13 0ZM11 5L11 7L12 7L12 5ZM0 8L0 9L1 9L1 10L0 10L0 13L5 13L5 12L6 12L6 13L7 13L7 12L8 12L8 10L6 10L6 9L8 9L8 8L5 8L5 9L4 9L4 10L3 10L3 9L2 9L2 8ZM10 8L10 9L11 9L11 10L12 10L12 8ZM1 10L1 12L5 12L5 11L6 11L6 12L7 12L7 11L6 11L6 10L4 10L4 11L3 11L3 10ZM17 10L17 12L16 12L16 14L17 14L17 16L16 16L16 18L14 18L14 19L13 19L13 18L11 18L11 15L10 15L10 14L9 14L9 13L8 13L8 16L9 16L9 19L8 19L8 21L9 21L9 19L10 19L10 21L11 21L11 20L14 20L14 21L16 21L16 20L17 20L17 21L18 21L18 20L19 20L19 21L20 21L20 20L19 20L19 19L21 19L21 18L19 18L19 19L17 19L17 18L18 18L18 17L17 17L17 16L19 16L19 17L21 17L21 15L20 15L20 16L19 16L19 15L18 15L18 14L19 14L19 13L20 13L20 14L21 14L21 11L20 11L20 10ZM19 11L19 12L18 12L18 13L19 13L19 12L20 12L20 11ZM9 15L9 16L10 16L10 15ZM10 18L10 19L11 19L11 18ZM14 19L14 20L16 20L16 19ZM0 0L0 7L7 7L7 0ZM1 1L1 6L6 6L6 1ZM2 2L2 5L5 5L5 2ZM14 0L14 7L21 7L21 0ZM15 1L15 6L20 6L20 1ZM16 2L16 5L19 5L19 2ZM0 14L0 21L7 21L7 14ZM1 15L1 20L6 20L6 15ZM2 16L2 19L5 19L5 16Z" fill="#000000"/></g></g></svg>
