<?xml version="1.0" encoding="UTF-8"?>
<svg xmlns="http://www.w3.org/2000/svg" version="1.1" width="500" height="500" viewBox="0 0 500 500"><rect x="0" y="0" width="500" height="500" fill="#ffffcc"/><g transform="scale(23.81)"><g transform="translate(0,0)"><path fill-rule="evenodd" d="M10 0L10 1L11 1L11 0ZM12 0L12 2L13 2L13 0ZM8 2L8 3L9 3L9 2ZM10 2L10 3L11 3L11 2ZM12 3L12 4L11 4L11 5L10 5L10 4L9 4L9 6L8 6L8 8L4 8L4 9L5 9L5 10L3 10L3 8L0 8L0 9L1 9L1 10L0 10L0 11L1 11L1 12L0 12L0 13L3 13L3 11L5 11L5 13L8 13L8 17L9 17L9 18L8 18L8 21L9 21L9 20L10 20L10 21L12 21L12 20L13 20L13 19L19 19L19 21L21 21L21 20L20 20L20 19L21 19L21 18L20 18L20 15L21 15L21 9L19 9L19 8L18 8L18 9L17 9L17 10L15 10L15 8L12 8L12 9L11 9L11 6L12 6L12 7L13 7L13 6L12 6L12 5L13 5L13 3ZM9 6L9 10L7 10L7 9L6 9L6 10L7 10L7 11L6 11L6 12L8 12L8 13L10 13L10 14L11 14L11 15L9 15L9 17L10 17L10 18L9 18L9 19L10 19L10 20L12 20L12 18L11 18L11 17L12 17L12 16L11 16L11 15L12 15L12 14L13 14L13 18L16 18L16 15L14 15L14 13L15 13L15 14L16 14L16 11L15 11L15 10L14 10L14 9L12 9L12 11L13 11L13 12L12 12L12 14L11 14L11 12L10 12L10 11L11 11L11 10L10 10L10 6ZM2 10L2 11L3 11L3 10ZM9 10L9 11L8 11L8 12L9 12L9 11L10 11L10 10ZM13 10L13 11L14 11L14 10ZM17 11L17 16L18 16L18 17L19 17L19 15L20 15L20 14L19 14L19 15L18 15L18 13L20 13L20 12L19 12L19 11ZM10 16L10 17L11 17L11 16ZM10 18L10 19L11 19L11 18ZM19 18L19 19L20 19L20 18ZM16 20L16 21L17 21L17 20ZM0 0L0 7L7 7L7 0ZM1 1L1 6L6 6L6 1ZM2 2L2 5L5 5L5 2ZM14 0L14 7L21 7L21 0ZM15 1L15 6L20 6L20 1ZM16 2L16 5L19 5L19 2ZM0 14L0 21L7 21L7 14ZM1 15L1 20L6 20L6 15ZM2 16L2 19L5 19L5 16Z" fill="#000000"/></g></g></svg>
