<?xml version="1.0" encoding="UTF-8"?>
<svg xmlns="http://www.w3.org/2000/svg" version="1.1" width="500" height="500" viewBox="0 0 500 500"><rect x="0" y="0" width="500" height="500" fill="#ffffcc"/><g transform="scale(23.81)"><g transform="translate(0,0)"><path fill-rule="evenodd" d="M8 0L8 1L9 1L9 0ZM10 0L10 2L8 2L8 5L9 5L9 6L8 6L8 7L9 7L9 6L10 6L10 7L11 7L11 8L8 8L8 9L7 9L7 8L6 8L6 9L7 9L7 10L6 10L6 11L8 11L8 9L9 9L9 10L10 10L10 9L12 9L12 8L13 8L13 9L14 9L14 11L15 11L15 12L14 12L14 13L13 13L13 11L12 11L12 12L11 12L11 11L10 11L10 12L8 12L8 14L9 14L9 15L11 15L11 16L13 16L13 17L10 17L10 16L9 16L9 17L8 17L8 21L10 21L10 20L11 20L11 21L12 21L12 19L13 19L13 20L14 20L14 21L15 21L15 20L16 20L16 21L17 21L17 20L16 20L16 19L15 19L15 18L16 18L16 17L15 17L15 18L14 18L14 15L15 15L15 16L18 16L18 17L19 17L19 18L20 18L20 16L21 16L21 15L20 15L20 14L19 14L19 15L17 15L17 13L18 13L18 11L16 11L16 10L17 10L17 9L19 9L19 8L16 8L16 9L14 9L14 8L13 8L13 6L12 6L12 7L11 7L11 5L13 5L13 2L12 2L12 1L13 1L13 0L12 0L12 1L11 1L11 0ZM10 2L10 4L9 4L9 5L11 5L11 4L12 4L12 2ZM0 8L0 11L1 11L1 12L0 12L0 13L7 13L7 12L5 12L5 9L4 9L4 8ZM20 8L20 10L19 10L19 12L21 12L21 8ZM2 11L2 12L3 12L3 11ZM10 12L10 13L9 13L9 14L10 14L10 13L11 13L11 12ZM16 12L16 13L14 13L14 14L16 14L16 13L17 13L17 12ZM12 14L12 15L13 15L13 14ZM17 18L17 19L18 19L18 18ZM9 19L9 20L10 20L10 19ZM20 19L20 20L21 20L21 19ZM18 20L18 21L19 21L19 20ZM0 0L0 7L7 7L7 0ZM1 1L1 6L6 6L6 1ZM2 2L2 5L5 5L5 2ZM14 0L14 7L21 7L21 0ZM15 1L15 6L20 6L20 1ZM16 2L16 5L19 5L19 2ZM0 14L0 21L7 21L7 14ZM1 15L1 20L6 20L6 15ZM2 16L2 19L5 19L5 16Z" fill="#000000"/></g></g></svg>
