<?xml version="1.0" encoding="UTF-8"?>
<svg xmlns="http://www.w3.org/2000/svg" version="1.1" width="500" height="500" viewBox="0 0 500 500"><rect x="0" y="0" width="500" height="500" fill="#ffffcc"/><g transform="scale(20)"><g transform="translate(0,0)"><path fill-rule="evenodd" d="M8 0L8 1L11 1L11 3L10 3L10 2L9 2L9 3L10 3L10 5L9 5L9 6L8 6L8 8L9 8L9 9L8 9L8 10L5 10L5 8L3 8L3 10L2 10L2 11L3 11L3 12L1 12L1 10L0 10L0 17L1 17L1 15L4 15L4 16L5 16L5 17L7 17L7 16L5 16L5 14L6 14L6 15L7 15L7 14L6 14L6 13L8 13L8 14L9 14L9 13L10 13L10 15L9 15L9 16L10 16L10 15L11 15L11 12L9 12L9 11L10 11L10 10L11 10L11 9L10 9L10 7L11 7L11 6L12 6L12 9L14 9L14 12L13 12L13 13L12 13L12 14L13 14L13 13L15 13L15 14L14 14L14 15L12 15L12 16L11 16L11 18L9 18L9 17L8 17L8 18L9 18L9 19L10 19L10 20L8 20L8 22L9 22L9 23L8 23L8 25L9 25L9 24L11 24L11 25L14 25L14 19L15 19L15 21L17 21L17 23L18 23L18 25L20 25L20 23L21 23L21 24L24 24L24 25L25 25L25 20L24 20L24 21L22 21L22 18L23 18L23 19L25 19L25 18L24 18L24 17L25 17L25 16L23 16L23 15L25 15L25 14L23 14L23 15L21 15L21 13L20 13L20 12L23 12L23 13L24 13L24 12L25 12L25 10L24 10L24 9L25 9L25 8L24 8L24 9L19 9L19 8L18 8L18 9L19 9L19 10L18 10L18 11L17 11L17 10L16 10L16 9L17 9L17 8L16 8L16 7L17 7L17 6L16 6L16 7L15 7L15 3L16 3L16 2L15 2L15 0L13 0L13 1L12 1L12 0ZM16 0L16 1L17 1L17 0ZM13 1L13 2L12 2L12 4L14 4L14 3L15 3L15 2L14 2L14 1ZM13 2L13 3L14 3L14 2ZM16 4L16 5L17 5L17 4ZM10 5L10 6L9 6L9 7L10 7L10 6L11 6L11 5ZM12 5L12 6L13 6L13 8L14 8L14 6L13 6L13 5ZM0 8L0 9L2 9L2 8ZM6 8L6 9L7 9L7 8ZM9 9L9 10L8 10L8 11L9 11L9 10L10 10L10 9ZM3 10L3 11L5 11L5 12L4 12L4 13L2 13L2 14L4 14L4 13L5 13L5 12L7 12L7 11L5 11L5 10ZM12 10L12 11L13 11L13 10ZM19 10L19 11L21 11L21 10ZM22 10L22 11L23 11L23 12L24 12L24 10ZM15 11L15 12L17 12L17 13L18 13L18 14L17 14L17 15L16 15L16 16L18 16L18 14L19 14L19 15L20 15L20 16L21 16L21 15L20 15L20 13L18 13L18 12L17 12L17 11ZM2 16L2 17L3 17L3 16ZM13 16L13 17L12 17L12 18L11 18L11 19L12 19L12 21L11 21L11 20L10 20L10 21L11 21L11 22L10 22L10 23L11 23L11 22L12 22L12 23L13 23L13 22L12 22L12 21L13 21L13 19L12 19L12 18L15 18L15 19L16 19L16 17L15 17L15 16ZM17 17L17 20L20 20L20 17ZM21 17L21 18L22 18L22 17ZM18 18L18 19L19 19L19 18ZM19 21L19 22L18 22L18 23L19 23L19 22L21 22L21 23L23 23L23 22L21 22L21 21ZM15 22L15 24L16 24L16 25L17 25L17 24L16 24L16 22ZM0 0L0 7L7 7L7 0ZM1 1L1 6L6 6L6 1ZM2 2L2 5L5 5L5 2ZM18 0L18 7L25 7L25 0ZM19 1L19 6L24 6L24 1ZM20 2L20 5L23 5L23 2ZM0 18L0 25L7 25L7 18ZM1 19L1 24L6 24L6 19ZM2 20L2 23L5 23L5 20Z" fill="#000000"/></g></g></svg>
