<?xml version="1.0" encoding="UTF-8"?>
<svg xmlns="http://www.w3.org/2000/svg" version="1.1" width="500" height="500" viewBox="0 0 500 500"><rect x="0" y="0" width="500" height="500" fill="#ffffcc"/><g transform="scale(20)"><g transform="translate(0,0)"><path fill-rule="evenodd" d="M8 0L8 1L10 1L10 0ZM13 1L13 2L11 2L11 4L10 4L10 3L9 3L9 2L8 2L8 5L9 5L9 6L8 6L8 7L9 7L9 8L8 8L8 9L7 9L7 8L6 8L6 9L5 9L5 10L6 10L6 11L8 11L8 12L9 12L9 13L8 13L8 14L6 14L6 13L7 13L7 12L6 12L6 13L5 13L5 14L4 14L4 15L3 15L3 14L2 14L2 13L3 13L3 12L2 12L2 11L3 11L3 10L4 10L4 8L0 8L0 9L2 9L2 10L0 10L0 12L2 12L2 13L1 13L1 15L0 15L0 16L1 16L1 15L2 15L2 17L3 17L3 16L4 16L4 17L5 17L5 14L6 14L6 15L8 15L8 18L9 18L9 17L10 17L10 16L11 16L11 17L12 17L12 18L10 18L10 20L11 20L11 21L12 21L12 22L11 22L11 23L9 23L9 22L10 22L10 21L8 21L8 25L10 25L10 24L11 24L11 23L14 23L14 22L15 22L15 21L14 21L14 20L13 20L13 18L14 18L14 17L12 17L12 16L14 16L14 15L15 15L15 17L16 17L16 19L15 19L15 20L16 20L16 21L17 21L17 22L18 22L18 23L20 23L20 24L22 24L22 25L25 25L25 24L23 24L23 23L24 23L24 22L25 22L25 21L23 21L23 23L22 23L22 21L21 21L21 20L22 20L22 19L21 19L21 18L23 18L23 17L24 17L24 19L23 19L23 20L25 20L25 17L24 17L24 16L22 16L22 17L21 17L21 15L20 15L20 14L22 14L22 15L24 15L24 14L25 14L25 13L23 13L23 11L22 11L22 9L23 9L23 8L20 8L20 9L19 9L19 10L20 10L20 13L19 13L19 12L18 12L18 11L17 11L17 9L18 9L18 8L17 8L17 6L16 6L16 11L17 11L17 13L15 13L15 14L14 14L14 13L13 13L13 14L12 14L12 12L15 12L15 10L14 10L14 11L11 11L11 13L10 13L10 12L9 12L9 10L10 10L10 9L9 9L9 8L10 8L10 7L11 7L11 8L12 8L12 7L13 7L13 9L15 9L15 5L17 5L17 2L15 2L15 1ZM14 2L14 3L12 3L12 5L10 5L10 6L9 6L9 7L10 7L10 6L11 6L11 7L12 7L12 5L13 5L13 7L14 7L14 5L13 5L13 4L15 4L15 2ZM24 8L24 9L25 9L25 8ZM6 9L6 10L7 10L7 9ZM20 9L20 10L21 10L21 9ZM4 11L4 12L5 12L5 11ZM24 11L24 12L25 12L25 11ZM17 13L17 15L18 15L18 13ZM22 13L22 14L23 14L23 13ZM8 14L8 15L9 15L9 14ZM11 14L11 16L12 16L12 14ZM13 14L13 15L14 15L14 14ZM15 14L15 15L16 15L16 14ZM19 15L19 16L20 16L20 15ZM6 16L6 17L7 17L7 16ZM17 17L17 20L20 20L20 17ZM18 18L18 19L19 19L19 18ZM11 19L11 20L12 20L12 19ZM19 21L19 22L20 22L20 21ZM12 24L12 25L13 25L13 24ZM14 24L14 25L15 25L15 24ZM18 24L18 25L19 25L19 24ZM0 0L0 7L7 7L7 0ZM1 1L1 6L6 6L6 1ZM2 2L2 5L5 5L5 2ZM18 0L18 7L25 7L25 0ZM19 1L19 6L24 6L24 1ZM20 2L20 5L23 5L23 2ZM0 18L0 25L7 25L7 18ZM1 19L1 24L6 24L6 19ZM2 20L2 23L5 23L5 20Z" fill="#000000"/></g></g></svg>
