<?xml version="1.0" encoding="UTF-8"?>
<svg xmlns="http://www.w3.org/2000/svg" version="1.1" width="500" height="500" viewBox="0 0 500 500"><rect x="0" y="0" width="500" height="500" fill="#ffffcc"/><g transform="scale(23.81)"><g transform="translate(0,0)"><path fill-rule="evenodd" d="M10 0L10 1L11 1L11 0ZM12 0L12 2L13 2L13 0ZM8 2L8 3L9 3L9 2ZM10 2L10 3L11 3L11 2ZM12 3L12 4L11 4L11 5L10 5L10 4L9 4L9 6L8 6L8 8L4 8L4 9L3 9L3 8L0 8L0 9L1 9L1 11L0 11L0 12L1 12L1 13L3 13L3 12L2 12L2 9L3 9L3 11L4 11L4 12L5 12L5 11L8 11L8 12L6 12L6 13L8 13L8 17L9 17L9 18L8 18L8 21L9 21L9 20L10 20L10 21L12 21L12 20L14 20L14 21L17 21L17 20L14 20L14 19L12 19L12 17L13 17L13 18L14 18L14 17L13 17L13 16L14 16L14 15L16 15L16 17L15 17L15 19L17 19L17 17L18 17L18 16L17 16L17 15L19 15L19 16L21 16L21 9L19 9L19 8L18 8L18 9L16 9L16 10L15 10L15 11L18 11L18 10L19 10L19 12L20 12L20 13L19 13L19 14L18 14L18 13L17 13L17 12L16 12L16 13L15 13L15 14L14 14L14 15L13 15L13 14L12 14L12 15L13 15L13 16L12 16L12 17L11 17L11 16L10 16L10 15L9 15L9 13L8 13L8 12L11 12L11 13L12 13L12 12L13 12L13 13L14 13L14 12L13 12L13 11L14 11L14 9L15 9L15 8L12 8L12 9L11 9L11 6L12 6L12 7L13 7L13 6L12 6L12 5L13 5L13 3ZM9 6L9 9L4 9L4 10L8 10L8 11L11 11L11 9L10 9L10 6ZM9 9L9 10L10 10L10 9ZM12 9L12 11L13 11L13 9ZM19 14L19 15L20 15L20 14ZM10 17L10 18L11 18L11 17ZM19 17L19 18L18 18L18 19L19 19L19 21L21 21L21 20L20 20L20 19L21 19L21 18L20 18L20 17ZM19 18L19 19L20 19L20 18ZM10 19L10 20L11 20L11 19ZM0 0L0 7L7 7L7 0ZM1 1L1 6L6 6L6 1ZM2 2L2 5L5 5L5 2ZM14 0L14 7L21 7L21 0ZM15 1L15 6L20 6L20 1ZM16 2L16 5L19 5L19 2ZM0 14L0 21L7 21L7 14ZM1 15L1 20L6 20L6 15ZM2 16L2 19L5 19L5 16Z" fill="#000000"/></g></g></svg>
