<?xml version="1.0" encoding="UTF-8"?>
<svg xmlns="http://www.w3.org/2000/svg" version="1.1" width="500" height="500" viewBox="0 0 500 500"><rect x="0" y="0" width="500" height="500" fill="#ffffcc"/><g transform="scale(23.81)"><g transform="translate(0,0)"><path fill-rule="evenodd" d="M10 0L10 1L8 1L8 2L10 2L10 3L8 3L8 4L9 4L9 5L8 5L8 7L9 7L9 8L6 8L6 9L9 9L9 8L10 8L10 7L11 7L11 6L10 6L10 7L9 7L9 5L10 5L10 3L11 3L11 0ZM12 0L12 2L13 2L13 0ZM12 3L12 4L13 4L13 3ZM12 5L12 8L11 8L11 9L14 9L14 8L13 8L13 5ZM0 8L0 9L3 9L3 10L4 10L4 11L3 11L3 12L2 12L2 13L3 13L3 12L4 12L4 13L7 13L7 12L8 12L8 11L10 11L10 10L8 10L8 11L7 11L7 10L6 10L6 11L7 11L7 12L4 12L4 11L5 11L5 8ZM15 8L15 10L18 10L18 11L17 11L17 12L16 12L16 11L15 11L15 12L14 12L14 13L13 13L13 14L11 14L11 13L8 13L8 15L9 15L9 16L8 16L8 21L9 21L9 18L10 18L10 16L11 16L11 15L12 15L12 16L13 16L13 17L14 17L14 19L13 19L13 18L11 18L11 20L12 20L12 21L13 21L13 20L14 20L14 21L17 21L17 20L19 20L19 21L20 21L20 20L19 20L19 19L18 19L18 18L17 18L17 17L16 17L16 16L19 16L19 17L21 17L21 15L19 15L19 13L18 13L18 14L17 14L17 12L19 12L19 11L20 11L20 12L21 12L21 11L20 11L20 10L21 10L21 9L20 9L20 8L19 8L19 9L20 9L20 10L18 10L18 8L17 8L17 9L16 9L16 8ZM11 10L11 12L13 12L13 11L14 11L14 10ZM0 12L0 13L1 13L1 12ZM20 13L20 14L21 14L21 13ZM10 14L10 15L11 15L11 14ZM13 14L13 15L14 15L14 16L16 16L16 15L17 15L17 14L15 14L15 15L14 15L14 14ZM15 17L15 19L14 19L14 20L15 20L15 19L16 19L16 20L17 20L17 18L16 18L16 17ZM0 0L0 7L7 7L7 0ZM1 1L1 6L6 6L6 1ZM2 2L2 5L5 5L5 2ZM14 0L14 7L21 7L21 0ZM15 1L15 6L20 6L20 1ZM16 2L16 5L19 5L19 2ZM0 14L0 21L7 21L7 14ZM1 15L1 20L6 20L6 15ZM2 16L2 19L5 19L5 16Z" fill="#000000"/></g></g></svg>
