<?xml version="1.0" encoding="UTF-8"?>
<svg xmlns="http://www.w3.org/2000/svg" version="1.1" width="500" height="500" viewBox="0 0 500 500"><rect x="0" y="0" width="500" height="500" fill="#ffffcc"/><g transform="scale(23.81)"><g transform="translate(0,0)"><path fill-rule="evenodd" d="M8 0L8 2L9 2L9 4L8 4L8 9L7 9L7 8L5 8L5 9L3 9L3 8L0 8L0 9L2 9L2 12L0 12L0 13L4 13L4 12L3 12L3 10L4 10L4 11L5 11L5 10L6 10L6 11L7 11L7 12L5 12L5 13L8 13L8 14L9 14L9 15L8 15L8 16L9 16L9 17L10 17L10 16L9 16L9 15L10 15L10 13L11 13L11 17L15 17L15 18L14 18L14 19L15 19L15 20L14 20L14 21L15 21L15 20L16 20L16 19L17 19L17 21L18 21L18 19L17 19L17 18L19 18L19 19L21 19L21 18L19 18L19 17L20 17L20 16L18 16L18 15L21 15L21 8L19 8L19 9L17 9L17 8L12 8L12 7L13 7L13 6L12 6L12 7L11 7L11 5L10 5L10 7L9 7L9 4L10 4L10 3L11 3L11 4L12 4L12 5L13 5L13 3L12 3L12 2L13 2L13 0ZM10 1L10 2L11 2L11 1ZM6 9L6 10L7 10L7 11L8 11L8 12L9 12L9 13L10 13L10 12L9 12L9 11L8 11L8 10L7 10L7 9ZM10 9L10 11L11 11L11 13L12 13L12 14L13 14L13 12L15 12L15 14L14 14L14 15L15 15L15 17L16 17L16 16L17 16L17 17L18 17L18 16L17 16L17 15L18 15L18 13L19 13L19 14L20 14L20 13L19 13L19 12L20 12L20 9L19 9L19 11L18 11L18 13L17 13L17 11L15 11L15 10L16 10L16 9ZM13 10L13 11L12 11L12 12L13 12L13 11L14 11L14 10ZM16 13L16 15L17 15L17 13ZM12 15L12 16L13 16L13 15ZM8 18L8 21L11 21L11 18ZM9 19L9 20L10 20L10 19ZM12 19L12 20L13 20L13 19ZM20 20L20 21L21 21L21 20ZM0 0L0 7L7 7L7 0ZM1 1L1 6L6 6L6 1ZM2 2L2 5L5 5L5 2ZM14 0L14 7L21 7L21 0ZM15 1L15 6L20 6L20 1ZM16 2L16 5L19 5L19 2ZM0 14L0 21L7 21L7 14ZM1 15L1 20L6 20L6 15ZM2 16L2 19L5 19L5 16Z" fill="#000000"/></g></g></svg>
