<?xml version="1.0" encoding="UTF-8"?>
<svg xmlns="http://www.w3.org/2000/svg" version="1.1" width="500" height="500" viewBox="0 0 500 500"><rect x="0" y="0" width="500" height="500" fill="#ffffcc"/><g transform="scale(20)"><g transform="translate(0,0)"><path fill-rule="evenodd" d="M8 0L8 4L9 4L9 5L8 5L8 7L9 7L9 6L10 6L10 9L11 9L11 8L12 8L12 9L13 9L13 11L12 11L12 12L11 12L11 13L8 13L8 11L9 11L9 12L10 12L10 11L11 11L11 10L9 10L9 9L7 9L7 8L4 8L4 9L2 9L2 8L0 8L0 11L2 11L2 10L3 10L3 11L5 11L5 13L8 13L8 14L11 14L11 15L8 15L8 18L11 18L11 16L12 16L12 17L13 17L13 19L12 19L12 20L10 20L10 21L12 21L12 22L11 22L11 24L10 24L10 22L9 22L9 23L8 23L8 25L11 25L11 24L12 24L12 25L14 25L14 23L15 23L15 20L13 20L13 19L14 19L14 18L15 18L15 17L16 17L16 21L17 21L17 22L16 22L16 23L17 23L17 25L19 25L19 23L20 23L20 22L19 22L19 21L23 21L23 23L22 23L22 24L20 24L20 25L25 25L25 24L24 24L24 22L25 22L25 19L24 19L24 18L22 18L22 17L23 17L23 16L24 16L24 17L25 17L25 15L22 15L22 13L24 13L24 11L23 11L23 9L25 9L25 8L21 8L21 9L20 9L20 8L19 8L19 9L20 9L20 10L21 10L21 9L22 9L22 13L20 13L20 12L21 12L21 11L19 11L19 12L17 12L17 13L16 13L16 10L17 10L17 9L15 9L15 11L14 11L14 9L13 9L13 8L12 8L12 7L13 7L13 6L14 6L14 8L16 8L16 7L17 7L17 2L14 2L14 3L13 3L13 1L14 1L14 0L13 0L13 1L11 1L11 2L12 2L12 5L13 5L13 6L12 6L12 7L11 7L11 3L10 3L10 2L9 2L9 0ZM15 0L15 1L17 1L17 0ZM15 3L15 4L16 4L16 3ZM13 4L13 5L14 5L14 4ZM15 5L15 7L16 7L16 5ZM1 9L1 10L2 10L2 9ZM5 9L5 11L6 11L6 12L7 12L7 11L6 11L6 10L7 10L7 9ZM13 11L13 12L12 12L12 13L11 13L11 14L12 14L12 13L13 13L13 15L12 15L12 16L13 16L13 17L14 17L14 16L15 16L15 14L14 14L14 13L15 13L15 12L14 12L14 11ZM0 12L0 14L1 14L1 12ZM2 12L2 13L3 13L3 14L2 14L2 16L0 16L0 17L2 17L2 16L3 16L3 17L5 17L5 16L6 16L6 17L7 17L7 16L6 16L6 15L7 15L7 14L4 14L4 13L3 13L3 12ZM18 13L18 14L17 14L17 16L18 16L18 15L19 15L19 16L20 16L20 15L21 15L21 17L22 17L22 15L21 15L21 14L20 14L20 13ZM19 14L19 15L20 15L20 14ZM3 15L3 16L5 16L5 15ZM9 16L9 17L10 17L10 16ZM17 17L17 20L20 20L20 17ZM18 18L18 19L19 19L19 18ZM21 18L21 20L22 20L22 18ZM8 19L8 21L9 21L9 19ZM12 20L12 21L13 21L13 22L14 22L14 21L13 21L13 20ZM12 23L12 24L13 24L13 23ZM15 24L15 25L16 25L16 24ZM0 0L0 7L7 7L7 0ZM1 1L1 6L6 6L6 1ZM2 2L2 5L5 5L5 2ZM18 0L18 7L25 7L25 0ZM19 1L19 6L24 6L24 1ZM20 2L20 5L23 5L23 2ZM0 18L0 25L7 25L7 18ZM1 19L1 24L6 24L6 19ZM2 20L2 23L5 23L5 20Z" fill="#000000"/></g></g></svg>
