<?xml version="1.0" encoding="UTF-8"?>
<svg xmlns="http://www.w3.org/2000/svg" version="1.1" width="500" height="500" viewBox="0 0 500 500"><rect x="0" y="0" width="500" height="500" fill="#ffffcc"/><g transform="scale(20)"><g transform="translate(0,0)"><path fill-rule="evenodd" d="M9 0L9 1L11 1L11 2L9 2L9 3L8 3L8 5L9 5L9 6L8 6L8 7L9 7L9 9L8 9L8 8L5 8L5 9L3 9L3 11L2 11L2 12L1 12L1 11L0 11L0 12L1 12L1 13L0 13L0 17L1 17L1 14L2 14L2 13L3 13L3 12L4 12L4 15L5 15L5 17L8 17L8 20L9 20L9 23L8 23L8 25L9 25L9 23L11 23L11 22L10 22L10 20L11 20L11 21L12 21L12 22L13 22L13 23L12 23L12 24L10 24L10 25L14 25L14 23L15 23L15 21L16 21L16 25L17 25L17 22L19 22L19 23L18 23L18 25L21 25L21 24L22 24L22 23L21 23L21 24L19 24L19 23L20 23L20 22L19 22L19 21L21 21L21 22L24 22L24 25L25 25L25 20L22 20L22 19L25 19L25 18L22 18L22 17L23 17L23 15L25 15L25 14L23 14L23 13L22 13L22 11L21 11L21 9L22 9L22 10L23 10L23 12L25 12L25 10L23 10L23 9L22 9L22 8L20 8L20 9L19 9L19 10L18 10L18 9L17 9L17 12L16 12L16 13L15 13L15 18L14 18L14 19L15 19L15 21L12 21L12 19L13 19L13 18L12 18L12 19L11 19L11 15L10 15L10 16L9 16L9 17L8 17L8 14L9 14L9 13L10 13L10 14L11 14L11 12L12 12L12 11L14 11L14 10L11 10L11 8L10 8L10 7L11 7L11 4L12 4L12 5L13 5L13 4L14 4L14 3L15 3L15 4L16 4L16 7L17 7L17 1L16 1L16 2L15 2L15 0L14 0L14 3L13 3L13 4L12 4L12 2L13 2L13 1L12 1L12 0ZM9 3L9 5L10 5L10 3ZM14 5L14 8L13 8L13 6L12 6L12 9L15 9L15 11L16 11L16 8L15 8L15 5ZM9 6L9 7L10 7L10 6ZM0 8L0 9L1 9L1 10L2 10L2 8ZM6 9L6 10L7 10L7 11L6 11L6 12L5 12L5 10L4 10L4 12L5 12L5 13L6 13L6 14L5 14L5 15L6 15L6 16L7 16L7 15L6 15L6 14L7 14L7 13L8 13L8 12L10 12L10 11L11 11L11 10L10 10L10 9L9 9L9 10L10 10L10 11L8 11L8 9ZM7 11L7 12L6 12L6 13L7 13L7 12L8 12L8 11ZM17 12L17 14L19 14L19 15L17 15L17 16L19 16L19 15L20 15L20 16L21 16L21 15L22 15L22 13L21 13L21 12L20 12L20 14L19 14L19 13L18 13L18 12ZM12 13L12 14L14 14L14 13ZM20 14L20 15L21 15L21 14ZM2 15L2 16L3 16L3 17L4 17L4 16L3 16L3 15ZM12 15L12 17L14 17L14 16L13 16L13 15ZM24 16L24 17L25 17L25 16ZM17 17L17 20L20 20L20 17ZM15 18L15 19L16 19L16 18ZM18 18L18 19L19 19L19 18ZM21 18L21 19L22 19L22 18ZM21 20L21 21L22 21L22 20ZM0 0L0 7L7 7L7 0ZM1 1L1 6L6 6L6 1ZM2 2L2 5L5 5L5 2ZM18 0L18 7L25 7L25 0ZM19 1L19 6L24 6L24 1ZM20 2L20 5L23 5L23 2ZM0 18L0 25L7 25L7 18ZM1 19L1 24L6 24L6 19ZM2 20L2 23L5 23L5 20Z" fill="#000000"/></g></g></svg>
