<?xml version="1.0" encoding="UTF-8"?>
<svg xmlns="http://www.w3.org/2000/svg" version="1.1" width="500" height="500" viewBox="0 0 500 500"><rect x="0" y="0" width="500" height="500" fill="#ffffcc"/><g transform="scale(23.81)"><g transform="translate(0,0)"><path fill-rule="evenodd" d="M10 0L10 1L8 1L8 2L10 2L10 3L8 3L8 4L9 4L9 5L8 5L8 7L9 7L9 8L6 8L6 9L5 9L5 8L0 8L0 10L2 10L2 11L0 11L0 13L7 13L7 12L8 12L8 15L9 15L9 16L8 16L8 21L10 21L10 20L9 20L9 17L10 17L10 16L11 16L11 17L13 17L13 18L11 18L11 19L12 19L12 20L11 20L11 21L12 21L12 20L14 20L14 21L17 21L17 20L19 20L19 21L20 21L20 20L19 20L19 19L17 19L17 20L14 20L14 17L15 17L15 18L17 18L17 17L18 17L18 18L19 18L19 17L21 17L21 15L19 15L19 13L18 13L18 14L17 14L17 12L19 12L19 11L20 11L20 12L21 12L21 11L20 11L20 10L21 10L21 9L20 9L20 8L19 8L19 9L20 9L20 10L18 10L18 8L17 8L17 9L16 9L16 8L15 8L15 10L17 10L17 12L16 12L16 11L15 11L15 12L16 12L16 13L14 13L14 10L10 10L10 11L9 11L9 12L8 12L8 11L7 11L7 10L9 10L9 8L10 8L10 7L11 7L11 8L12 8L12 9L14 9L14 8L13 8L13 5L12 5L12 7L11 7L11 6L10 6L10 7L9 7L9 5L10 5L10 3L11 3L11 0ZM12 0L12 2L13 2L13 0ZM12 3L12 4L13 4L13 3ZM2 9L2 10L3 10L3 9ZM4 9L4 11L2 11L2 12L5 12L5 9ZM6 9L6 10L7 10L7 9ZM6 11L6 12L7 12L7 11ZM10 11L10 12L9 12L9 13L10 13L10 12L12 12L12 13L11 13L11 14L9 14L9 15L11 15L11 14L13 14L13 11ZM20 13L20 14L21 14L21 13ZM15 14L15 15L14 15L14 16L13 16L13 17L14 17L14 16L15 16L15 17L17 17L17 14ZM18 16L18 17L19 17L19 16ZM0 0L0 7L7 7L7 0ZM1 1L1 6L6 6L6 1ZM2 2L2 5L5 5L5 2ZM14 0L14 7L21 7L21 0ZM15 1L15 6L20 6L20 1ZM16 2L16 5L19 5L19 2ZM0 14L0 21L7 21L7 14ZM1 15L1 20L6 20L6 15ZM2 16L2 19L5 19L5 16Z" fill="#000000"/></g></g></svg>
