<?xml version="1.0" encoding="UTF-8"?>
<svg xmlns="http://www.w3.org/2000/svg" version="1.1" width="500" height="500" viewBox="0 0 500 500"><rect x="0" y="0" width="500" height="500" fill="#ffffcc"/><g transform="scale(23.81)"><g transform="translate(0,0)"><path fill-rule="evenodd" d="M9 0L9 1L8 1L8 2L9 2L9 3L8 3L8 4L9 4L9 3L10 3L10 2L9 2L9 1L10 1L10 0ZM12 0L12 1L11 1L11 2L12 2L12 1L13 1L13 0ZM11 3L11 4L10 4L10 5L8 5L8 7L9 7L9 6L10 6L10 8L6 8L6 9L8 9L8 10L5 10L5 11L8 11L8 10L9 10L9 13L8 13L8 12L4 12L4 9L5 9L5 8L0 8L0 10L1 10L1 11L2 11L2 12L4 12L4 13L8 13L8 15L10 15L10 16L11 16L11 15L10 15L10 14L9 14L9 13L10 13L10 8L12 8L12 10L11 10L11 11L12 11L12 10L14 10L14 11L13 11L13 12L14 12L14 13L12 13L12 12L11 12L11 13L12 13L12 15L13 15L13 16L12 16L12 17L13 17L13 16L14 16L14 17L15 17L15 18L17 18L17 17L15 17L15 16L14 16L14 15L15 15L15 14L17 14L17 16L19 16L19 17L21 17L21 16L19 16L19 13L15 13L15 12L14 12L14 11L15 11L15 10L17 10L17 12L19 12L19 11L20 11L20 12L21 12L21 11L20 11L20 10L21 10L21 9L20 9L20 8L19 8L19 9L20 9L20 10L18 10L18 8L17 8L17 9L16 9L16 8L15 8L15 9L14 9L14 8L13 8L13 4L12 4L12 3ZM11 5L11 7L12 7L12 5ZM1 9L1 10L3 10L3 9ZM0 12L0 13L1 13L1 12ZM14 13L14 14L13 14L13 15L14 15L14 14L15 14L15 13ZM20 13L20 14L21 14L21 13ZM8 16L8 21L10 21L10 20L9 20L9 19L10 19L10 18L11 18L11 17L10 17L10 18L9 18L9 16ZM12 18L12 19L11 19L11 20L13 20L13 21L16 21L16 20L17 20L17 21L18 21L18 20L19 20L19 21L20 21L20 20L19 20L19 18L18 18L18 19L15 19L15 20L14 20L14 18ZM0 0L0 7L7 7L7 0ZM1 1L1 6L6 6L6 1ZM2 2L2 5L5 5L5 2ZM14 0L14 7L21 7L21 0ZM15 1L15 6L20 6L20 1ZM16 2L16 5L19 5L19 2ZM0 14L0 21L7 21L7 14ZM1 15L1 20L6 20L6 15ZM2 16L2 19L5 19L5 16Z" fill="#000000"/></g></g></svg>
