<?xml version="1.0" encoding="UTF-8"?>
<svg xmlns="http://www.w3.org/2000/svg" version="1.1" width="500" height="500" viewBox="0 0 500 500"><rect x="0" y="0" width="500" height="500" fill="#ffffcc"/><g transform="scale(23.81)"><g transform="translate(0,0)"><path fill-rule="evenodd" d="M8 0L8 2L9 2L9 4L8 4L8 9L9 9L9 10L8 10L8 12L6 12L6 11L7 11L7 10L6 10L6 9L7 9L7 8L5 8L5 9L3 9L3 8L0 8L0 9L3 9L3 10L2 10L2 11L1 11L1 13L3 13L3 10L5 10L5 11L4 11L4 13L5 13L5 12L6 12L6 13L8 13L8 14L9 14L9 13L8 13L8 12L10 12L10 13L11 13L11 19L10 19L10 15L8 15L8 16L9 16L9 18L8 18L8 21L11 21L11 19L13 19L13 20L12 20L12 21L14 21L14 19L13 19L13 18L16 18L16 19L17 19L17 20L16 20L16 21L18 21L18 19L21 19L21 18L19 18L19 17L18 17L18 15L20 15L20 16L21 16L21 10L20 10L20 12L19 12L19 13L18 13L18 11L19 11L19 9L21 9L21 8L19 8L19 9L17 9L17 8L13 8L13 6L12 6L12 8L11 8L11 5L13 5L13 3L12 3L12 2L13 2L13 0ZM10 1L10 2L11 2L11 1ZM10 3L10 4L9 4L9 7L10 7L10 5L11 5L11 3ZM11 9L11 10L10 10L10 12L11 12L11 13L12 13L12 12L13 12L13 11L11 11L11 10L12 10L12 9ZM13 9L13 10L14 10L14 9ZM15 9L15 11L14 11L14 13L15 13L15 15L14 15L14 14L13 14L13 15L12 15L12 17L13 17L13 15L14 15L14 17L16 17L16 18L17 18L17 19L18 19L18 18L17 18L17 16L15 16L15 15L16 15L16 14L18 14L18 13L17 13L17 11L18 11L18 10L17 10L17 11L16 11L16 9ZM15 11L15 12L16 12L16 11ZM19 13L19 14L20 14L20 13ZM9 19L9 20L10 20L10 19ZM20 20L20 21L21 21L21 20ZM0 0L0 7L7 7L7 0ZM1 1L1 6L6 6L6 1ZM2 2L2 5L5 5L5 2ZM14 0L14 7L21 7L21 0ZM15 1L15 6L20 6L20 1ZM16 2L16 5L19 5L19 2ZM0 14L0 21L7 21L7 14ZM1 15L1 20L6 20L6 15ZM2 16L2 19L5 19L5 16Z" fill="#000000"/></g></g></svg>
