<?xml version="1.0" encoding="UTF-8"?>
<svg xmlns="http://www.w3.org/2000/svg" version="1.1" width="500" height="500" viewBox="0 0 500 500"><rect x="0" y="0" width="500" height="500" fill="#ffffcc"/><g transform="scale(23.81)"><g transform="translate(0,0)"><path fill-rule="evenodd" d="M8 0L8 2L9 2L9 4L8 4L8 10L6 10L6 9L7 9L7 8L5 8L5 10L4 10L4 9L3 9L3 8L0 8L0 9L1 9L1 11L2 11L2 13L3 13L3 12L4 12L4 13L7 13L7 12L6 12L6 11L9 11L9 12L8 12L8 14L9 14L9 15L8 15L8 16L10 16L10 17L14 17L14 16L12 16L12 15L13 15L13 14L12 14L12 13L11 13L11 14L10 14L10 11L11 11L11 10L10 10L10 9L16 9L16 12L15 12L15 13L14 13L14 11L15 11L15 10L14 10L14 11L12 11L12 12L13 12L13 13L14 13L14 15L15 15L15 16L16 16L16 17L15 17L15 18L16 18L16 19L17 19L17 20L16 20L16 21L18 21L18 19L21 19L21 18L19 18L19 17L20 17L20 16L21 16L21 8L19 8L19 9L17 9L17 8L12 8L12 7L13 7L13 6L12 6L12 7L11 7L11 5L10 5L10 7L9 7L9 4L10 4L10 3L11 3L11 4L12 4L12 5L13 5L13 3L12 3L12 2L13 2L13 0ZM10 1L10 2L11 2L11 1ZM2 9L2 11L3 11L3 9ZM19 9L19 11L18 11L18 10L17 10L17 11L18 11L18 13L17 13L17 15L16 15L16 13L15 13L15 15L16 15L16 16L17 16L17 15L18 15L18 17L19 17L19 16L20 16L20 15L18 15L18 13L19 13L19 14L20 14L20 13L19 13L19 12L20 12L20 9ZM10 15L10 16L11 16L11 15ZM8 18L8 21L11 21L11 19L10 19L10 20L9 20L9 18ZM13 18L13 19L12 19L12 20L13 20L13 21L15 21L15 20L13 20L13 19L14 19L14 18ZM17 18L17 19L18 19L18 18ZM20 20L20 21L21 21L21 20ZM0 0L0 7L7 7L7 0ZM1 1L1 6L6 6L6 1ZM2 2L2 5L5 5L5 2ZM14 0L14 7L21 7L21 0ZM15 1L15 6L20 6L20 1ZM16 2L16 5L19 5L19 2ZM0 14L0 21L7 21L7 14ZM1 15L1 20L6 20L6 15ZM2 16L2 19L5 19L5 16Z" fill="#000000"/></g></g></svg>
