<?xml version="1.0" encoding="UTF-8"?>
<svg xmlns="http://www.w3.org/2000/svg" version="1.1" width="500" height="500" viewBox="0 0 500 500"><rect x="0" y="0" width="500" height="500" fill="#ffffcc"/><g transform="scale(20)"><g transform="translate(0,0)"><path fill-rule="evenodd" d="M9 0L9 1L8 1L8 3L9 3L9 4L8 4L8 8L6 8L6 9L7 9L7 10L6 10L6 11L8 11L8 15L7 15L7 14L6 14L6 15L7 15L7 16L4 16L4 14L5 14L5 13L7 13L7 12L5 12L5 10L4 10L4 8L3 8L3 9L2 9L2 8L0 8L0 9L2 9L2 10L4 10L4 11L3 11L3 12L0 12L0 13L1 13L1 14L0 14L0 15L1 15L1 16L0 16L0 17L2 17L2 16L4 16L4 17L7 17L7 16L8 16L8 19L9 19L9 21L8 21L8 22L9 22L9 23L8 23L8 25L13 25L13 24L14 24L14 25L17 25L17 24L18 24L18 22L17 22L17 23L15 23L15 22L14 22L14 20L12 20L12 19L11 19L11 17L12 17L12 16L15 16L15 17L14 17L14 18L15 18L15 17L16 17L16 21L19 21L19 22L20 22L20 23L19 23L19 25L21 25L21 23L23 23L23 19L22 19L22 17L23 17L23 16L24 16L24 21L25 21L25 13L24 13L24 11L25 11L25 9L24 9L24 8L22 8L22 9L21 9L21 8L18 8L18 12L17 12L17 8L16 8L16 12L15 12L15 13L17 13L17 14L18 14L18 15L20 15L20 16L17 16L17 15L16 15L16 16L15 16L15 15L13 15L13 13L14 13L14 11L15 11L15 10L13 10L13 12L12 12L12 13L9 13L9 11L11 11L11 10L12 10L12 9L11 9L11 8L10 8L10 7L11 7L11 6L12 6L12 8L13 8L13 9L15 9L15 6L16 6L16 7L17 7L17 6L16 6L16 5L17 5L17 4L16 4L16 2L17 2L17 1L16 1L16 0L12 0L12 1L11 1L11 2L9 2L9 1L10 1L10 0ZM13 1L13 3L12 3L12 4L9 4L9 5L10 5L10 6L9 6L9 7L10 7L10 6L11 6L11 5L12 5L12 6L13 6L13 8L14 8L14 5L13 5L13 4L14 4L14 2L15 2L15 1ZM8 8L8 11L9 11L9 10L10 10L10 8ZM19 9L19 10L20 10L20 11L21 11L21 12L19 12L19 13L20 13L20 14L21 14L21 12L22 12L22 13L23 13L23 10L22 10L22 11L21 11L21 9ZM0 10L0 11L1 11L1 10ZM3 12L3 13L2 13L2 14L1 14L1 15L3 15L3 14L4 14L4 13L5 13L5 12ZM9 14L9 15L8 15L8 16L9 16L9 17L11 17L11 16L12 16L12 14L11 14L11 15L10 15L10 14ZM22 14L22 15L21 15L21 16L23 16L23 15L24 15L24 14ZM9 15L9 16L10 16L10 15ZM17 17L17 20L20 20L20 17ZM9 18L9 19L10 19L10 18ZM18 18L18 19L19 19L19 18ZM21 19L21 20L22 20L22 19ZM10 20L10 23L9 23L9 24L11 24L11 20ZM21 21L21 22L22 22L22 21ZM13 22L13 23L14 23L14 22ZM24 22L24 23L25 23L25 22ZM23 24L23 25L25 25L25 24ZM0 0L0 7L7 7L7 0ZM1 1L1 6L6 6L6 1ZM2 2L2 5L5 5L5 2ZM18 0L18 7L25 7L25 0ZM19 1L19 6L24 6L24 1ZM20 2L20 5L23 5L23 2ZM0 18L0 25L7 25L7 18ZM1 19L1 24L6 24L6 19ZM2 20L2 23L5 23L5 20Z" fill="#000000"/></g></g></svg>
