<?xml version="1.0" encoding="UTF-8"?>
<svg xmlns="http://www.w3.org/2000/svg" version="1.1" width="500" height="500" viewBox="0 0 500 500"><rect x="0" y="0" width="500" height="500" fill="#ffffcc"/><g transform="scale(23.81)"><g transform="translate(0,0)"><path fill-rule="evenodd" d="M8 0L8 1L9 1L9 2L8 2L8 5L9 5L9 4L11 4L11 6L10 6L10 7L11 7L11 6L12 6L12 7L13 7L13 6L12 6L12 5L13 5L13 4L12 4L12 3L13 3L13 2L12 2L12 3L11 3L11 1L13 1L13 0L10 0L10 1L9 1L9 0ZM9 2L9 3L10 3L10 2ZM8 6L8 7L9 7L9 6ZM0 8L0 10L1 10L1 9L4 9L4 8ZM6 8L6 9L7 9L7 10L4 10L4 11L5 11L5 12L4 12L4 13L8 13L8 14L9 14L9 13L12 13L12 14L14 14L14 15L13 15L13 16L14 16L14 15L17 15L17 16L15 16L15 17L18 17L18 19L19 19L19 16L20 16L20 17L21 17L21 16L20 16L20 14L19 14L19 13L18 13L18 14L17 14L17 13L16 13L16 14L14 14L14 12L13 12L13 11L10 11L10 10L11 10L11 8L10 8L10 9L9 9L9 8L8 8L8 9L7 9L7 8ZM13 8L13 10L14 10L14 11L15 11L15 12L18 12L18 11L16 11L16 10L18 10L18 9L19 9L19 8L16 8L16 9L15 9L15 10L14 10L14 8ZM20 8L20 10L19 10L19 12L21 12L21 8ZM8 9L8 10L7 10L7 11L6 11L6 12L8 12L8 10L9 10L9 9ZM0 11L0 12L1 12L1 13L2 13L2 12L3 12L3 11ZM10 15L10 19L9 19L9 17L8 17L8 21L9 21L9 20L10 20L10 21L11 21L11 20L10 20L10 19L13 19L13 21L15 21L15 20L16 20L16 21L17 21L17 20L16 20L16 19L15 19L15 18L14 18L14 19L13 19L13 17L12 17L12 16L11 16L11 15ZM20 19L20 20L21 20L21 19ZM18 20L18 21L19 21L19 20ZM0 0L0 7L7 7L7 0ZM1 1L1 6L6 6L6 1ZM2 2L2 5L5 5L5 2ZM14 0L14 7L21 7L21 0ZM15 1L15 6L20 6L20 1ZM16 2L16 5L19 5L19 2ZM0 14L0 21L7 21L7 14ZM1 15L1 20L6 20L6 15ZM2 16L2 19L5 19L5 16Z" fill="#000000"/></g></g></svg>
