<?xml version="1.0" encoding="UTF-8"?>
<svg xmlns="http://www.w3.org/2000/svg" version="1.1" width="500" height="500" viewBox="0 0 500 500"><rect x="0" y="0" width="500" height="500" fill="#ffffcc"/><g transform="scale(23.81)"><g transform="translate(0,0)"><path fill-rule="evenodd" d="M8 0L8 1L9 1L9 2L8 2L8 5L11 5L11 4L12 4L12 3L13 3L13 0L12 0L12 3L11 3L11 2L10 2L10 0ZM9 2L9 4L11 4L11 3L10 3L10 2ZM8 6L8 7L9 7L9 8L8 8L8 10L6 10L6 9L7 9L7 8L6 8L6 9L5 9L5 10L4 10L4 8L0 8L0 10L2 10L2 9L3 9L3 10L4 10L4 11L1 11L1 13L2 13L2 12L3 12L3 13L5 13L5 12L6 12L6 13L8 13L8 14L9 14L9 12L8 12L8 11L9 11L9 10L11 10L11 6L10 6L10 7L9 7L9 6ZM12 6L12 7L13 7L13 6ZM9 8L9 9L10 9L10 8ZM13 8L13 9L12 9L12 12L11 12L11 11L10 11L10 12L11 12L11 13L10 13L10 15L9 15L9 16L11 16L11 17L8 17L8 21L14 21L14 20L16 20L16 19L15 19L15 18L14 18L14 17L13 17L13 18L14 18L14 20L13 20L13 19L12 19L12 18L11 18L11 17L12 17L12 16L13 16L13 15L14 15L14 14L13 14L13 15L11 15L11 13L12 13L12 12L13 12L13 11L14 11L14 10L13 10L13 9L14 9L14 8ZM16 8L16 9L15 9L15 12L14 12L14 13L15 13L15 15L17 15L17 16L16 16L16 17L18 17L18 18L17 18L17 19L18 19L18 18L20 18L20 17L19 17L19 15L20 15L20 16L21 16L21 15L20 15L20 14L19 14L19 13L16 13L16 10L17 10L17 12L18 12L18 11L19 11L19 12L21 12L21 8L20 8L20 10L18 10L18 9L19 9L19 8ZM5 10L5 11L6 11L6 12L7 12L7 11L6 11L6 10ZM18 14L18 15L19 15L19 14ZM9 18L9 20L11 20L11 19L10 19L10 18ZM20 19L20 20L21 20L21 19ZM18 20L18 21L19 21L19 20ZM0 0L0 7L7 7L7 0ZM1 1L1 6L6 6L6 1ZM2 2L2 5L5 5L5 2ZM14 0L14 7L21 7L21 0ZM15 1L15 6L20 6L20 1ZM16 2L16 5L19 5L19 2ZM0 14L0 21L7 21L7 14ZM1 15L1 20L6 20L6 15ZM2 16L2 19L5 19L5 16Z" fill="#000000"/></g></g></svg>
