<?xml version="1.0" encoding="UTF-8"?>
<svg xmlns="http://www.w3.org/2000/svg" version="1.1" width="500" height="500" viewBox="0 0 500 500"><rect x="0" y="0" width="500" height="500" fill="#ffffcc"/><g transform="scale(23.81)"><g transform="translate(0,0)"><path fill-rule="evenodd" d="M8 0L8 1L12 1L12 0ZM8 2L8 5L9 5L9 4L11 4L11 6L10 6L10 7L11 7L11 8L10 8L10 12L9 12L9 11L8 11L8 12L6 12L6 11L7 11L7 10L6 10L6 9L7 9L7 8L6 8L6 9L4 9L4 8L0 8L0 9L1 9L1 10L0 10L0 11L1 11L1 13L2 13L2 12L4 12L4 13L8 13L8 14L9 14L9 16L10 16L10 17L12 17L12 18L10 18L10 19L9 19L9 17L8 17L8 21L11 21L11 20L12 20L12 19L13 19L13 20L14 20L14 21L19 21L19 20L15 20L15 19L14 19L14 18L16 18L16 15L17 15L17 19L19 19L19 18L18 18L18 17L19 17L19 16L20 16L20 17L21 17L21 16L20 16L20 14L19 14L19 15L17 15L17 13L16 13L16 14L15 14L15 12L18 12L18 11L19 11L19 12L21 12L21 8L20 8L20 10L18 10L18 9L19 9L19 8L16 8L16 9L15 9L15 12L14 12L14 14L15 14L15 17L14 17L14 18L13 18L13 17L12 17L12 16L11 16L11 15L12 15L12 14L13 14L13 12L12 12L12 11L11 11L11 9L14 9L14 8L12 8L12 7L13 7L13 6L12 6L12 5L13 5L13 4L12 4L12 3L11 3L11 2L10 2L10 3L9 3L9 2ZM8 6L8 7L9 7L9 6ZM11 6L11 7L12 7L12 6ZM8 8L8 10L9 10L9 8ZM2 9L2 10L4 10L4 9ZM5 10L5 11L6 11L6 10ZM13 10L13 11L14 11L14 10ZM16 10L16 11L18 11L18 10ZM10 12L10 13L11 13L11 12ZM10 14L10 15L11 15L11 14ZM13 15L13 16L14 16L14 15ZM10 19L10 20L11 20L11 19ZM20 19L20 20L21 20L21 19ZM0 0L0 7L7 7L7 0ZM1 1L1 6L6 6L6 1ZM2 2L2 5L5 5L5 2ZM14 0L14 7L21 7L21 0ZM15 1L15 6L20 6L20 1ZM16 2L16 5L19 5L19 2ZM0 14L0 21L7 21L7 14ZM1 15L1 20L6 20L6 15ZM2 16L2 19L5 19L5 16Z" fill="#000000"/></g></g></svg>
