<?xml version="1.0" encoding="UTF-8"?>
<svg xmlns="http://www.w3.org/2000/svg" version="1.1" width="500" height="500" viewBox="0 0 500 500"><rect x="0" y="0" width="500" height="500" fill="#ffffcc"/><g transform="scale(23.81)"><g transform="translate(0,0)"><path fill-rule="evenodd" d="M8 0L8 2L9 2L9 4L8 4L8 9L9 9L9 10L6 10L6 9L7 9L7 8L5 8L5 10L4 10L4 9L3 9L3 8L0 8L0 12L2 12L2 11L1 11L1 10L2 10L2 9L3 9L3 13L4 13L4 12L5 12L5 13L7 13L7 12L6 12L6 11L9 11L9 12L8 12L8 14L9 14L9 15L8 15L8 16L9 16L9 18L8 18L8 21L9 21L9 20L10 20L10 21L13 21L13 20L14 20L14 19L15 19L15 18L16 18L16 20L15 20L15 21L17 21L17 20L18 20L18 19L21 19L21 18L18 18L18 19L17 19L17 18L16 18L16 17L15 17L15 18L14 18L14 19L13 19L13 17L14 17L14 15L15 15L15 16L17 16L17 17L18 17L18 15L20 15L20 16L21 16L21 8L19 8L19 9L17 9L17 8L13 8L13 6L12 6L12 8L11 8L11 5L13 5L13 3L12 3L12 2L13 2L13 0ZM10 1L10 2L11 2L11 1ZM10 3L10 4L9 4L9 7L10 7L10 5L11 5L11 3ZM10 9L10 10L9 10L9 11L10 11L10 12L11 12L11 11L10 11L10 10L12 10L12 9ZM15 9L15 11L14 11L14 13L15 13L15 15L16 15L16 13L15 13L15 11L16 11L16 12L17 12L17 11L18 11L18 13L19 13L19 14L20 14L20 13L19 13L19 12L20 12L20 9L19 9L19 10L17 10L17 11L16 11L16 9ZM5 10L5 11L6 11L6 10ZM12 11L12 13L11 13L11 14L10 14L10 13L9 13L9 14L10 14L10 18L9 18L9 19L10 19L10 20L11 20L11 19L12 19L12 18L11 18L11 16L12 16L12 13L13 13L13 11ZM13 14L13 15L14 15L14 14ZM17 14L17 15L18 15L18 14ZM10 18L10 19L11 19L11 18ZM20 20L20 21L21 21L21 20ZM0 0L0 7L7 7L7 0ZM1 1L1 6L6 6L6 1ZM2 2L2 5L5 5L5 2ZM14 0L14 7L21 7L21 0ZM15 1L15 6L20 6L20 1ZM16 2L16 5L19 5L19 2ZM0 14L0 21L7 21L7 14ZM1 15L1 20L6 20L6 15ZM2 16L2 19L5 19L5 16Z" fill="#000000"/></g></g></svg>
