<?xml version="1.0" encoding="UTF-8"?>
<svg xmlns="http://www.w3.org/2000/svg" version="1.1" width="500" height="500" viewBox="0 0 500 500"><rect x="0" y="0" width="500" height="500" fill="#ffffcc"/><g transform="scale(23.81)"><g transform="translate(0,0)"><path fill-rule="evenodd" d="M8 0L8 1L10 1L10 3L9 3L9 2L8 2L8 5L11 5L11 6L10 6L10 7L9 7L9 6L8 6L8 7L9 7L9 8L8 8L8 9L9 9L9 11L8 11L8 10L6 10L6 9L7 9L7 8L6 8L6 9L5 9L5 10L4 10L4 8L0 8L0 10L1 10L1 12L0 12L0 13L1 13L1 12L2 12L2 11L3 11L3 12L4 12L4 13L8 13L8 14L9 14L9 17L8 17L8 21L10 21L10 20L11 20L11 21L15 21L15 20L16 20L16 21L17 21L17 20L16 20L16 19L15 19L15 18L14 18L14 19L13 19L13 17L12 17L12 16L11 16L11 15L12 15L12 14L13 14L13 13L16 13L16 14L15 14L15 15L17 15L17 16L15 16L15 17L17 17L17 18L18 18L18 17L19 17L19 15L20 15L20 14L19 14L19 13L18 13L18 15L17 15L17 11L19 11L19 12L21 12L21 8L20 8L20 9L19 9L19 8L16 8L16 9L14 9L14 8L13 8L13 10L14 10L14 11L15 11L15 12L13 12L13 11L12 11L12 12L11 12L11 13L10 13L10 14L9 14L9 13L8 13L8 12L9 12L9 11L10 11L10 9L11 9L11 10L12 10L12 8L11 8L11 6L12 6L12 7L13 7L13 6L12 6L12 5L13 5L13 4L12 4L12 3L13 3L13 2L12 2L12 1L10 1L10 0ZM11 2L11 3L10 3L10 4L11 4L11 3L12 3L12 2ZM9 8L9 9L10 9L10 8ZM17 9L17 10L16 10L16 11L17 11L17 10L18 10L18 9ZM3 10L3 11L4 11L4 12L5 12L5 11L6 11L6 12L8 12L8 11L6 11L6 10L5 10L5 11L4 11L4 10ZM13 15L13 16L14 16L14 15ZM10 16L10 17L9 17L9 18L10 18L10 17L11 17L11 16ZM20 16L20 17L21 17L21 16ZM9 19L9 20L10 20L10 19ZM11 19L11 20L12 20L12 19ZM20 19L20 20L21 20L21 19ZM18 20L18 21L19 21L19 20ZM0 0L0 7L7 7L7 0ZM1 1L1 6L6 6L6 1ZM2 2L2 5L5 5L5 2ZM14 0L14 7L21 7L21 0ZM15 1L15 6L20 6L20 1ZM16 2L16 5L19 5L19 2ZM0 14L0 21L7 21L7 14ZM1 15L1 20L6 20L6 15ZM2 16L2 19L5 19L5 16Z" fill="#000000"/></g></g></svg>
