<?xml version="1.0" encoding="UTF-8"?>
<svg xmlns="http://www.w3.org/2000/svg" version="1.1" width="500" height="500" viewBox="0 0 500 500"><rect x="0" y="0" width="500" height="500" fill="#ffffcc"/><g transform="scale(23.81)"><g transform="translate(0,0)"><path fill-rule="evenodd" d="M10 0L10 1L8 1L8 2L10 2L10 3L8 3L8 4L9 4L9 5L8 5L8 7L9 7L9 8L6 8L6 9L8 9L8 10L5 10L5 8L0 8L0 12L1 12L1 10L2 10L2 11L3 11L3 10L5 10L5 11L4 11L4 12L2 12L2 13L7 13L7 12L5 12L5 11L8 11L8 12L9 12L9 13L8 13L8 15L9 15L9 13L11 13L11 11L10 11L10 12L9 12L9 11L8 11L8 10L11 10L11 9L12 9L12 11L13 11L13 12L12 12L12 13L13 13L13 14L12 14L12 15L10 15L10 16L11 16L11 17L9 17L9 16L8 16L8 21L9 21L9 20L11 20L11 21L12 21L12 20L11 20L11 19L13 19L13 20L14 20L14 21L16 21L16 20L14 20L14 18L11 18L11 17L13 17L13 16L14 16L14 17L16 17L16 18L18 18L18 17L16 17L16 16L19 16L19 17L21 17L21 16L20 16L20 15L19 15L19 13L18 13L18 14L17 14L17 13L16 13L16 12L14 12L14 11L13 11L13 10L14 10L14 8L13 8L13 9L12 9L12 8L11 8L11 9L9 9L9 8L10 8L10 7L11 7L11 6L12 6L12 7L13 7L13 6L12 6L12 5L13 5L13 0ZM11 1L11 2L12 2L12 1ZM10 3L10 5L9 5L9 7L10 7L10 6L11 6L11 5L12 5L12 3ZM15 8L15 10L17 10L17 9L18 9L18 10L19 10L19 11L17 11L17 12L19 12L19 11L20 11L20 12L21 12L21 11L20 11L20 10L21 10L21 9L20 9L20 8L19 8L19 9L18 9L18 8L17 8L17 9L16 9L16 8ZM14 13L14 14L15 14L15 15L14 15L14 16L15 16L15 15L17 15L17 14L15 14L15 13ZM20 13L20 14L21 14L21 13ZM9 18L9 19L11 19L11 18ZM17 19L17 20L19 20L19 21L20 21L20 20L19 20L19 19ZM0 0L0 7L7 7L7 0ZM1 1L1 6L6 6L6 1ZM2 2L2 5L5 5L5 2ZM14 0L14 7L21 7L21 0ZM15 1L15 6L20 6L20 1ZM16 2L16 5L19 5L19 2ZM0 14L0 21L7 21L7 14ZM1 15L1 20L6 20L6 15ZM2 16L2 19L5 19L5 16Z" fill="#000000"/></g></g></svg>
