<?xml version="1.0" encoding="UTF-8"?>
<svg xmlns="http://www.w3.org/2000/svg" version="1.1" width="500" height="500" viewBox="0 0 500 500"><rect x="0" y="0" width="500" height="500" fill="#ffffcc"/><g transform="scale(23.81)"><g transform="translate(0,0)"><path fill-rule="evenodd" d="M10 0L10 1L8 1L8 2L10 2L10 3L8 3L8 4L9 4L9 5L8 5L8 7L9 7L9 8L6 8L6 9L5 9L5 8L0 8L0 9L1 9L1 10L2 10L2 12L1 12L1 11L0 11L0 13L2 13L2 12L4 12L4 13L7 13L7 12L8 12L8 15L9 15L9 11L8 11L8 9L9 9L9 8L10 8L10 7L11 7L11 8L12 8L12 9L13 9L13 10L11 10L11 11L10 11L10 12L12 12L12 13L11 13L11 14L10 14L10 16L12 16L12 15L13 15L13 16L14 16L14 18L10 18L10 17L9 17L9 16L8 16L8 21L12 21L12 19L13 19L13 20L14 20L14 21L17 21L17 20L19 20L19 21L20 21L20 20L19 20L19 19L15 19L15 20L14 20L14 18L18 18L18 17L16 17L16 16L14 16L14 14L17 14L17 16L19 16L19 17L21 17L21 15L18 15L18 13L17 13L17 12L19 12L19 11L20 11L20 12L21 12L21 11L20 11L20 10L21 10L21 9L20 9L20 8L19 8L19 9L18 9L18 8L17 8L17 9L16 9L16 8L15 8L15 9L16 9L16 10L17 10L17 9L18 9L18 10L19 10L19 11L17 11L17 12L16 12L16 11L15 11L15 12L14 12L14 8L13 8L13 5L12 5L12 7L11 7L11 6L10 6L10 7L9 7L9 5L10 5L10 3L11 3L11 0ZM12 0L12 2L13 2L13 0ZM12 3L12 4L13 4L13 3ZM2 9L2 10L3 10L3 9ZM4 9L4 10L5 10L5 11L6 11L6 12L7 12L7 11L6 11L6 10L7 10L7 9L6 9L6 10L5 10L5 9ZM12 11L12 12L13 12L13 13L12 13L12 14L13 14L13 13L14 13L14 12L13 12L13 11ZM15 12L15 13L16 13L16 12ZM20 13L20 14L21 14L21 13ZM9 18L9 20L11 20L11 19L10 19L10 18ZM0 0L0 7L7 7L7 0ZM1 1L1 6L6 6L6 1ZM2 2L2 5L5 5L5 2ZM14 0L14 7L21 7L21 0ZM15 1L15 6L20 6L20 1ZM16 2L16 5L19 5L19 2ZM0 14L0 21L7 21L7 14ZM1 15L1 20L6 20L6 15ZM2 16L2 19L5 19L5 16Z" fill="#000000"/></g></g></svg>
