<?xml version="1.0" encoding="UTF-8"?>
<svg xmlns="http://www.w3.org/2000/svg" version="1.1" width="500" height="500" viewBox="0 0 500 500"><rect x="0" y="0" width="500" height="500" fill="#ffffcc"/><g transform="scale(23.81)"><g transform="translate(0,0)"><path fill-rule="evenodd" d="M8 1L8 2L9 2L9 3L8 3L8 4L9 4L9 5L8 5L8 7L9 7L9 8L6 8L6 9L8 9L8 10L5 10L5 11L4 11L4 9L5 9L5 8L0 8L0 12L1 12L1 13L3 13L3 12L1 12L1 11L2 11L2 10L3 10L3 11L4 11L4 12L6 12L6 13L8 13L8 15L9 15L9 14L10 14L10 16L8 16L8 21L9 21L9 17L10 17L10 16L11 16L11 17L12 17L12 16L13 16L13 18L10 18L10 21L11 21L11 20L14 20L14 21L16 21L16 20L17 20L17 21L18 21L18 20L19 20L19 21L20 21L20 20L19 20L19 19L15 19L15 18L17 18L17 16L20 16L20 15L19 15L19 13L18 13L18 14L17 14L17 12L19 12L19 11L20 11L20 12L21 12L21 11L20 11L20 10L21 10L21 9L20 9L20 8L19 8L19 9L18 9L18 8L17 8L17 9L16 9L16 8L15 8L15 10L17 10L17 11L15 11L15 12L16 12L16 13L14 13L14 10L12 10L12 9L14 9L14 8L12 8L12 9L11 9L11 10L9 10L9 9L10 9L10 7L11 7L11 6L12 6L12 7L13 7L13 5L10 5L10 4L13 4L13 1L11 1L11 3L10 3L10 1ZM9 6L9 7L10 7L10 6ZM17 9L17 10L18 10L18 11L19 11L19 10L18 10L18 9ZM6 11L6 12L7 12L7 11ZM8 11L8 12L9 12L9 13L10 13L10 14L13 14L13 13L10 13L10 12L13 12L13 11ZM20 13L20 14L21 14L21 13ZM15 14L15 15L14 15L14 16L17 16L17 14ZM11 15L11 16L12 16L12 15ZM14 17L14 18L15 18L15 17ZM18 17L18 18L20 18L20 17ZM14 19L14 20L15 20L15 19ZM0 0L0 7L7 7L7 0ZM1 1L1 6L6 6L6 1ZM2 2L2 5L5 5L5 2ZM14 0L14 7L21 7L21 0ZM15 1L15 6L20 6L20 1ZM16 2L16 5L19 5L19 2ZM0 14L0 21L7 21L7 14ZM1 15L1 20L6 20L6 15ZM2 16L2 19L5 19L5 16Z" fill="#000000"/></g></g></svg>
