<?xml version="1.0" encoding="UTF-8"?>
<svg xmlns="http://www.w3.org/2000/svg" version="1.1" width="500" height="500" viewBox="0 0 500 500"><rect x="0" y="0" width="500" height="500" fill="#ffffcc"/><g transform="scale(23.81)"><g transform="translate(0,0)"><path fill-rule="evenodd" d="M9 0L9 1L8 1L8 2L9 2L9 3L8 3L8 4L9 4L9 3L10 3L10 2L9 2L9 1L10 1L10 0ZM12 0L12 1L11 1L11 2L12 2L12 1L13 1L13 0ZM11 3L11 4L10 4L10 5L8 5L8 7L9 7L9 6L10 6L10 8L6 8L6 9L5 9L5 8L0 8L0 9L1 9L1 10L2 10L2 11L3 11L3 13L4 13L4 11L5 11L5 13L7 13L7 12L9 12L9 13L8 13L8 15L10 15L10 14L9 14L9 13L13 13L13 12L14 12L14 14L11 14L11 15L12 15L12 16L10 16L10 17L13 17L13 18L11 18L11 20L12 20L12 21L13 21L13 20L14 20L14 21L16 21L16 20L14 20L14 19L13 19L13 18L17 18L17 17L18 17L18 18L19 18L19 17L21 17L21 15L20 15L20 16L19 16L19 13L18 13L18 14L17 14L17 12L19 12L19 11L20 11L20 12L21 12L21 11L20 11L20 10L21 10L21 9L20 9L20 8L19 8L19 9L18 9L18 8L17 8L17 9L16 9L16 8L15 8L15 9L14 9L14 8L12 8L12 9L13 9L13 10L12 10L12 12L11 12L11 11L10 11L10 12L9 12L9 11L8 11L8 10L10 10L10 8L11 8L11 4L12 4L12 7L13 7L13 4L12 4L12 3ZM2 9L2 10L4 10L4 9ZM6 9L6 10L5 10L5 11L6 11L6 12L7 12L7 11L6 11L6 10L7 10L7 9ZM17 9L17 10L14 10L14 12L15 12L15 11L16 11L16 12L17 12L17 10L18 10L18 11L19 11L19 10L18 10L18 9ZM0 11L0 12L1 12L1 13L2 13L2 12L1 12L1 11ZM20 13L20 14L21 14L21 13ZM14 14L14 16L13 16L13 17L14 17L14 16L15 16L15 15L16 15L16 16L17 16L17 14ZM8 16L8 21L10 21L10 19L9 19L9 16ZM18 16L18 17L19 17L19 16ZM17 19L17 20L19 20L19 21L20 21L20 20L19 20L19 19ZM0 0L0 7L7 7L7 0ZM1 1L1 6L6 6L6 1ZM2 2L2 5L5 5L5 2ZM14 0L14 7L21 7L21 0ZM15 1L15 6L20 6L20 1ZM16 2L16 5L19 5L19 2ZM0 14L0 21L7 21L7 14ZM1 15L1 20L6 20L6 15ZM2 16L2 19L5 19L5 16Z" fill="#000000"/></g></g></svg>
