<?xml version="1.0" encoding="UTF-8"?>
<svg xmlns="http://www.w3.org/2000/svg" version="1.1" width="500" height="500" viewBox="0 0 500 500"><rect x="0" y="0" width="500" height="500" fill="#ffffcc"/><g transform="scale(23.81)"><g transform="translate(0,0)"><path fill-rule="evenodd" d="M9 0L9 1L8 1L8 2L9 2L9 3L8 3L8 4L10 4L10 5L8 5L8 7L9 7L9 6L10 6L10 8L6 8L6 9L8 9L8 11L7 11L7 10L6 10L6 11L7 11L7 12L5 12L5 10L4 10L4 11L2 11L2 13L3 13L3 12L5 12L5 13L7 13L7 12L8 12L8 11L9 11L9 12L10 12L10 13L11 13L11 12L12 12L12 13L13 13L13 14L11 14L11 15L12 15L12 16L8 16L8 21L11 21L11 20L12 20L12 21L15 21L15 20L14 20L14 17L15 17L15 18L17 18L17 20L16 20L16 21L17 21L17 20L19 20L19 21L20 21L20 20L19 20L19 18L20 18L20 17L18 17L18 18L17 18L17 17L16 17L16 16L14 16L14 14L17 14L17 16L19 16L19 14L17 14L17 12L19 12L19 11L20 11L20 12L21 12L21 11L20 11L20 10L21 10L21 9L20 9L20 8L19 8L19 9L18 9L18 8L17 8L17 9L16 9L16 8L15 8L15 10L17 10L17 11L15 11L15 12L14 12L14 11L13 11L13 10L14 10L14 8L11 8L11 6L12 6L12 7L13 7L13 5L11 5L11 4L10 4L10 2L11 2L11 3L12 3L12 4L13 4L13 1L12 1L12 2L11 2L11 1L10 1L10 0ZM0 8L0 12L1 12L1 9L2 9L2 10L3 10L3 9L5 9L5 8ZM10 8L10 9L9 9L9 10L10 10L10 11L11 11L11 10L13 10L13 9L11 9L11 8ZM17 9L17 10L18 10L18 11L19 11L19 10L18 10L18 9ZM13 12L13 13L14 13L14 12ZM15 12L15 13L16 13L16 12ZM8 13L8 15L9 15L9 13ZM20 13L20 14L21 14L21 13ZM10 17L10 18L11 18L11 17ZM12 17L12 18L13 18L13 17ZM9 19L9 20L11 20L11 19ZM12 19L12 20L13 20L13 19ZM0 0L0 7L7 7L7 0ZM1 1L1 6L6 6L6 1ZM2 2L2 5L5 5L5 2ZM14 0L14 7L21 7L21 0ZM15 1L15 6L20 6L20 1ZM16 2L16 5L19 5L19 2ZM0 14L0 21L7 21L7 14ZM1 15L1 20L6 20L6 15ZM2 16L2 19L5 19L5 16Z" fill="#000000"/></g></g></svg>
