<?xml version="1.0" encoding="UTF-8"?>
<svg xmlns="http://www.w3.org/2000/svg" version="1.1" width="500" height="500" viewBox="0 0 500 500"><rect x="0" y="0" width="500" height="500" fill="#ffffcc"/><g transform="scale(23.81)"><g transform="translate(0,0)"><path fill-rule="evenodd" d="M8 0L8 1L10 1L10 3L9 3L9 2L8 2L8 5L11 5L11 6L10 6L10 7L9 7L9 6L8 6L8 7L9 7L9 8L8 8L8 9L7 9L7 8L6 8L6 9L7 9L7 10L6 10L6 11L5 11L5 10L3 10L3 11L2 11L2 9L4 9L4 8L0 8L0 9L1 9L1 10L0 10L0 13L5 13L5 12L6 12L6 13L7 13L7 12L6 12L6 11L8 11L8 14L10 14L10 15L9 15L9 17L8 17L8 21L9 21L9 20L10 20L10 21L11 21L11 20L10 20L10 17L11 17L11 15L12 15L12 18L11 18L11 19L13 19L13 20L12 20L12 21L15 21L15 20L16 20L16 21L17 21L17 20L16 20L16 19L15 19L15 18L16 18L16 17L13 17L13 16L14 16L14 15L15 15L15 16L18 16L18 17L17 17L17 19L18 19L18 17L19 17L19 15L20 15L20 14L19 14L19 13L16 13L16 10L17 10L17 9L18 9L18 11L17 11L17 12L18 12L18 11L19 11L19 12L21 12L21 8L20 8L20 9L19 9L19 8L16 8L16 9L14 9L14 8L13 8L13 6L12 6L12 5L13 5L13 4L10 4L10 3L12 3L12 1L10 1L10 0ZM11 6L11 8L12 8L12 10L9 10L9 9L10 9L10 8L9 8L9 9L8 9L8 11L10 11L10 12L9 12L9 13L10 13L10 14L11 14L11 13L12 13L12 12L13 12L13 13L14 13L14 14L15 14L15 13L14 13L14 12L15 12L15 11L13 11L13 10L14 10L14 9L13 9L13 8L12 8L12 6ZM11 11L11 12L10 12L10 13L11 13L11 12L12 12L12 11ZM12 14L12 15L13 15L13 14ZM18 14L18 15L19 15L19 14ZM20 16L20 17L21 17L21 16ZM13 18L13 19L14 19L14 18ZM20 19L20 20L21 20L21 19ZM18 20L18 21L19 21L19 20ZM0 0L0 7L7 7L7 0ZM1 1L1 6L6 6L6 1ZM2 2L2 5L5 5L5 2ZM14 0L14 7L21 7L21 0ZM15 1L15 6L20 6L20 1ZM16 2L16 5L19 5L19 2ZM0 14L0 21L7 21L7 14ZM1 15L1 20L6 20L6 15ZM2 16L2 19L5 19L5 16Z" fill="#000000"/></g></g></svg>
