<?xml version="1.0" encoding="UTF-8"?>
<svg xmlns="http://www.w3.org/2000/svg" version="1.1" width="500" height="500" viewBox="0 0 500 500"><rect x="0" y="0" width="500" height="500" fill="#ffffcc"/><g transform="scale(23.81)"><g transform="translate(0,0)"><path fill-rule="evenodd" d="M8 0L8 4L12 4L12 5L11 5L11 6L10 6L10 5L8 5L8 7L9 7L9 9L7 9L7 8L4 8L4 10L3 10L3 9L2 9L2 8L0 8L0 9L2 9L2 10L3 10L3 11L1 11L1 10L0 10L0 11L1 11L1 12L0 12L0 13L1 13L1 12L3 12L3 13L4 13L4 12L6 12L6 13L8 13L8 14L9 14L9 15L8 15L8 17L9 17L9 15L10 15L10 16L12 16L12 17L13 17L13 20L10 20L10 19L11 19L11 17L10 17L10 19L8 19L8 21L14 21L14 18L15 18L15 17L14 17L14 15L12 15L12 14L11 14L11 13L10 13L10 12L8 12L8 11L10 11L10 10L11 10L11 12L12 12L12 13L13 13L13 12L14 12L14 11L15 11L15 13L14 13L14 14L15 14L15 13L16 13L16 19L15 19L15 20L16 20L16 19L18 19L18 18L17 18L17 14L18 14L18 15L19 15L19 16L20 16L20 15L19 15L19 14L20 14L20 13L21 13L21 11L20 11L20 10L19 10L19 9L21 9L21 8L17 8L17 10L16 10L16 8L15 8L15 10L13 10L13 9L12 9L12 8L13 8L13 6L12 6L12 5L13 5L13 4L12 4L12 3L9 3L9 1L10 1L10 2L11 2L11 1L12 1L12 2L13 2L13 0ZM9 6L9 7L10 7L10 6ZM11 6L11 7L12 7L12 6ZM10 8L10 9L11 9L11 10L12 10L12 11L13 11L13 10L12 10L12 9L11 9L11 8ZM6 9L6 10L7 10L7 9ZM15 10L15 11L16 11L16 10ZM18 10L18 11L17 11L17 12L16 12L16 13L19 13L19 12L20 12L20 11L19 11L19 10ZM3 11L3 12L4 12L4 11ZM6 11L6 12L7 12L7 11ZM9 13L9 14L10 14L10 13ZM19 17L19 18L21 18L21 17ZM17 20L17 21L18 21L18 20ZM20 20L20 21L21 21L21 20ZM0 0L0 7L7 7L7 0ZM1 1L1 6L6 6L6 1ZM2 2L2 5L5 5L5 2ZM14 0L14 7L21 7L21 0ZM15 1L15 6L20 6L20 1ZM16 2L16 5L19 5L19 2ZM0 14L0 21L7 21L7 14ZM1 15L1 20L6 20L6 15ZM2 16L2 19L5 19L5 16Z" fill="#000000"/></g></g></svg>
