<?xml version="1.0" encoding="UTF-8"?>
<svg xmlns="http://www.w3.org/2000/svg" version="1.1" width="500" height="500" viewBox="0 0 500 500"><rect x="0" y="0" width="500" height="500" fill="#ffffcc"/><g transform="scale(20)"><g transform="translate(0,0)"><path fill-rule="evenodd" d="M8 0L8 1L11 1L11 3L10 3L10 2L9 2L9 3L10 3L10 5L9 5L9 6L8 6L8 8L9 8L9 9L10 9L10 10L9 10L9 11L10 11L10 10L11 10L11 9L10 9L10 7L11 7L11 6L12 6L12 9L13 9L13 10L12 10L12 11L14 11L14 12L15 12L15 14L14 14L14 13L12 13L12 14L13 14L13 15L12 15L12 16L11 16L11 17L10 17L10 14L11 14L11 12L8 12L8 10L6 10L6 9L7 9L7 8L6 8L6 9L5 9L5 8L3 8L3 9L2 9L2 8L0 8L0 10L1 10L1 11L2 11L2 12L1 12L1 13L0 13L0 17L1 17L1 15L2 15L2 14L3 14L3 13L5 13L5 14L4 14L4 15L3 15L3 16L2 16L2 17L4 17L4 15L5 15L5 14L6 14L6 15L7 15L7 16L5 16L5 17L7 17L7 16L8 16L8 18L9 18L9 20L8 20L8 22L9 22L9 23L8 23L8 25L13 25L13 20L14 20L14 25L15 25L15 24L16 24L16 25L17 25L17 24L16 24L16 21L17 21L17 23L18 23L18 25L19 25L19 23L21 23L21 24L20 24L20 25L21 25L21 24L24 24L24 25L25 25L25 21L22 21L22 22L19 22L19 21L21 21L21 20L22 20L22 19L24 19L24 20L25 20L25 18L24 18L24 17L25 17L25 16L23 16L23 15L25 15L25 14L24 14L24 13L25 13L25 10L24 10L24 11L22 11L22 10L21 10L21 9L19 9L19 8L18 8L18 9L17 9L17 6L16 6L16 9L15 9L15 6L14 6L14 7L13 7L13 6L12 6L12 5L15 5L15 4L14 4L14 1L15 1L15 0L14 0L14 1L12 1L12 0ZM16 1L16 2L15 2L15 3L16 3L16 5L17 5L17 1ZM12 2L12 4L13 4L13 2ZM10 5L10 6L9 6L9 7L10 7L10 6L11 6L11 5ZM13 8L13 9L14 9L14 8ZM24 8L24 9L25 9L25 8ZM1 9L1 10L2 10L2 9ZM4 9L4 10L3 10L3 11L4 11L4 12L7 12L7 11L6 11L6 10L5 10L5 9ZM16 9L16 10L17 10L17 11L15 11L15 10L14 10L14 11L15 11L15 12L16 12L16 13L18 13L18 14L17 14L17 16L21 16L21 15L22 15L22 14L23 14L23 13L24 13L24 12L22 12L22 14L20 14L20 13L21 13L21 10L20 10L20 11L19 11L19 13L18 13L18 12L17 12L17 11L18 11L18 10L19 10L19 9L18 9L18 10L17 10L17 9ZM4 10L4 11L5 11L5 10ZM2 12L2 13L1 13L1 14L2 14L2 13L3 13L3 12ZM6 13L6 14L7 14L7 15L8 15L8 16L9 16L9 15L8 15L8 14L10 14L10 13ZM18 14L18 15L19 15L19 14ZM13 15L13 16L14 16L14 17L12 17L12 18L10 18L10 21L11 21L11 22L10 22L10 24L12 24L12 23L11 23L11 22L12 22L12 21L11 21L11 19L12 19L12 20L13 20L13 19L14 19L14 17L15 17L15 19L16 19L16 15L15 15L15 16L14 16L14 15ZM17 17L17 20L20 20L20 17ZM21 17L21 19L22 19L22 17ZM12 18L12 19L13 19L13 18ZM18 18L18 19L19 19L19 18ZM18 22L18 23L19 23L19 22ZM0 0L0 7L7 7L7 0ZM1 1L1 6L6 6L6 1ZM2 2L2 5L5 5L5 2ZM18 0L18 7L25 7L25 0ZM19 1L19 6L24 6L24 1ZM20 2L20 5L23 5L23 2ZM0 18L0 25L7 25L7 18ZM1 19L1 24L6 24L6 19ZM2 20L2 23L5 23L5 20Z" fill="#000000"/></g></g></svg>
