<?xml version="1.0" encoding="UTF-8"?>
<svg xmlns="http://www.w3.org/2000/svg" version="1.1" width="500" height="500" viewBox="0 0 500 500"><rect x="0" y="0" width="500" height="500" fill="#ffffcc"/><g transform="scale(20)"><g transform="translate(0,0)"><path fill-rule="evenodd" d="M10 0L10 2L11 2L11 0ZM12 0L12 1L14 1L14 2L15 2L15 3L13 3L13 2L12 2L12 4L15 4L15 3L17 3L17 2L16 2L16 1L17 1L17 0L16 0L16 1L14 1L14 0ZM8 1L8 2L9 2L9 1ZM8 3L8 4L9 4L9 5L8 5L8 7L9 7L9 8L6 8L6 9L8 9L8 10L6 10L6 11L4 11L4 12L6 12L6 13L7 13L7 12L8 12L8 11L9 11L9 9L10 9L10 11L11 11L11 9L12 9L12 10L14 10L14 9L16 9L16 10L15 10L15 11L16 11L16 10L17 10L17 12L15 12L15 13L16 13L16 14L15 14L15 16L16 16L16 17L15 17L15 18L14 18L14 17L12 17L12 15L14 15L14 14L10 14L10 13L11 13L11 12L9 12L9 14L6 14L6 15L9 15L9 14L10 14L10 15L11 15L11 16L10 16L10 17L12 17L12 18L13 18L13 19L12 19L12 21L13 21L13 20L14 20L14 21L17 21L17 22L19 22L19 23L20 23L20 24L21 24L21 23L20 23L20 22L22 22L22 21L23 21L23 22L24 22L24 24L22 24L22 25L25 25L25 18L24 18L24 19L23 19L23 20L21 20L21 17L22 17L22 18L23 18L23 16L21 16L21 15L20 15L20 13L23 13L23 15L25 15L25 14L24 14L24 13L25 13L25 10L23 10L23 9L24 9L24 8L23 8L23 9L22 9L22 8L21 8L21 11L22 11L22 10L23 10L23 11L24 11L24 12L20 12L20 13L19 13L19 11L20 11L20 8L19 8L19 11L18 11L18 10L17 10L17 9L18 9L18 8L17 8L17 9L16 9L16 7L17 7L17 4L16 4L16 5L15 5L15 6L14 6L14 8L13 8L13 9L12 9L12 7L13 7L13 5L11 5L11 6L10 6L10 4L11 4L11 3ZM9 6L9 7L10 7L10 6ZM11 6L11 7L12 7L12 6ZM15 6L15 7L16 7L16 6ZM0 8L0 9L1 9L1 10L0 10L0 11L1 11L1 12L0 12L0 17L1 17L1 14L2 14L2 15L3 15L3 16L4 16L4 15L5 15L5 14L4 14L4 13L3 13L3 14L2 14L2 12L3 12L3 10L5 10L5 8ZM10 8L10 9L11 9L11 8ZM1 10L1 11L2 11L2 10ZM6 11L6 12L7 12L7 11ZM12 11L12 13L14 13L14 12L13 12L13 11ZM17 13L17 15L16 15L16 16L17 16L17 15L18 15L18 16L20 16L20 15L19 15L19 13ZM3 14L3 15L4 15L4 14ZM5 16L5 17L8 17L8 19L11 19L11 18L9 18L9 16ZM24 16L24 17L25 17L25 16ZM17 17L17 20L20 20L20 17ZM15 18L15 19L14 19L14 20L16 20L16 18ZM18 18L18 19L19 19L19 18ZM8 20L8 25L10 25L10 24L11 24L11 25L12 25L12 23L13 23L13 22L10 22L10 21L11 21L11 20L10 20L10 21L9 21L9 20ZM19 21L19 22L20 22L20 21ZM9 22L9 23L10 23L10 22ZM15 22L15 23L14 23L14 24L17 24L17 23L16 23L16 22ZM18 24L18 25L19 25L19 24ZM0 0L0 7L7 7L7 0ZM1 1L1 6L6 6L6 1ZM2 2L2 5L5 5L5 2ZM18 0L18 7L25 7L25 0ZM19 1L19 6L24 6L24 1ZM20 2L20 5L23 5L23 2ZM0 18L0 25L7 25L7 18ZM1 19L1 24L6 24L6 19ZM2 20L2 23L5 23L5 20Z" fill="#000000"/></g></g></svg>
