<?xml version="1.0" encoding="UTF-8"?>
<svg xmlns="http://www.w3.org/2000/svg" version="1.1" width="500" height="500" viewBox="0 0 500 500"><rect x="0" y="0" width="500" height="500" fill="#ffffcc"/><g transform="scale(23.81)"><g transform="translate(0,0)"><path fill-rule="evenodd" d="M8 0L8 2L9 2L9 4L8 4L8 10L9 10L9 9L10 9L10 11L9 11L9 13L8 13L8 14L10 14L10 15L8 15L8 16L9 16L9 17L10 17L10 15L11 15L11 14L10 14L10 12L11 12L11 13L12 13L12 15L13 15L13 16L14 16L14 17L12 17L12 16L11 16L11 18L10 18L10 19L9 19L9 18L8 18L8 21L11 21L11 18L12 18L12 19L13 19L13 20L12 20L12 21L14 21L14 19L13 19L13 18L15 18L15 17L16 17L16 20L15 20L15 21L17 21L17 20L18 20L18 19L21 19L21 18L18 18L18 15L20 15L20 16L21 16L21 8L19 8L19 10L18 10L18 9L17 9L17 8L13 8L13 6L12 6L12 8L11 8L11 5L13 5L13 3L12 3L12 2L13 2L13 0ZM10 1L10 2L11 2L11 1ZM10 3L10 4L9 4L9 7L10 7L10 5L11 5L11 3ZM0 8L0 9L1 9L1 10L0 10L0 11L1 11L1 12L0 12L0 13L1 13L1 12L2 12L2 13L3 13L3 12L2 12L2 9L3 9L3 8ZM5 8L5 10L3 10L3 11L4 11L4 13L5 13L5 10L6 10L6 11L7 11L7 12L6 12L6 13L7 13L7 12L8 12L8 11L7 11L7 10L6 10L6 9L7 9L7 8ZM11 9L11 10L12 10L12 9ZM13 9L13 10L14 10L14 9ZM15 9L15 11L14 11L14 13L13 13L13 15L14 15L14 16L15 16L15 15L16 15L16 16L17 16L17 15L16 15L16 14L15 14L15 11L16 11L16 9ZM19 10L19 11L18 11L18 13L17 13L17 14L18 14L18 13L19 13L19 14L20 14L20 13L19 13L19 12L20 12L20 10ZM11 11L11 12L12 12L12 11ZM14 14L14 15L15 15L15 14ZM17 18L17 19L18 19L18 18ZM20 20L20 21L21 21L21 20ZM0 0L0 7L7 7L7 0ZM1 1L1 6L6 6L6 1ZM2 2L2 5L5 5L5 2ZM14 0L14 7L21 7L21 0ZM15 1L15 6L20 6L20 1ZM16 2L16 5L19 5L19 2ZM0 14L0 21L7 21L7 14ZM1 15L1 20L6 20L6 15ZM2 16L2 19L5 19L5 16Z" fill="#000000"/></g></g></svg>
