<?xml version="1.0" encoding="UTF-8"?>
<svg xmlns="http://www.w3.org/2000/svg" version="1.1" width="500" height="500" viewBox="0 0 500 500"><rect x="0" y="0" width="500" height="500" fill="#ffffcc"/><g transform="scale(20)"><g transform="translate(0,0)"><path fill-rule="evenodd" d="M8 0L8 4L9 4L9 5L8 5L8 7L9 7L9 6L10 6L10 9L11 9L11 8L12 8L12 9L13 9L13 10L15 10L15 11L14 11L14 12L13 12L13 11L12 11L12 12L11 12L11 13L10 13L10 14L11 14L11 15L10 15L10 17L8 17L8 16L9 16L9 15L7 15L7 14L6 14L6 13L9 13L9 12L10 12L10 11L11 11L11 10L9 10L9 9L8 9L8 10L3 10L3 9L2 9L2 8L0 8L0 10L1 10L1 11L0 11L0 14L1 14L1 11L2 11L2 10L3 10L3 13L5 13L5 14L6 14L6 15L5 15L5 16L4 16L4 17L5 17L5 16L6 16L6 17L8 17L8 18L9 18L9 19L8 19L8 21L9 21L9 19L10 19L10 18L11 18L11 16L12 16L12 17L13 17L13 18L15 18L15 17L14 17L14 15L15 15L15 16L16 16L16 21L17 21L17 22L16 22L16 23L17 23L17 25L18 25L18 23L20 23L20 21L21 21L21 22L22 22L22 25L25 25L25 24L24 24L24 22L25 22L25 19L24 19L24 18L23 18L23 19L22 19L22 18L21 18L21 17L23 17L23 16L24 16L24 17L25 17L25 15L23 15L23 14L24 14L24 13L25 13L25 12L24 12L24 11L23 11L23 9L25 9L25 8L21 8L21 9L20 9L20 8L19 8L19 9L20 9L20 10L19 10L19 11L18 11L18 9L17 9L17 4L16 4L16 3L17 3L17 1L16 1L16 0L13 0L13 1L11 1L11 2L12 2L12 5L13 5L13 1L14 1L14 2L15 2L15 1L16 1L16 3L15 3L15 4L14 4L14 5L16 5L16 9L14 9L14 7L15 7L15 6L14 6L14 7L13 7L13 6L12 6L12 7L11 7L11 3L10 3L10 2L9 2L9 0ZM12 7L12 8L13 8L13 7ZM4 8L4 9L7 9L7 8ZM1 9L1 10L2 10L2 9ZM21 9L21 10L20 10L20 11L19 11L19 13L17 13L17 14L16 14L16 16L19 16L19 15L20 15L20 16L22 16L22 14L23 14L23 13L22 13L22 11L21 11L21 10L22 10L22 9ZM6 11L6 12L9 12L9 11ZM15 11L15 13L13 13L13 12L12 12L12 13L11 13L11 14L12 14L12 13L13 13L13 14L15 14L15 13L16 13L16 11ZM17 11L17 12L18 12L18 11ZM20 11L20 12L21 12L21 11ZM20 13L20 14L22 14L22 13ZM17 14L17 15L19 15L19 14ZM2 15L2 16L0 16L0 17L3 17L3 15ZM6 15L6 16L7 16L7 15ZM12 15L12 16L13 16L13 15ZM17 17L17 20L20 20L20 17ZM18 18L18 19L19 19L19 18ZM12 19L12 20L10 20L10 22L9 22L9 23L8 23L8 25L10 25L10 22L11 22L11 24L12 24L12 25L14 25L14 23L15 23L15 22L13 22L13 21L15 21L15 19L14 19L14 20L13 20L13 19ZM21 19L21 21L22 21L22 22L23 22L23 21L24 21L24 20L23 20L23 21L22 21L22 19ZM12 20L12 21L11 21L11 22L12 22L12 21L13 21L13 20ZM17 22L17 23L18 23L18 22ZM12 23L12 24L13 24L13 23ZM15 24L15 25L16 25L16 24ZM20 24L20 25L21 25L21 24ZM0 0L0 7L7 7L7 0ZM1 1L1 6L6 6L6 1ZM2 2L2 5L5 5L5 2ZM18 0L18 7L25 7L25 0ZM19 1L19 6L24 6L24 1ZM20 2L20 5L23 5L23 2ZM0 18L0 25L7 25L7 18ZM1 19L1 24L6 24L6 19ZM2 20L2 23L5 23L5 20Z" fill="#000000"/></g></g></svg>
