<?xml version="1.0" encoding="UTF-8"?>
<svg xmlns="http://www.w3.org/2000/svg" version="1.1" width="500" height="500" viewBox="0 0 500 500"><rect x="0" y="0" width="500" height="500" fill="#ffffcc"/><g transform="scale(20)"><g transform="translate(0,0)"><path fill-rule="evenodd" d="M8 0L8 4L9 4L9 5L8 5L8 7L9 7L9 6L10 6L10 9L11 9L11 8L12 8L12 9L13 9L13 10L15 10L15 11L14 11L14 12L13 12L13 11L12 11L12 12L11 12L11 13L8 13L8 12L10 12L10 11L11 11L11 10L9 10L9 9L7 9L7 8L4 8L4 9L2 9L2 8L0 8L0 12L1 12L1 13L0 13L0 14L2 14L2 13L3 13L3 12L4 12L4 13L5 13L5 14L4 14L4 15L3 15L3 16L0 16L0 17L3 17L3 16L4 16L4 17L5 17L5 16L6 16L6 17L8 17L8 18L9 18L9 19L8 19L8 21L9 21L9 23L8 23L8 25L11 25L11 24L12 24L12 25L14 25L14 23L17 23L17 24L18 24L18 23L19 23L19 25L21 25L21 24L20 24L20 21L21 21L21 17L23 17L23 16L24 16L24 17L25 17L25 15L23 15L23 14L24 14L24 13L25 13L25 12L24 12L24 11L23 11L23 9L25 9L25 8L21 8L21 9L20 9L20 8L19 8L19 9L20 9L20 10L21 10L21 11L22 11L22 13L20 13L20 11L19 11L19 12L17 12L17 11L18 11L18 10L17 10L17 9L16 9L16 8L17 8L17 3L16 3L16 2L17 2L17 1L16 1L16 0L13 0L13 1L11 1L11 2L12 2L12 5L13 5L13 1L14 1L14 2L15 2L15 3L16 3L16 4L14 4L14 5L16 5L16 7L15 7L15 6L14 6L14 7L13 7L13 6L12 6L12 7L11 7L11 3L10 3L10 2L9 2L9 0ZM15 1L15 2L16 2L16 1ZM12 7L12 8L13 8L13 7ZM14 7L14 9L15 9L15 7ZM1 9L1 10L2 10L2 9ZM4 9L4 10L3 10L3 11L1 11L1 12L3 12L3 11L4 11L4 12L5 12L5 13L6 13L6 14L5 14L5 15L6 15L6 16L8 16L8 17L9 17L9 18L10 18L10 19L9 19L9 20L12 20L12 21L11 21L11 22L10 22L10 23L11 23L11 22L12 22L12 21L13 21L13 22L16 22L16 16L15 16L15 15L14 15L14 17L15 17L15 18L13 18L13 17L12 17L12 16L13 16L13 15L12 15L12 16L10 16L10 15L11 15L11 14L12 14L12 13L13 13L13 14L15 14L15 13L13 13L13 12L12 12L12 13L11 13L11 14L8 14L8 13L6 13L6 12L7 12L7 11L8 11L8 10L7 10L7 9ZM21 9L21 10L22 10L22 9ZM4 10L4 11L5 11L5 12L6 12L6 11L7 11L7 10ZM16 12L16 13L17 13L17 14L16 14L16 15L17 15L17 16L20 16L20 15L21 15L21 16L22 16L22 14L23 14L23 13L22 13L22 14L20 14L20 13L17 13L17 12ZM6 14L6 15L7 15L7 14ZM17 14L17 15L20 15L20 14ZM9 16L9 17L10 17L10 16ZM17 17L17 20L20 20L20 17ZM18 18L18 19L19 19L19 18ZM23 18L23 19L22 19L22 22L21 22L21 23L22 23L22 25L25 25L25 24L24 24L24 22L25 22L25 19L24 19L24 18ZM12 19L12 20L13 20L13 21L15 21L15 19L14 19L14 20L13 20L13 19ZM23 20L23 21L24 21L24 20ZM12 23L12 24L13 24L13 23ZM15 24L15 25L16 25L16 24ZM0 0L0 7L7 7L7 0ZM1 1L1 6L6 6L6 1ZM2 2L2 5L5 5L5 2ZM18 0L18 7L25 7L25 0ZM19 1L19 6L24 6L24 1ZM20 2L20 5L23 5L23 2ZM0 18L0 25L7 25L7 18ZM1 19L1 24L6 24L6 19ZM2 20L2 23L5 23L5 20Z" fill="#000000"/></g></g></svg>
