<?xml version="1.0" encoding="UTF-8"?>
<svg xmlns="http://www.w3.org/2000/svg" version="1.1" width="500" height="500" viewBox="0 0 500 500"><rect x="0" y="0" width="500" height="500" fill="#ffffcc"/><g transform="scale(23.81)"><g transform="translate(0,0)"><path fill-rule="evenodd" d="M8 0L8 2L9 2L9 4L8 4L8 9L10 9L10 10L9 10L9 11L7 11L7 10L6 10L6 9L7 9L7 8L5 8L5 10L3 10L3 8L0 8L0 10L1 10L1 11L0 11L0 12L2 12L2 11L5 11L5 13L7 13L7 12L8 12L8 14L9 14L9 15L8 15L8 16L9 16L9 18L8 18L8 21L11 21L11 20L10 20L10 19L11 19L11 18L10 18L10 16L11 16L11 17L15 17L15 15L14 15L14 14L16 14L16 16L17 16L17 17L16 17L16 19L17 19L17 20L16 20L16 21L17 21L17 20L18 20L18 19L21 19L21 18L18 18L18 15L21 15L21 8L19 8L19 10L18 10L18 9L17 9L17 8L12 8L12 7L13 7L13 6L12 6L12 7L11 7L11 5L10 5L10 7L9 7L9 4L10 4L10 3L11 3L11 4L12 4L12 5L13 5L13 3L12 3L12 2L13 2L13 0ZM10 1L10 2L11 2L11 1ZM11 9L11 13L12 13L12 14L13 14L13 12L15 12L15 10L16 10L16 9ZM13 10L13 11L12 11L12 12L13 12L13 11L14 11L14 10ZM19 10L19 11L18 11L18 13L17 13L17 14L18 14L18 13L19 13L19 14L20 14L20 13L19 13L19 12L20 12L20 10ZM6 11L6 12L7 12L7 11ZM9 11L9 12L10 12L10 11ZM16 11L16 12L17 12L17 11ZM3 12L3 13L4 13L4 12ZM9 13L9 14L10 14L10 15L9 15L9 16L10 16L10 15L11 15L11 14L10 14L10 13ZM12 15L12 16L13 16L13 15ZM19 16L19 17L20 17L20 16ZM14 18L14 19L15 19L15 18ZM17 18L17 19L18 19L18 18ZM12 19L12 20L13 20L13 19ZM14 20L14 21L15 21L15 20ZM20 20L20 21L21 21L21 20ZM0 0L0 7L7 7L7 0ZM1 1L1 6L6 6L6 1ZM2 2L2 5L5 5L5 2ZM14 0L14 7L21 7L21 0ZM15 1L15 6L20 6L20 1ZM16 2L16 5L19 5L19 2ZM0 14L0 21L7 21L7 14ZM1 15L1 20L6 20L6 15ZM2 16L2 19L5 19L5 16Z" fill="#000000"/></g></g></svg>
