<?xml version="1.0" encoding="UTF-8"?>
<svg xmlns="http://www.w3.org/2000/svg" version="1.1" width="500" height="500" viewBox="0 0 500 500"><rect x="0" y="0" width="500" height="500" fill="#ffffcc"/><g transform="scale(23.81)"><g transform="translate(0,0)"><path fill-rule="evenodd" d="M8 0L8 2L9 2L9 4L8 4L8 9L7 9L7 8L5 8L5 10L4 10L4 9L3 9L3 8L0 8L0 9L3 9L3 10L0 10L0 11L2 11L2 12L3 12L3 13L4 13L4 12L3 12L3 10L4 10L4 11L5 11L5 12L6 12L6 13L8 13L8 14L9 14L9 13L10 13L10 14L11 14L11 15L8 15L8 16L9 16L9 17L10 17L10 18L8 18L8 21L9 21L9 19L10 19L10 21L11 21L11 19L10 19L10 18L11 18L11 17L15 17L15 18L14 18L14 19L15 19L15 20L14 20L14 21L17 21L17 18L18 18L18 19L21 19L21 18L19 18L19 17L20 17L20 16L19 16L19 17L18 17L18 14L19 14L19 15L21 15L21 8L19 8L19 9L18 9L18 10L17 10L17 8L12 8L12 7L13 7L13 6L12 6L12 7L11 7L11 5L10 5L10 7L9 7L9 4L10 4L10 3L11 3L11 4L12 4L12 5L13 5L13 3L12 3L12 2L13 2L13 0ZM10 1L10 2L11 2L11 1ZM6 9L6 10L5 10L5 11L6 11L6 12L8 12L8 10L9 10L9 9L8 9L8 10L7 10L7 9ZM10 9L10 11L11 11L11 13L12 13L12 14L13 14L13 12L15 12L15 13L16 13L16 12L18 12L18 13L19 13L19 14L20 14L20 13L19 13L19 12L20 12L20 10L19 10L19 11L15 11L15 10L16 10L16 9ZM6 10L6 11L7 11L7 10ZM13 10L13 11L12 11L12 12L13 12L13 11L14 11L14 10ZM14 14L14 15L15 15L15 17L16 17L16 16L17 16L17 15L15 15L15 14ZM12 15L12 16L13 16L13 15ZM10 16L10 17L11 17L11 16ZM12 19L12 20L13 20L13 19ZM20 20L20 21L21 21L21 20ZM0 0L0 7L7 7L7 0ZM1 1L1 6L6 6L6 1ZM2 2L2 5L5 5L5 2ZM14 0L14 7L21 7L21 0ZM15 1L15 6L20 6L20 1ZM16 2L16 5L19 5L19 2ZM0 14L0 21L7 21L7 14ZM1 15L1 20L6 20L6 15ZM2 16L2 19L5 19L5 16Z" fill="#000000"/></g></g></svg>
