<?xml version="1.0" encoding="UTF-8"?>
<svg xmlns="http://www.w3.org/2000/svg" version="1.1" width="500" height="500" viewBox="0 0 500 500"><rect x="0" y="0" width="500" height="500" fill="#ffffcc"/><g transform="scale(23.81)"><g transform="translate(0,0)"><path fill-rule="evenodd" d="M8 0L8 1L9 1L9 2L8 2L8 5L12 5L12 3L13 3L13 0L12 0L12 3L11 3L11 2L10 2L10 0ZM9 2L9 4L11 4L11 3L10 3L10 2ZM8 6L8 7L9 7L9 8L8 8L8 9L7 9L7 8L6 8L6 9L7 9L7 10L6 10L6 11L7 11L7 12L6 12L6 13L8 13L8 14L9 14L9 13L10 13L10 14L11 14L11 16L10 16L10 15L9 15L9 16L10 16L10 17L8 17L8 21L9 21L9 20L10 20L10 21L12 21L12 20L10 20L10 19L13 19L13 21L15 21L15 20L16 20L16 21L17 21L17 20L16 20L16 18L14 18L14 14L15 14L15 17L17 17L17 16L18 16L18 17L19 17L19 18L20 18L20 16L21 16L21 15L20 15L20 14L19 14L19 15L18 15L18 13L16 13L16 12L18 12L18 11L19 11L19 12L21 12L21 8L20 8L20 9L19 9L19 8L16 8L16 9L15 9L15 12L13 12L13 11L14 11L14 10L13 10L13 11L12 11L12 10L10 10L10 11L11 11L11 12L12 12L12 14L11 14L11 13L10 13L10 12L9 12L9 13L8 13L8 11L7 11L7 10L8 10L8 9L9 9L9 8L10 8L10 9L11 9L11 8L13 8L13 9L14 9L14 8L13 8L13 6L12 6L12 7L11 7L11 6L10 6L10 7L9 7L9 6ZM0 8L0 13L3 13L3 12L4 12L4 11L5 11L5 9L4 9L4 8ZM2 9L2 10L3 10L3 11L4 11L4 10L3 10L3 9ZM17 9L17 10L16 10L16 11L17 11L17 10L19 10L19 9ZM15 13L15 14L16 14L16 13ZM12 14L12 17L13 17L13 14ZM19 15L19 16L20 16L20 15ZM9 18L9 19L10 19L10 18ZM13 18L13 19L14 19L14 18ZM20 19L20 20L21 20L21 19ZM18 20L18 21L19 21L19 20ZM0 0L0 7L7 7L7 0ZM1 1L1 6L6 6L6 1ZM2 2L2 5L5 5L5 2ZM14 0L14 7L21 7L21 0ZM15 1L15 6L20 6L20 1ZM16 2L16 5L19 5L19 2ZM0 14L0 21L7 21L7 14ZM1 15L1 20L6 20L6 15ZM2 16L2 19L5 19L5 16Z" fill="#000000"/></g></g></svg>
