<?xml version="1.0" encoding="UTF-8"?>
<svg xmlns="http://www.w3.org/2000/svg" version="1.1" width="500" height="500" viewBox="0 0 500 500"><rect x="0" y="0" width="500" height="500" fill="#ffffcc"/><g transform="scale(23.81)"><g transform="translate(0,0)"><path fill-rule="evenodd" d="M8 0L8 1L9 1L9 0ZM10 0L10 2L8 2L8 5L9 5L9 6L8 6L8 7L9 7L9 6L10 6L10 7L11 7L11 8L8 8L8 9L7 9L7 8L6 8L6 9L4 9L4 8L0 8L0 10L2 10L2 11L0 11L0 13L1 13L1 12L2 12L2 13L5 13L5 12L6 12L6 13L8 13L8 14L9 14L9 16L12 16L12 18L11 18L11 19L10 19L10 17L8 17L8 21L10 21L10 20L11 20L11 21L15 21L15 20L16 20L16 21L17 21L17 20L16 20L16 19L15 19L15 18L14 18L14 15L13 15L13 16L12 16L12 14L13 14L13 13L10 13L10 14L9 14L9 13L8 13L8 11L9 11L9 12L10 12L10 11L11 11L11 12L13 12L13 11L14 11L14 10L13 10L13 11L11 11L11 10L10 10L10 9L11 9L11 8L12 8L12 9L14 9L14 8L12 8L12 7L13 7L13 6L12 6L12 7L11 7L11 5L13 5L13 2L12 2L12 1L13 1L13 0L12 0L12 1L11 1L11 0ZM10 2L10 4L9 4L9 5L11 5L11 4L12 4L12 2ZM16 8L16 10L15 10L15 11L16 11L16 10L17 10L17 13L16 13L16 12L14 12L14 14L15 14L15 15L17 15L17 16L16 16L16 17L19 17L19 18L20 18L20 16L21 16L21 15L20 15L20 14L19 14L19 15L18 15L18 14L17 14L17 13L18 13L18 11L19 11L19 12L21 12L21 8L20 8L20 9L19 9L19 8ZM2 9L2 10L4 10L4 9ZM6 9L6 10L5 10L5 11L6 11L6 12L7 12L7 11L8 11L8 10L7 10L7 9ZM17 9L17 10L19 10L19 9ZM6 10L6 11L7 11L7 10ZM9 10L9 11L10 11L10 10ZM2 11L2 12L3 12L3 11ZM10 14L10 15L11 15L11 14ZM13 18L13 19L14 19L14 18ZM9 19L9 20L10 20L10 19ZM11 19L11 20L12 20L12 19ZM20 19L20 20L21 20L21 19ZM18 20L18 21L19 21L19 20ZM0 0L0 7L7 7L7 0ZM1 1L1 6L6 6L6 1ZM2 2L2 5L5 5L5 2ZM14 0L14 7L21 7L21 0ZM15 1L15 6L20 6L20 1ZM16 2L16 5L19 5L19 2ZM0 14L0 21L7 21L7 14ZM1 15L1 20L6 20L6 15ZM2 16L2 19L5 19L5 16Z" fill="#000000"/></g></g></svg>
